<?xml version="1.0" encoding="UTF-8" standalone="no"?>
<svg
   xmlns:dc="http://purl.org/dc/elements/1.1/"
   xmlns:cc="http://creativecommons.org/ns#"
   xmlns:rdf="http://www.w3.org/1999/02/22-rdf-syntax-ns#"
   xmlns:svg="http://www.w3.org/2000/svg"
   xmlns="http://www.w3.org/2000/svg"
   xmlns:sodipodi="http://sodipodi.sourceforge.net/DTD/sodipodi-0.dtd"
   xmlns:inkscape="http://www.inkscape.org/namespaces/inkscape"
   version="1.0"
   width="2550.000000pt"
   height="3300.000000pt"
   viewBox="0 0 2550.000000 3300.000000"
   preserveAspectRatio="xMidYMid meet"
   id="svg80"
   sodipodi:docname="classic_FSM_diag.svg"
   inkscape:version="0.92.2 (5c3e80d, 2017-08-06)"
   inkscape:export-filename="C:\xesscorp\MyHDL\pygmyhdl\examples\5_fsm\classic_FSM_diag.png"
   inkscape:export-xdpi="144"
   inkscape:export-ydpi="144">
  <defs
     id="defs84" />
  <sodipodi:namedview
     pagecolor="#ffffff"
     bordercolor="#666666"
     borderopacity="1"
     objecttolerance="10"
     gridtolerance="10"
     guidetolerance="10"
     inkscape:pageopacity="0"
     inkscape:pageshadow="2"
     inkscape:window-width="1746"
     inkscape:window-height="1512"
     id="namedview82"
     showgrid="false"
     inkscape:zoom="1.1522304"
     inkscape:cx="1985.0588"
     inkscape:cy="2378.5027"
     inkscape:window-x="815"
     inkscape:window-y="129"
     inkscape:window-maximized="0"
     inkscape:current-layer="svg80" />
  <metadata
     id="metadata2">
Created by potrace 1.15, written by Peter Selinger 2001-2017
<rdf:RDF>
  <cc:Work
     rdf:about="">
    <dc:format>image/svg+xml</dc:format>
    <dc:type
       rdf:resource="http://purl.org/dc/dcmitype/StillImage" />
    <dc:title></dc:title>
  </cc:Work>
</rdf:RDF>
</metadata>
  <path
     style="fill:#000000;stroke:none;stroke-width:0.1"
     inkscape:connector-curvature="0"
     id="path8"
     d="m 1078.0711,1547.9171 c 0.7,3.6 1.5,7.1 1.9,7.8 0.5,0.6 1.4,3.5 2.2,6.4 0.7,2.9 2.7,7.7 4.2,10.5 3.6,6.4 14.6,19.2 19.3,22.3 1.9,1.3 4.4,3.2 5.5,4.2 3.5,3.2 9.3,6.7 13.8,8.2 2.4,0.8 5.9,2.4 7.8,3.5 2.1,1.2 7.6,2.6 13.9,3.6 5.8,0.8 12.1,2.1 14,2.7 4.1,1.4 17.2,1.4 22.3,0 2,-0.6 3.8,-0.7 4.1,-0.4 1.4,1.4 0.5,9.9 -1.4,12.7 -1.1,1.6 -2,3.6 -2,4.4 0,0.7 -1.6,4 -3.6,7.3 -3.5,5.7 -3.6,6.2 -2.5,10 1.1,3.4 1.6,3.9 3.8,3.6 2.1,-0.3 2.9,-1.3 4.8,-6.7 2.9,-7.8 3.5,-8.5 7.4,-7.6 2.6,0.5 3.1,1.2 3.6,4.3 0.4,2 1.2,5.3 2,7.2 0.7,1.9 1.6,4.8 2,6.5 0.8,3.9 9.4,21.5 10.5,21.5 0.4,0 1.3,1.5 1.9,3.2 1.1,3 2.4,5.3 7.7,13.1 2.4,3.5 6.5,10.6 10,17.2 2.6,4.8 3.9,6.6 12.7,16.7 2.3,2.6 4.5,5.6 5.1,6.5 0.9,1.8 7.1,7.8 13.2,12.9 1.7,1.5 4.4,3.7 5.8,5 1.5,1.3 3,2.4 3.3,2.4 0.3,0 1.8,1.2 3.3,2.7 1.5,1.6 4.9,4.1 7.5,5.8 2.7,1.6 5.9,3.7 7,4.5 1.2,0.8 3.5,2.4 5.1,3.4 1.6,1.1 4,3 5.4,4.2 1.4,1.3 4.3,3 6.5,4 2.2,0.9 5.6,2.9 7.6,4.5 2,1.6 4.4,2.9 5.2,2.9 0.8,0 1.7,0.7 2.1,1.5 0.3,0.9 2.7,2.4 5.3,3.5 2.7,1.1 6.4,2.9 8.3,3.9 1.9,1.1 5.2,2.2 7.3,2.6 2,0.4 4,1.1 4.2,1.5 0.7,1.1 -2.5,9 -3.5,9 -0.5,0 -1.6,2.6 -2.5,5.7 -1,3.2 -2.4,7.8 -3.3,10.3 -0.8,2.5 -1.7,8.8 -2,14.1 -0.7,14.6 3.7,30.5 15.5,55.9 2.9,6.2 7.3,11.3 15.3,17.4 6.8,5.1 19.4,12.6 21.2,12.6 0.8,0 1.8,0.4 2.4,0.9 0.5,0.5 4.2,2.1 8.2,3.5 4.1,1.4 8.2,3 9.1,3.6 7.8,4.1 39.1,5.4 51.1,2.1 9,-2.5 17,-5.7 20.2,-8.1 1.5,-1.1 3.2,-2 3.8,-2 1.1,0 7.9,-4.7 13.5,-9.3 1.8,-1.5 3.7,-2.7 4.2,-2.7 1.5,0 26.1,-25.7 27.8,-29 0.9,-1.7 1.9,-3 2.4,-3 1.1,0 9.1,-12 9.1,-13.7 0,-0.7 0.6,-2.4 1.4,-3.6 1.6,-2.6 3.5,-12.1 3.9,-19.2 0.1,-3.9 0.6,-5.1 2,-5.3 2,-0.4 8.4,4 16.2,11 2.8,2.7 5.6,4.8 6.2,4.8 1.6,0 4.3,-3.5 4.3,-5.7 0,-1.1 -1,-2.4 -2.4,-3.1 -2.3,-1 -2.4,-1.5 -1.9,-6.9 0.3,-3.2 0.8,-6 1,-6.2 0.2,-0.3 3.4,-0.6 7.1,-0.7 3.7,-0.2 8.3,-0.5 10.2,-0.8 1.9,-0.2 9.8,-0.9 17.5,-1.6 7.7,-0.6 16,-1.5 18.5,-2.1 2.5,-0.5 8.8,-1.6 14,-2.4 14.6,-2.2 17.9,-3.1 27,-7 13.6,-5.8 30,-14.4 33,-17.3 0.8,-0.8 2.8,-2.1 4.5,-2.8 1.8,-0.7 3.8,-2 4.5,-2.9 0.7,-0.9 2.9,-2.3 4.8,-3.1 10.8,-4.5 30.3,-21.3 41.7,-35.8 1.6,-2.1 4,-5 5.3,-6.3 2.9,-3.1 10.2,-13.8 10.2,-14.8 0,-0.5 0.7,-1.6 1.5,-2.5 2.2,-2.5 8.3,-12.6 9.1,-15.3 0.3,-1.2 1.4,-3.6 2.4,-5.2 1,-1.7 3.9,-8.2 6.5,-14.5 2.6,-6.3 5.3,-12.6 6,-14 0.7,-1.4 2,-5.4 2.9,-9 0.9,-3.6 2.5,-8.1 3.5,-10 1,-1.9 2.4,-5.8 3.1,-8.5 0.7,-2.8 2,-7 2.8,-9.5 1,-2.7 1.8,-9.6 2.1,-17.4 l 0.6,-12.9 5.5,-1.8 c 3,-1 6.3,-1.8 7.3,-1.8 0.9,-0.1 4.1,-1.3 7,-2.7 2.8,-1.4 7.2,-3.2 9.7,-4.1 2.5,-0.8 5.4,-2.3 6.5,-3.2 1.1,-1 4.1,-2.6 6.7,-3.5 2.7,-1 4.8,-2.1 4.8,-2.6 0,-0.4 1.5,-1.3 3.2,-2.1 1.8,-0.7 4.8,-2.5 6.6,-4.1 1.8,-1.5 3.6,-2.8 4,-2.8 1.2,0 15.2,-13.9 18.8,-18.6 1.7,-2.2 3.5,-5.2 3.9,-6.5 0.4,-1.3 1.5,-3.3 2.4,-4.4 2.6,-3 4.1,-9.2 5.5,-23 1,-10.1 1,-14 0,-20.7 -2.1,-13.6 -3.3,-19.1 -5,-21.6 -0.8,-1.3 -2.2,-4.1 -2.9,-6.3 -2.1,-5.7 -7.1,-11.4 -13.9,-15.8 -3.4,-2.1 -7.2,-5 -8.5,-6.5 -1.4,-1.4 -3.3,-2.6 -4.3,-2.6 -1.1,0 -2.7,-1.3 -3.6,-3 -0.9,-1.6 -2.1,-3 -2.5,-3 -0.4,0 -1.9,-1.2 -3.3,-2.7 -4.9,-5.3 -16.6,-10.3 -24.2,-10.3 -1.7,0 -4.3,-0.5 -5.8,-1 -4.9,-1.9 -26,-1.4 -36.8,0.9 -5.4,1.2 -10.2,2.1 -10.7,2.1 -2,0 -0.7,-6.7 2.6,-13.6 1.9,-4 3.5,-7.9 3.5,-8.7 0,-0.7 0.9,-2.2 2,-3.2 2.9,-2.7 2.6,-7.3 -0.6,-8.7 -2.3,-1.1 -2.8,-0.9 -4.5,1.2 -1,1.4 -1.9,3.3 -1.9,4.2 0,2.6 -1.6,3 -5.5,1.4 -1.9,-0.8 -4.2,-1.3 -5,-0.9 -2.2,0.8 -4.2,-1.3 -5,-5.3 -1.3,-7.1 -4.5,-16.2 -7.1,-20 -1.5,-2.1 -5,-8.5 -7.9,-14 -4.6,-9 -8.8,-15.9 -10.5,-17.4 -0.3,-0.3 -2.7,-3.9 -5.4,-8 -2.6,-4.1 -7.2,-11.3 -10.2,-16 -3,-4.6 -5.4,-9 -5.4,-9.8 0,-0.7 -0.7,-1.5 -1.5,-1.9 -0.9,-0.3 -2.3,-1.9 -3.1,-3.5 -2.5,-4.8 -10.7,-15.6 -21.3,-27.8 -23,-26.8 -23.5,-27.2 -42.1,-39.8 -1.4,-0.9 -4.4,-3.1 -6.8,-4.9 -2.4,-1.8 -5,-3.3 -5.7,-3.3 -0.8,0 -1.9,-0.9 -2.5,-2 -0.6,-1.1 -1.6,-2 -2.2,-2 -0.7,0 -3.8,-1.8 -6.9,-4 -3.2,-2.2 -6.2,-4 -6.8,-4 -0.6,0 -3.2,-1.4 -5.8,-3 -2.6,-1.7 -5.4,-3 -6.4,-3 -0.9,0 -4.7,-1.1 -8.3,-2.5 -3.7,-1.4 -7.9,-2.5 -9.5,-2.5 -1.5,0 -4.2,-0.5 -6,-1.1 -3.6,-1.3 -4,-3.5 -1.6,-11.2 1.7,-5.7 2.8,-20.6 1.6,-22.1 -0.5,-0.6 -1.1,-3.9 -1.5,-7.4 -0.8,-6.7 -7.7,-26.1 -10.8,-30.1 -1,-1.3 -1.8,-3.2 -1.8,-4.1 0,-1 -0.7,-2.4 -1.6,-3.1 -0.9,-0.7 -3.6,-4.3 -6,-7.9 -6.6296,-9.9408 -2.1823,-4.7714 -11.2,-13.1 -2,-1.9 -3.9,-3.9 -4.1,-4.4 -0.6,-1.4 -10.1,-10.5 -11,-10.5 -0.5,0 -1.6,-0.9 -2.5,-1.9 -1.3,-1.4 -3.8,-2.1 -8.9,-2.6 -4,-0.4 -8.1,-1.2 -9.2,-1.8 -1.1,-0.6 -2.4,-1 -2.8,-0.9 -0.5,0.1 -1.9,-0.6 -3.3,-1.7 -1.4,-1.1 -3.9,-2.3 -5.7,-2.6 -1.8,-0.4 -5,-1.3 -7.2,-2 -13.6,-4.4 -36.5,-1.7 -64.7,7.7 -4.4,1.4 -7,2.8 -7.4,4 -0.3,1 -1.3,1.8 -2.2,1.8 -1.9,0.1 -5.8,2.1 -12.3,6.4 -5.3,3.5 -15.9,13.9 -15.9,15.6 0,0.7 -0.6,1.8 -1.4,2.4 -2.4,1.8 -8.6,14.6 -9.3,19 -0.3,2.3 -1.1,5.2 -1.8,6.6 -2.2,4.5 -3.5,11.7 -4.1,24.4 -0.5,9.6 -0.8881,11.3305 -1.2864,12.3559 -0.5372,1.3832 -0.9795,4.975 -2.8118,2.99 -1.6627,0.086 -3.9204,-1.1968 -6.4204,-2.0968 -9.6,-3.3 -15.4814,-3.7491 -18.1814,-2.7491 -5.2,2 -2.5,7.1 3.8,7.1 1.4,0 3.5,0.5 4.6,1.1 1.9,1 3.2832,2.7459 1.8832,4.3459 -0.9,0.9 -1.3677,2.6118 -2.6186,4.0864 -1.8951,2.205 -7.9646,6.4677 -10.9646,6.4677 -1.3,0 -6.2,2.3 -10.4,5 -0.8,0.5 -5.3,2.8 -9.9,5 -4.7,2.3 -10.1,5.5 -12,7.1 -2,1.6 -3.9,2.9 -4.4,2.9 -0.5,0 -2.3,1.5 -4,3.2 -4.2,4.2 -13.9,12.8 -14.6,12.8 -0.6,0 -26.2,26.3 -32.6,33.5 -2.7,3.1 -6.9,8.2 -9.3,11.3 -2.4,3.1 -6.2,8.1 -8.5,11.1 -2.3,2.9 -4.8,6.3 -5.6,7.5 -6.2,9.1 -10.7,16.7 -15.6,26.1 -3.1,6 -6,11.4 -6.6,11.9 -0.5,0.6 -0.9,1.6 -0.9,2.4 0,0.8 -0.6,2.8 -1.4,4.5 -2.6,5.5 -5.5,15.7 -6.2,21.1 -0.3,2.8 -1.5,8.2 -2.6,12.1 -1.1,3.8 -2.3,11.7 -2.6,17.5 l -0.7,10.5 -4,0.2 c -2.2,0.1 -6.1,-0.3 -8.6,-0.9 -5.9,-1.4 -23.6,1.1 -33.2,4.6 -3.7,1.5 -7.5,2.6 -8.5,2.6 -0.9,0 -2.8,0.7 -4.2,1.5 -1.4,0.7 -4,2.1 -5.9,3 -3.2,1.4 -12.9,7.5 -15.9,10 -4.7,3.7 -22.2,21.4 -22.2,22.3 0,0.6 -0.9,1.9 -2,3 -3.6,3.3 -8.7,14.6 -10.9,23.9 -4,17.3 -5.2,41.5 -2.7,55.3 z m 6.7,-39.5 c 2.1,-13.8 4.3,-22.5 6.4,-25.5 0.5,-0.8 2,-3.6 3.3,-6.1 1.8,-3.6 9.8,-13.4 13.9,-17.1 6.8,-6.1 15.2,-12.4 19.6,-14.9 15.1,-8.3 15.8,-8.6 32.7,-12.9 14,-3.6 23.7,-3.9 33.6,-1 3.8,1.1 9.4,2.7 12.4,3.6 3,0.9 6.6,2.5 7.9,3.5 1.3,1.1 3,1.9 3.7,1.9 0.7,0 3.4,1.8 6,4.1 4,3.5 5.3,4 8,3.6 2.2,-0.4 4.1,0 5.6,1.1 1.3,1 3.5,2.4 5.1,3.1 4.9,2.5 16.1,12.8 20,18.2 7.8,11.1 9.1,13.7 12.7,23.9 6.2,17.7 7.6,25.1 6.2,33.2 -0.7,3.7 -1.2,7.9 -1.2,9.2 0,1.4 -1.3,5.3 -2.9,8.8 -1.6,3.5 -3.4,7.9 -4,9.9 -0.7,2 -2,4.4 -3,5.4 -1.1,0.9 -2.2,2.9 -2.6,4.3 -0.3,1.5 -1.7,3.8 -3.1,5.2 -12.9,13.3 -16.7,17 -17.9,17 -0.4,0 -2.4,1.3 -4.4,2.8 -3.2,2.5 -12.3,7.6 -23.1,12.7 -1.9,0.9 -4.8,2.3 -6.3,3.2 -4,2.1 -16.1,4.3 -29.1,5.3 -8.6,0.7 -12.4,0.6 -17.5,-0.6 -3.6,-0.8 -10.9,-2.1 -16.1,-2.8 -11.9,-1.7 -25.1,-7.2 -35.2,-14.7 -2.8,-2.2 -5.8,-3.9 -6.5,-3.9 -0.7,0 -1.3,-0.4 -1.3,-0.8 0,-0.5 -2.5,-3.5 -5.5,-6.8 -5.8,-6.2 -11.1,-14.5 -13.1,-20.4 -3.3,-10 -4.8,-16.1 -5.4,-21.5 -0.8,-7.4 -0.3,-21.7 1.1,-31 z m 119.5,105.5 c 1.4,-0.6 3.8,-1 5.4,-1 1.6,0 4.9,-0.9 7.2,-1.9 11.3,-5.2 15.6,-7.3 19.3,-9.6 2.2,-1.3 5.8,-3.3 8,-4.3 2.2,-1.1 4.9,-2.9 5.9,-4.1 2.2,-2.5 3.3,-2.6 5.5,-0.7 0.9,0.7 5,2.1 9.1,3.1 4.1,1 8.4,2.6 9.5,3.6 1.1,0.9 3.9,2.3 6.3,3 2.3,0.7 4.7,1.8 5.3,2.6 0.6,0.7 1.8,1.3 2.6,1.3 0.8,0 5.6,2 10.6,4.5 5.1,2.5 9.6,4.5 10.1,4.5 0.4,0 2.7,1.3 5.1,3 2.4,1.6 4.8,3 5.2,3 2.7,0 20.6,15.7 29.3,25.6 3.4,3.9 9,11.9 9,12.8 0,0.3 2,3.6 4.5,7.3 2.5,3.7 5.3,7.9 6.2,9.3 0.9,1.4 2.8,4.3 4.3,6.5 1.5,2.2 3.3,5.8 4,8 0.7,2.2 2.1,5.1 3.1,6.4 1.1,1.3 1.9,2.7 1.9,3.2 0,0.4 1.5,4 3.4,8.1 1.8,4 3.7,8.9 4.1,10.8 0.4,1.9 1.6,5.3 2.6,7.4 2.7,5.6 2.4,7.2 -1.1,8 -2.1,0.4 -3.7,1.7 -5.1,4.1 -1.2,1.9 -2.4,3.5 -2.8,3.5 -0.4,0 -2.7,-1.7 -5,-3.7 -4.5,-3.8 -7.2,-3.8 -7.9,0.1 -0.8,4.1 0.9,6.7 5.6,8.8 2.6,1.1 8,3.6 12,5.6 9.4,4.6 9.5,6.6 0.7,10.1 -3.3,1.3 -7.9,3.6 -10.2,5.2 -2.3,1.6 -4.6,2.9 -5.1,2.9 -0.5,0 -1.7,0.9 -2.7,2 -1,1.1 -2.3,2 -2.9,2 -2.4,0.1 -12.5,13.1 -15.3,19.9 -1.4,3.2 -1.5,3.3 -2.8,1.4 -0.8,-1.1 -2.8,-2.3 -4.6,-2.7 -4,-0.8 -14.8,-5.9 -20.4,-9.7 -2.4,-1.6 -4.7,-2.9 -5.2,-2.9 -0.6,0 -1.8,-0.9 -2.8,-2 -1,-1.1 -2.2,-2 -2.7,-2 -1,0 -6.4,-3.5 -12.3,-7.9 -2.2,-1.7 -6,-4.1 -8.5,-5.5 -2.5,-1.3 -5.4,-3.3 -6.4,-4.5 -1.1,-1.2 -2.5,-2.1 -3.3,-2.1 -0.8,0 -3.6,-2.3 -6.4,-5 -2.7,-2.8 -5.3,-5 -5.6,-5 -0.8,0 -12.5,-10 -13.9,-12 -0.7,-0.8 -5.3,-6.4 -10.3,-12.4 -5,-6 -9.1,-11.5 -9.1,-12.1 0,-0.7 -0.9,-2 -2,-3 -1.1,-1 -2,-2.5 -2,-3.4 0,-1.6 -7.5,-14 -10.2,-17 -0.7,-0.8 -2.2,-3.3 -3.4,-5.5 -4.3,-8.3 -8,-15.2 -9.6,-17.6 -0.9,-1.4 -1.9,-4.1 -2.3,-6 -0.4,-1.9 -1.6,-5 -2.6,-6.9 -1.1,-1.8 -2.2,-5.3 -2.6,-7.7 -0.5,-3.7 -0.3,-4.5 1.3,-5 3.6,-1.1 4.9,-2.1 6.2,-4.7 1.8,-3.8 3.8,-3.4 8.9,1.8 2.4,2.5 4.9,4.5 5.6,4.5 2.2,0 5.7,-3.1 5.7,-5 0,-1.8 -6.1,-6.2 -13.2,-9.5 -1.8,-0.8 -4,-1.8 -4.8,-2.3 -4.1,-2.4 -6.1,-3.2 -7.9,-3.2 -3.7,0 -4.1,-4.7 -0.5,-6 z m 1.3,-211 c 1.1,-5.8 2.5,-13.7 3.1,-17.5 1.7,-10.3 5.7,-21.9 10.8,-31.5 2.5,-4.7 5.8,-11 7.4,-14 3.9,-7.6 6.4,-11.9 8,-13.8 0.8,-0.9 2.6,-3.7 4.1,-6.2 1.4,-2.5 4.6,-6.8 7.1,-9.5 2.5,-2.8 4.6,-5.3 4.6,-5.6 0,-0.3 1.2,-2 2.7,-3.7 1.6,-1.7 4.8,-5.4 7.3,-8.3 12,-14 26.5,-28.8 38.1,-38.7 15.8,-13.5 19.9,-16.6 24.1,-18.2 1.8,-0.7 4.2,-2.1 5.3,-3 1.1,-0.9 4,-2.5 6.5,-3.4 2.5,-1 5.2,-2.3 6,-3 0.8,-0.7 3.1,-1.9 5,-2.6 1.9,-0.7 4.5,-2.2 5.7,-3.3 7.9004,-2.1741 6.0269,-3.1093 11.5,0.2218 3,0.4 3.5,5.9782 1.4,11.1782 -2,4.9 -2,6.4 0,8.3 3.6,3.7 5.8,1 7.4,-9.2 1.4,-8.5 4.5,-17.2 6.2,-17.2 1.2,0 2.5,3.9 4.3,12.1 2.3,11.1 10.2,22.6 20.7,30.1 3.3,2.4 7.3,5.3 8.8,6.5 1.5,1.3 3.3,2.3 3.8,2.3 1.9,0 2.3,3.7 0.9,9.7 -0.8,3.3 -1.9,6.8 -2.4,7.9 -0.6,1 -1.6,4.4 -2.3,7.4 -0.7,3 -2.1,7.3 -3,9.5 -1,2.2 -2.1,5.3 -2.5,7 -1.2,5.6 -10.1,24.9 -16.8,36.6 -4.2,7.4 -14.6,22.9 -16.9,25.2 -1,1 -1.8,2.2 -1.8,2.6 0,0.5 -1.5,2.7 -3.3,4.9 -1.7,2.2 -5.9,7.5 -9.2,11.7 -5.2,6.7 -10.1,12 -18.1,19.5 -1.2,1.1 -2.6,2 -3.2,2 -0.6,0 -3.4,2.2 -6.4,4.8 -2.9,2.6 -8.2,7.1 -11.8,10 -3.6,2.9 -7.7,6.3 -9.1,7.5 -1.5,1.2 -5.3,4.1 -8.6,6.5 -3.3,2.3 -6.8,5.1 -7.8,6.2 -2.8,3.1 -4.6,2.4 -9.5,-3.4 -2.5,-3 -5.5,-5.9 -6.8,-6.5 -2.5,-1.2 -2.6,-1.8 -1.2,-9.1 1.3,-6.9 0.2,-8.5 -4.3,-6.4 l -3.2,1.5 v 11.7 c 0,11.1 -0.2,12.1 -3.2,18.4 -1.8,3.8 -3.5,6.8 -3.9,6.8 -0.3,0 -3.3,-2.3 -6.6,-5.2 -6.9,-6 -8.6,-6.9 -18.7,-10.9 -4,-1.5 -8.1,-3.5 -9.1,-4.4 -1,-0.9 -3.3,-2.4 -5.1,-3.4 -1.9,-1 -4.8,-2.5 -6.4,-3.4 -1.7,-0.9 -4.2,-1.9 -5.7,-2.2 -6.4,-1.3 -7.2,-6.4 -3.9,-24.5 z m 61.5,175.9 c 3,-3.2 6.5,-7.7 7.9,-10.1 3.8,-6.2 10.7,-20.9 10.7,-22.4 0,-0.8 1.4,-5.7 3,-10.9 2.9,-8.9 3,-9.9 2,-15.8 -0.7,-3.4 -1.6,-7.1 -2.1,-8.2 -0.5,-1.1 -1.3,-4.3 -1.9,-7 -2.5,-11.5 -8.8,-25.4 -15,-32.9 -3.8,-4.5 -5.7,-8.3 -4.7,-9.2 0.2,-0.3 3.7,0.2 7.8,1 4,0.9 7.4,1.4 7.6,1.2 0.2,-0.2 5.2,0.9 11.1,2.5 13.1,3.5 15.8,3.6 16.7,0.8 0.4,-1.2 0.1,-3.2 -0.6,-4.5 -1.1,-2.2 -1.9,-2.4 -8.5,-2.4 -6.2,0 -7.5,-0.3 -8.4,-1.9 -2.2,-4.2 -1.2,-6.6 3.7,-9.7 2.7,-1.6 5.5,-3.4 6.4,-3.9 6,-3.7 12.6,-8.4 13.8,-9.8 0.7,-1 1.8,-1.7 2.4,-1.7 0.6,0 2.3,-1.1 3.7,-2.5 4.1,-4.1 8.1,-7.5 8.6,-7.5 1.6,0 24.7,-22 28.9,-27.5 2.7,-3.6 7,-9.2 9.5,-12.3 6.5,-8.2 8.6,-11 12.8,-17.1 3.7,-5.3 4.5,-6.7 11,-17.2 1.8,-3 3.7,-6.1 4.2,-6.9 0.6,-0.8 2.5,-4.9 4.4,-9 1.8,-4.1 4.6,-10.2 6.1,-13.5 2.5,-5.5 6.6,-16.7 10,-27.1 0.7,-2.3 2.1,-5.6 3,-7.3 0.9,-1.7 1.9,-6.1 2.2,-9.7 0.3,-3.5 1,-6.7 1.4,-7 0.8,-0.4 4.4,0.5 24.9,6.2 13.3,3.8 41.1,5 53.9,2.5 8.4,-1.7 10.1,-1.5 10.1,1.2 0,1.3 -0.9,3.2 -2,4.2 -1.1,1 -2,2.4 -2,3.2 0,0.8 -1.8,3.5 -3.9,6.1 -5,5.9 -6.5,9.6 -5,12.3 0.7,1.4 1.9,1.9 3.7,1.7 2.1,-0.2 3,-1.2 4.2,-4.3 2.2,-5.9 2.4,-6.1 7.4,-5.7 4.1,0.4 4.7,0.8 6.5,4.3 1.2,2.2 2.1,4.9 2.1,6.1 0,3 4,15.9 5.6,18.3 0.8,1.1 1.4,2.6 1.4,3.5 0,0.9 0.9,3.4 2.1,5.5 1.1,2.2 2.9,6.2 4,9 1.2,2.7 2.6,5.7 3.3,6.5 0.7,0.8 1.9,3.1 2.6,5 2.7,7 12.6,20.7 21.7,30 5.1,5.2 11,11.2 13.1,13.4 9.1,9.4 21.2,19 34.1,27.3 3.6,2.3 7.7,5.2 8.9,6.3 1.3,1.1 2.9,2 3.6,2 0.7,0 3,1.3 5.3,3 2.2,1.6 7.8,4.9 12.4,7.1 4.6,2.3 9.1,4.7 9.9,5.4 0.8,0.7 3,1.7 4.8,2.3 1.8,0.6 4.6,2 6.1,3.2 1.6,1.1 3.4,2 4.1,2 0.6,0 5,1.9 9.8,4.1 16.3,7.8 18.7,8.7 25,9.8 3.5,0.5 7.8,1.8 9.5,2.7 8,4 11.7,3.7 11.7,-1.2 0,-3.1 -5.4,-5.9 -15.2,-7.9 -9.4,-2 -17.8,-4.5 -20.3,-6.2 -1.1,-0.7 -2.6,-1.3 -3.4,-1.3 -0.8,0 -10.9,-4.8 -22.5,-10.6 -20.8,-10.5 -24.4,-12.4 -32.2,-17.4 -2.2,-1.4 -4.7,-3 -5.6,-3.5 -2.5,-1.6 -16.1,-10.6 -18.3,-12.1 -1.1,-0.8 -3.8,-2.6 -6,-4.1 -4.3,-2.8 -32.7,-31.1 -39,-38.7 -3.8,-4.7 -5,-6.6 -10.2,-16.6 -1.6,-3 -3.4,-6.4 -4.1,-7.5 -2.4,-4.2 -8.1,-17.1 -8.8,-20 -0.3,-1.7 -1.4,-4.4 -2.4,-6 -1,-1.7 -2.5,-6.2 -3.5,-10 -0.9,-3.9 -1.9,-8 -2.2,-9.2 -0.4,-1.6 0.2,-2.6 2.4,-3.9 1.5,-1 4.3,-3.1 6.2,-4.7 l 3.5,-3 2.1,2.6 c 3.8,4.8 11.5,4.5 11.5,-0.4 0,-2.3 -2.9,-4.3 -9.5,-6.4 -2.8,-0.9 -6,-2.7 -7.2,-4 -1.3,-1.4 -3.9,-2.5 -7,-3 -2.6,-0.4 -5.4,-1.2 -6.1,-1.7 -1.8,-1.5 -1.5,-4.8 0.5,-5.5 5.6,-1.9 16.1,-7.3 17.7,-9.2 1.1,-1.1 2.3,-2.1 2.9,-2.1 1.2,0 9,-6.9 9.7,-8.6 0.3,-0.7 1.5,-2.3 2.8,-3.6 4.6,-4.7 8.8,-9.6 11.5,-13.7 2.7,-3.8 3.1,-4.1 7.5,-4 6.8,0 12.7,1.3 20.7,4.3 3.8,1.4 7.7,2.6 8.6,2.6 0.9,0 2.4,0.9 3.4,2 1,1.1 2.2,2 2.7,2 0.5,0 3.3,1.5 6.1,3.3 2.9,1.8 6.1,3.8 7.2,4.4 8.7,5.2 11.7,7.2 17,11.3 3.3,2.5 9.1,6.7 13,9.3 3.8,2.6 8.3,6.3 10,8.3 1.6,2 5.6,6.2 8.7,9.4 3.2,3.2 5.8,6.2 5.8,6.7 0,0.4 2.7,3.6 6,7.1 3.3,3.5 6,6.7 6,7.2 0,0.7 2.7,4.4 8.9,12 3.9,4.8 8.4,11.4 15.2,22.5 3.7,6.2 8.3,13.4 10.1,16.2 1.8,2.7 4.4,6.9 5.8,9.2 1.4,2.3 3.5,5.5 4.8,7.1 1.2,1.6 2.8,4.3 3.4,6.2 0.6,1.8 2.2,4.6 3.5,6.1 1.2,1.6 2.6,4.1 3,5.5 0.3,1.5 1.4,3.8 2.4,5.2 1,1.4 3,5.9 4.5,10 1.4,4.1 3,7.9 3.5,8.4 1.2,1.3 1.2,6.6 -0.1,6.6 -2.2,0 -5,4.5 -5,8.2 0,4.6 -1.2,4.8 -9.6,1.7 -6.4,-2.4 -7.3,-2 -7.7,3.6 l -0.2,4 8.5,0.2 c 13.3,0.5 23,4.4 21.4,8.8 -0.3,0.7 -2.6,1.8 -5.2,2.5 -8,2 -18.5,7.7 -25,13.6 -3.4,3 -6.2,6.1 -6.2,6.8 0,0.7 -0.9,2.1 -2.1,3.2 -1.1,1 -2.7,3.4 -3.5,5.4 -0.8,1.9 -2.3,4.4 -3.4,5.5 -1.9,2.1 -4.1,9.1 -6.7,21 -1.1,5.4 -1.3,10.6 -0.8,23 0.4,8.8 1.1,17.8 1.5,20 1.7,7.9 5.3,18.9 6.9,21.4 1,1.4 3.2,4.8 4.9,7.4 1.8,2.6 3.2,5.4 3.2,6.2 0,1.9 -3.4,1.9 -5.4,0 -0.8,-0.9 -3.3,-1.5 -5.9,-1.5 -2.8,0 -5.3,-0.7 -6.8,-1.8 -1.3,-1 -4.5,-2.9 -7.2,-4.1 -4.5,-2.2 -4.9,-2.2 -7.3,-0.6 -3.6,2.4 -2.9,5.7 1.6,7 7,2 7.4,3.1 2.9,7.3 -2.3,2.1 -4.6,3.2 -8.2,3.6 -5.4,0.8 -8,1.8 -17.2,7 -3.3,1.9 -8.3,4.6 -11.1,6.1 -2.8,1.5 -7.4,4.4 -10.3,6.6 -2.8,2.1 -5.5,3.9 -5.9,3.9 -0.5,0 -1.9,1.2 -3.3,2.6 -1.3,1.4 -4.1,3.5 -6.2,4.5 -2.1,1.1 -4,2.6 -4.3,3.4 -0.3,0.8 -2,2.3 -3.7,3.4 -1.8,1.1 -5.7,3.8 -8.7,6 -3,2.2 -6.9,4.8 -8.5,5.7 -1.7,0.9 -3.4,2.3 -3.8,3 -0.4,0.8 -2.2,2 -4,2.8 -3.4,1.4 -23.7,19.1 -23.7,20.6 0,0.5 -1.5,1.7 -3.3,2.9 -3.6,2.2 -8.4,7 -15.2,15.1 -2.6,3 -7.9,9.1 -12,13.5 -10.7,11.7 -12.6,14.1 -19,23.5 -8.3,12.2 -18,33.2 -20,43.2 -0.6,3.3 -1.9,3.5 -4.3,0.7 -5.2,-6.4 -13.7,-12.9 -16.9,-12.9 -0.9,0 -2.4,-0.7 -3.4,-1.5 -2.4,-2.3 -16.4,-5.7 -23.4,-5.8 -8.2,-0.2 -32.5,1.2 -33.6,1.9 -0.5,0.3 -3.2,0.7 -6.1,0.9 -7.7,0.6 -12.7,1.6 -13.4,2.6 -0.3,0.5 -1.4,0.9 -2.5,0.9 -2.3,0 -2.6,-3.5 -0.6,-6.5 2.3,-3.5 6.8,-17.5 6.2,-19.4 -0.6,-2 -3.8,-3.3 -6.1,-2.4 -0.8,0.3 -1.4,1.8 -1.4,3.3 0,3.7 -1.4,4.5 -5.1,3 -1.9,-0.8 -2.9,-2 -2.9,-3.4 0,-1.1 -1.2,-6.2 -2.6,-11.1 -1.4,-5 -2.8,-9.9 -3.1,-11 -0.3,-1.1 -1.4,-3.1 -2.3,-4.5 -1,-1.4 -2.3,-4.3 -3,-6.5 -0.7,-2.2 -2.1,-5.1 -3.1,-6.4 -1.1,-1.3 -1.9,-3 -1.9,-3.8 0,-2.2 -2.6,-6.6 -8.1,-13.9 -2.8,-3.7 -5.4,-7.7 -5.9,-8.8 -2.4,-6.4 -14.2,-21.9 -24.3,-32 -12.2,-12.1 -16.9,-15.9 -23.7,-19.4 -2.5,-1.3 -5.2,-2.7 -6,-3.2 -0.8,-0.6 -3.5,-1.9 -6,-3 -2.5,-1.1 -5.2,-2.4 -6,-3 -0.8,-0.5 -5.6,-2.8 -10.5,-5 -5,-2.2 -10.8,-4.9 -13,-6 -2.2,-1.1 -6.7,-2.7 -10,-3.6 -5.5,-1.5 -8.5,-2.9 -8.5,-4.1 0,-0.3 2.4,-3.2 5.4,-6.4 z m 77.8,243.7 c 1.7,-5 3.7,-9.8 4.5,-10.7 0.7,-0.8 1.3,-2 1.3,-2.5 0,-1 7.4,-12.9 11.9,-19.1 3.2,-4.3 12.2,-11.8 17.8,-14.6 1.7,-0.9 3.3,-2 3.5,-2.5 0.6,-1.6 17.4,-9.2 22.3,-10.1 2.7,-0.5 8.6,-1.6 13,-2.4 13.2,-2.5 31.6,-4 41.1,-3.3 14.4,1 22.4,2.3 24.3,4 1,0.9 2.4,1.6 3.3,1.6 2.1,0 7.8,3 7.8,4 0,0.5 1.3,1.6 3,2.5 1.8,0.9 3.2,2.7 3.6,4.3 1.2,4.5 7.6,16 12.2,21.5 2.4,2.9 5,6.5 5.8,8 0.9,1.6 3,4.7 4.7,7.1 1.8,2.3 4.2,6.4 5.3,9.1 1.2,2.8 2.8,6.3 3.5,8 3.5,8.3 3.9,10.1 3.3,16.5 -0.8,8.6 -5.5,22.8 -9.5,29 -1.8,2.8 -3.6,5 -4,5 -0.5,0 -1.5,1.3 -2.3,2.8 -2.6,5.1 -28.8,31.6 -32.4,32.9 -1.9,0.6 -4.4,2 -5.5,3.1 -3.4,2.9 -11.8,7.8 -16.2,9.2 -2.2,0.7 -5.9,2.2 -8.3,3.3 -3.8,1.7 -6.6,1.9 -22,2 h -17.7 l -10.9,-3.7 c -13.3,-4.6 -24.6,-9.7 -26.5,-11.9 -0.7,-1 -1.9,-1.7 -2.7,-1.7 -0.7,0 -5.2,-3.1 -10,-7 -9,-7.2 -13.6,-13.4 -16.4,-21.9 -0.8,-2.4 -2.1,-5.3 -3,-6.5 -0.9,-1.1 -2,-3.5 -2.3,-5.1 -1.2,-5.4 -4.7,-17.8 -5.2,-18.3 -0.3,-0.3 -0.5,-5.7 -0.5,-12 0,-10.3 0.3,-12.5 3.2,-20.6 z m 37.9,-644.1 c 0.7,-6 2,-13.5 3,-16.6 1.1,-3 1.9,-6.3 1.9,-7.1 0,-0.9 1.9,-5.2 4.1,-9.5 6.2,-11.6 11.9,-18.1 20.5,-23.3 2.2,-1.3 4.1,-2.7 4.4,-3.1 2.1,-2.9 24.2,-12.2 32.8,-13.9 3,-0.5 5.7,-1.2 6.1,-1.4 1.5,-1 19.7,-3 25.3,-2.8 3.2,0.1 9.9,1.1 15,2.2 8,1.8 9.7,2.6 12.4,5.5 2.9,3.2 3.3,3.4 9,3.1 3.2,-0.2 6.9,0.1 8.2,0.5 2.3,0.9 13.8,11.3 24,21.9 5.1,5.2 6.5,7.3 11.9,17.1 1.2,2.2 2.9,5.2 3.9,6.7 2.1,3.2 6,13.5 8,21.2 1.5,5.7 2,24.2 0.8,30.8 -0.7,3.8 -7.1,17.7 -9.5,20.7 -8.3,10.1 -22.1,24.5 -23.5,24.5 -0.6,0 -1.7,0.6 -2.3,1.4 -2,2.3 -13.1,8.6 -20.1,11.3 -15.1,5.8 -46.3,6 -69.2,0.3 -6.8,-1.6 -13.4,-3 -14.7,-3 -1.4,0 -3.2,-0.6 -4,-1.3 -0.9,-0.7 -3.6,-2 -6.1,-2.8 -4.9,-1.5 -12.9,-6.6 -17.4,-11 -1.5,-1.6 -3.5,-2.9 -4.2,-2.9 -0.8,0 -1.4,-0.4 -1.4,-0.9 0,-0.5 -1.2,-2.2 -2.8,-3.8 -4.9,-5.1 -10.1,-13.7 -11.2,-18.8 -0.6,-2.7 -1.4,-5.4 -1.9,-6 -0.7,-1 -2.7,-7.1 -3.5,-11 -0.8,-4.1 -0.6,-17.2 0.5,-28 z m 135.3,596.2 c 6.4,-19 16.3,-39.4 23.6,-48.3 1.4,-1.7 4.1,-5.1 6,-7.5 1.9,-2.4 4.8,-5.8 6.5,-7.6 1.6,-1.7 5.2,-5.7 8,-8.9 11.3,-13 26,-28.4 27.1,-28.4 0.3,0 1.8,-1.2 3.3,-2.6 7,-6.9 13.1,-11.9 17.8,-14.6 2.9,-1.6 5.3,-3.3 5.3,-3.7 0,-0.4 1.8,-1.7 4,-3 2.2,-1.2 4,-2.5 4,-2.9 0,-0.4 1.7,-1.6 3.7,-2.7 3.6,-2 8.3,-5.3 13.3,-9.5 2.7,-2.3 10.4,-7.9 12.9,-9.5 0.9,-0.6 2.9,-2 4.4,-3.3 1.6,-1.2 3.5,-2.2 4.2,-2.2 0.8,0 2,-0.8 2.7,-1.8 0.7,-0.9 3.5,-2.8 6.1,-4.2 13.4,-6.9 16.5,-8.6 17.8,-9.6 0.8,-0.6 3.4,-1.6 5.9,-2.3 2.5,-0.7 5.2,-1.7 6,-2.1 1.1,-0.6 2.7,0.5 5.7,3.8 2.4,2.5 4.3,4.9 4.3,5.4 0,0.4 -2,2.9 -4.5,5.6 -4.7,4.9 -5.2,6.1 -3.5,9.3 2.2,3.9 10,0.8 10,-4 0,-1.1 1,-3.2 2.3,-4.8 1.2,-1.5 3.8,-5.1 5.7,-7.8 1.9,-2.8 5.2,-6.7 7.4,-8.9 3.7,-3.6 4.3,-3.8 8.4,-3.2 3.2,0.4 5.7,1.8 9.6,5.1 6.7,5.7 19.1,11.8 28.6,14 4.1,1 8,2.2 8.6,2.7 0.7,0.5 4.3,1.1 8,1.4 3.8,0.3 7.3,0.9 7.7,1.3 1.8,1.7 1,22.4 -1.2,31.2 -1.1,4.8 -2.1,9.2 -2.1,9.8 0,0.6 -1.1,3.4 -2.4,6.2 -1.4,2.8 -3,7.6 -3.7,10.7 -0.7,3.1 -1.8,6.4 -2.4,7.2 -0.7,0.8 -3.1,6 -5.5,11.5 -2.3,5.5 -5.5,12.8 -7.1,16.1 -1.6,3.4 -2.9,6.7 -2.9,7.2 0,0.6 -0.8,1.7 -1.8,2.4 -1.9,1.4 -5.9,7.7 -9.1,14.5 -1.1,2.2 -2.5,4.5 -3.3,5 -0.7,0.4 -3.4,3.5 -6,6.8 -7.9,10.1 -14.1,16.8 -22.5,24.5 -4.4,4.1 -12.7,10 -14.1,10 -0.5,0 -1.7,0.9 -2.7,2 -1,1.1 -2.3,2 -3,2 -0.6,0 -3.4,1.6 -6.1,3.5 -2.7,1.9 -5.4,3.5 -6.1,3.5 -0.7,0 -2,1.1 -2.9,2.5 -0.9,1.4 -2.2,2.5 -3,2.5 -1.7,0 -8.7,4.1 -9.7,5.7 -0.4,0.7 -1.4,1.3 -2.2,1.3 -0.7,0 -3.5,1 -6.2,2.1 -2.6,1.2 -7.5,3.2 -10.8,4.4 -3.3,1.3 -8,3 -10.5,4 -2.5,0.9 -8.3,2.1 -13,2.6 -4.7,0.4 -10.5,1.5 -12.9,2.4 -2.5,0.9 -10.4,2 -17.8,2.5 -20,1.4 -25.4,2 -29.7,3.6 -3.9,1.5 -4,1.5 -6.3,-1.3 -1.3,-1.5 -2.8,-3.8 -3.3,-5 -0.5,-1.2 -2.1,-2.5 -3.5,-2.9 -3.2,-0.8 -3.2,-3.4 -0.1,-6.3 5.1,-4.8 4,-8.5 -2.3,-7.5 -3.8,0.6 -4.5,1.2 -5.8,4.3 -2.1,5.1 -9.4,14.7 -12,16 -3.5,1.6 -5.1,0.4 -6.8,-5.5 -1.8,-6.1 -11.6,-21.1 -18.8,-28.6 -2.6,-2.8 -4.7,-5.2 -4.7,-5.5 0,-0.2 1.5,-5 3.4,-10.6 z m 202.5,-266.3 c 0.5,-1.6 1.4,-5.4 2.1,-8.4 3.4,-15.4 16.5,-30.6 33.7,-39.4 15.5,-7.9 18,-8.7 29.2,-9.4 20,-1.3 40.9,-0.8 49.1,1.3 10.7,2.7 18.3,7.9 23.2,15.8 2.7,4.3 3.3,4.7 6.5,4.5 2.4,-0.1 3.8,0.3 4.4,1.5 0.6,0.9 1.6,1.7 2.4,1.7 5.7,0 17.9,19.5 20.4,32.7 2.9,14.8 3.2,17.5 2.2,20.6 -0.6,1.8 -1.5,7.6 -2.1,12.9 -0.8,8.1 -1.6,10.8 -4.5,16.2 -2,3.5 -4.2,7 -5,7.6 -0.8,0.7 -1.5,1.7 -1.5,2.2 0,1 -6.4,7.3 -13.7,13.6 -1.8,1.5 -4.3,3.6 -5.5,4.8 -1.3,1.1 -3.9,2.7 -5.8,3.4 -1.9,0.7 -4.2,1.9 -5,2.6 -2.5,2.1 -19.1,10.4 -20.7,10.4 -0.8,0 -2.7,0.9 -4.2,1.9 -4,2.9 -20.1,7.1 -26.8,7.1 -3.2,0 -7.6,-0.5 -9.8,-1.1 -2.2,-0.6 -6.1,-1.4 -8.6,-1.9 -5.3,-1 -22,-8.7 -28.2,-13.1 -2.3,-1.6 -5.3,-3.7 -6.7,-4.7 -9.3,-6.3 -19.3,-21.9 -20.7,-31.9 -0.3,-2.7 -1.2,-6 -1.9,-7.5 -0.8,-1.5 -1.4,-5.5 -1.5,-9 -0.1,-3.5 -0.5,-7.4 -0.9,-8.8 -1.1,-3.4 -1.2,-22.1 -0.1,-25.6 z"
     sodipodi:nodetypes="ccccccsccccscsccccccccscccccccsccccccsscccccscccccscccccscscssccccsscccccccccccscccscccssssccccccccccsccscscccccccscscsccscscccsccccccccsccccsssscscscscccccsscccsccscsccccccsscccscccscccscccssscsccccsccccccccscccsccccccccccscscccccccssccccscccccccsscccccscccccscccscscscssssscscscccscccccssscccccssscccscscsssscccscccccssccsccccccccsccccscsscccccscccsccscccsscccscsccccccccscsccsccccscsccsccccscccsccccsssccccccscsccccsssccccccscsccscccccsccsscscccsccscccccccccccsccccsccccccscccccsssccccccssscccsccccsccsscccccccsccccccccscsccsccccscsccscscccsccccccscccccscccscscscscscccccsccssssccscccccccsscccccccccscccscccccsccccsscccsccccccccccccccccscccscccsscccccccsccsccscsccccscccsccsccsccccccccccscscccscccccssssssscsccccccccscccccccscccccccccscccccsccscscsscccccscc" />
  <path
     style="fill:#000000;stroke:none;stroke-width:0.1"
     inkscape:connector-curvature="0"
     id="path10"
     d="m 1154.3711,1518.9171 c 0.2,1.9 1.4,5.7 2.7,8.5 1.3,2.7 2.9,8.2 3.5,12.1 1.1,6.1 1.6,7.3 3.4,7.6 3.8,0.7 17.5,-1.7 19.4,-3.3 1,-0.9 2.3,-1.8 2.9,-2 4.9,-1.7 15.4,-16 15.4,-21.1 0,-3.6 -6.3,-10.3 -12.3,-13.2 -2.8,-1.4 -8.4,-2.9 -12.2,-3.4 -7,-0.9 -20.2,0 -21.6,1.5 -0.9,1.1 -1.7,9.1 -1.2,13.3 z m 7.8,-6.8 c 0.4,-0.4 4.8,-0.7 9.9,-0.6 8.2,0.1 9.9,0.4 14.6,3 6.3,3.4 7.5,5.1 6.6,8.8 -0.9,3.7 -7.7,10.9 -13.3,14.2 -3.9,2.3 -5.2,2.5 -8.2,1.8 -3.4,-0.8 -3.7,-1.4 -5.7,-7.6 -1.2,-3.7 -2.9,-7.7 -3.9,-9 -1.6,-2.2 -1.6,-9 0,-10.6 z" />
  <path
     style="fill:#000000;stroke:none;stroke-width:0.1"
     inkscape:connector-curvature="0"
     id="path12"
     d="m 1344.0711,1602.2171 c 0.7,0.9 1.7,5.4 2,10 0.9,10.3 1.3,11.7 3.5,11.7 3.7,0 4.4,-2.4 3.2,-10.5 -0.6,-4.2 -1.1,-10.2 -1.1,-13.5 0,-8.3 -3.9,-11.8 -7.4,-6.8 -1.9,2.7 -2,6.7 -0.2,9.1 z" />
  <path
     style="fill:#000000;stroke:none;stroke-width:0.1"
     inkscape:connector-curvature="0"
     id="path14"
     d="m 1354.3711,1416.3171 c 0.4,0.4 1,5.7 1.3,11.9 l 0.5,11.2 2.7,0.3 c 4.2,0.5 5.3,-2.6 3.8,-10.9 -0.8,-3.9 -1,-9.1 -0.6,-12.3 0.6,-5.3 0.5,-5.6 -1.8,-6.2 -4.4,-1.1 -8.6,3.2 -5.9,6 z" />
  <path
     style="fill:#000000;stroke:none;stroke-width:0.1"
     inkscape:connector-curvature="0"
     id="path16"
     d="m 1358.8711,1612.4171 c 2.9,12.4 3.2,13 6.3,13 3,0 5.9,-3.6 10.5,-13.1 1.1,-2.3 2.6,-4.7 3.5,-5.4 1.2,-1 1.6,-0.8 2.5,1.5 0.5,1.4 1,5.5 1,9 0,4.4 0.5,6.8 1.6,7.9 2.3,2.4 4.3,1.9 5,-1.1 0.7,-2.8 -2.1,-21.2 -3.9,-25 -1.7,-3.8 -8.7,-4.4 -8.7,-0.8 0,2.4 -9,15.7 -10.3,15.2 -0.7,-0.2 -1.4,-2.7 -1.7,-5.7 -0.5,-5.6 -2.4,-7.8 -5.4,-6.7 -1.8,0.7 -2,4.7 -0.4,11.2 z" />
  <path
     style="fill:#000000;stroke:none;stroke-width:0.1"
     inkscape:connector-curvature="0"
     id="path18"
     d="m 1370.1711,1424.6171 c 1.1,6.6 2.7,12.8 3.5,13.8 2.3,2.7 5.3,1.4 6.8,-3 0.8,-2.2 2,-5.8 2.8,-8 0.8,-2.2 2.6,-5.3 4,-6.8 2.4,-2.6 2.8,-2.7 4.2,-1.3 1.1,1.1 1.7,3.9 2,8.9 0.4,9.8 0.9,11.7 3,11.7 3,0 4.2,-2.2 4.2,-7.5 -0.1,-10.1 -4.4,-21.8 -8.5,-22.9 -2.8,-0.8 -6.6,2.2 -9.2,7.3 -2.3,4.5 -5.1,8.1 -6.3,8.1 -0.7,0 -2,-3.8 -3.7,-11 -0.9,-3.5 -3.7,-5.2 -4.5,-2.8 -0.2,0.7 0.5,6.8 1.7,13.5 z" />
  <path
     style="fill:#000000;stroke:none;stroke-width:0.1"
     inkscape:connector-curvature="0"
     id="path20"
     d="m 1393.3711,1607.2171 c 1.5,1.6 5.3,0.6 6.9,-1.8 3,-4.6 5.4,-2.7 5.4,4.3 0,4.6 -0.6,5.5 -4.8,7.2 -4.3,1.7 -6.2,3.6 -6.2,6.1 0,3.6 2.9,3.4 17.2,-1 1.5,-0.5 4.7,-0.5 7.4,0.1 6.2,1.3 9.4,0 9.4,-4.1 0,-4.4 -2.1,-5.5 -9.5,-4.8 -5.5,0.5 -6.6,0.4 -7.4,-1.1 -1.2,-2.5 -2,-18.9 -1.1,-22.4 1.6,-5.3 -0.7,-7.5 -5.8,-5.6 -2.4,1 -3,1.9 -4,6.8 -0.9,4.2 -2.1,6.4 -4.7,9 -3.3,3.2 -4.3,5.8 -2.8,7.3 z" />
  <path
     style="fill:#000000;stroke:none;stroke-width:0.1"
     inkscape:connector-curvature="0"
     id="path22"
     d="m 1411.6711,1422.4171 c 1.9,1.1 5,-0.6 6.6,-3.6 0.9,-1.9 2.1,-2.9 3.2,-2.7 1.3,0.3 1.9,2 2.5,8.1 0.5,4.3 0.6,8.5 0.3,9.3 -0.4,0.9 -2.1,1.4 -5.6,1.4 -4.8,0 -5,0.1 -5,2.8 0,4 5,5.5 12.9,4 3.1,-0.6 9.3,-0.7 14,-0.4 9.4,0.7 11.1,0 11.1,-4.5 0,-3.4 -1.1,-3.8 -11.8,-4.1 l -7.4,-0.3 -1.5,-4 c -1,-2.7 -1.6,-8.2 -1.7,-17.5 l -0.1,-13.5 -3.3,-0.3 c -3.1,-0.3 -3.4,0 -5.6,5 -1.3,2.9 -4,7.3 -6,9.7 -3.6,4.2 -4.8,9.2 -2.6,10.6 z" />
  <path
     style="fill:#000000;stroke:none;stroke-width:0.1"
     inkscape:connector-curvature="0"
     id="path24"
     d="m 1503.6711,1442.9171 c 1.6,4.7 2.9,9.7 2.9,11.2 0.1,3.5 3.1,5.3 5.7,3.4 2.3,-1.7 2.1,-7.1 -0.5,-14.1 -1,-2.8 -2.3,-7.3 -2.7,-10 -0.9,-4.9 -1,-5 -4.4,-5 -3.2,0 -3.5,0.3 -3.7,3 -0.1,1.6 1.1,6.8 2.7,11.5 z" />
  <path
     style="fill:#000000;stroke:none;stroke-width:0.1"
     inkscape:connector-curvature="0"
     id="path26"
     d="m 1517.9711,1439.6171 c 1.8,2.1 4.1,5.6 5.1,7.8 2.8,6.5 3.2,7 5.7,7 1.9,0 2.7,-1 4.2,-5 3.9,-10.2 4.6,-11.5 6.6,-11.5 2.9,0 3.9,1.9 4.7,8.8 0.5,5.1 1.1,6.6 3.1,7.9 2.1,1.4 2.5,1.4 4.3,-0.2 1.7,-1.5 1.7,-2.1 0.6,-5.3 -0.7,-2.1 -1.6,-5.9 -2,-8.6 -1,-6.2 -5,-11.6 -8.8,-11.6 -6,0 -8.9,2.8 -10,9.5 -0.6,3.6 -3.5,2.9 -5.7,-1.2 -1,-2.1 -3.1,-4.5 -4.5,-5.2 -2.3,-1.3 -2.8,-1.2 -4.6,0.4 -2.6,2.4 -2.6,2.9 1.3,7.2 z" />
  <path
     style="fill:#000000;stroke:none;stroke-width:0.1"
     inkscape:connector-curvature="0"
     id="path28"
     d="m 1530.6711,1633.4171 c 1.1,1.6 2,4.3 2,6 0,3.5 2.2,10.1 3.8,11.7 0.6,0.6 2.2,0.8 3.6,0.4 3.2,-0.8 3.4,-4.2 0.6,-10.5 -1.1,-2.4 -2,-5.8 -2,-7.6 0,-1.9 -0.4,-4.6 -1,-6 -0.9,-2.3 -1.5,-2.6 -4.7,-2.3 -3.2,0.3 -3.8,0.7 -4,2.8 -0.1,1.4 0.7,3.8 1.7,5.5 z" />
  <path
     style="fill:#000000;stroke:none;stroke-width:0.1"
     inkscape:connector-curvature="0"
     id="path30"
     d="m 1546.4711,1628.4171 c 1,1.6 2.2,5 2.6,7.5 1.4,9 2.6,12 4.7,12 1.5,0 2.8,-1.9 5.5,-7.8 4.6,-10.1 4.9,-10.5 6,-10.9 1.7,-0.6 3.4,4.4 3.4,9.5 0,4.9 2.1,9.2 4.4,9.2 0.8,0 2.1,-1.1 3,-2.5 1.5,-2.3 1.5,-3 0.3,-6.8 -0.8,-2.3 -1.8,-5.8 -2.2,-7.7 -0.4,-1.9 -1.8,-5.4 -3.1,-7.8 -2,-3.4 -3,-4.2 -5.3,-4.2 -2.6,0 -3.2,0.8 -6.2,7 -4.6,9.4 -6.3,9.1 -7.1,-0.9 -0.4,-4.5 -3,-6.2 -5.7,-3.7 -2.6,2.3 -2.6,3.3 -0.3,7.1 z" />
  <path
     style="fill:#000000;stroke:none;stroke-width:0.1"
     inkscape:connector-curvature="0"
     id="path32"
     d="m 1558.3711,1438.2171 c 1.3,1.4 4.3,0.6 5.3,-1.3 2.4,-4.6 5,-1.4 5,6.2 0,3.4 -0.4,4 -3.7,5.5 -4.2,2.1 -5.9,4.3 -4.9,6.8 0.5,1.4 1.3,1.6 4.4,1.1 2,-0.4 5.2,-0.7 7.1,-0.6 1.8,0 4,-0.5 4.7,-1.1 1,-0.8 3.5,-0.9 7.5,-0.5 6.9,0.8 8.9,-0.2 8.9,-4.3 0,-4.3 -1.5,-5 -8.9,-4.4 -5.3,0.4 -6.9,0.2 -8,-1 -0.8,-1.1 -1.5,-5.9 -1.8,-13.9 -0.3,-6.8 -1,-12.9 -1.6,-13.6 -2.5,-3.1 -7,-0.2 -8.2,5.5 -0.3,1.8 -2,4.9 -3.6,6.9 -2.7,3.5 -3.7,7.3 -2.2,8.7 z" />
  <path
     style="fill:#000000;stroke:none;stroke-width:0.1"
     inkscape:connector-curvature="0"
     id="path34"
     d="m 1580.8711,1624.7171 c 1.9,1.9 3.2,1.4 6.2,-1.9 1.6,-1.7 3.1,-2.7 3.6,-2.3 0.4,0.5 1,3.9 1.4,7.7 0.6,5.9 0.4,6.8 -1.1,7.3 -4.3,1.2 -8.8,4 -9.1,5.6 -0.6,3.2 3.3,4.1 10.6,2.3 3.7,-0.9 8,-2.3 9.7,-3 1.6,-0.7 4.8,-1.6 7,-2.1 3.3,-0.7 4.1,-1.4 4.3,-3.5 0.5,-4.2 -2,-5.5 -7.9,-4 -3.9,1 -5.4,1 -6.2,0.2 -0.8,-0.8 -1.3,-6.1 -1.5,-14.1 -0.4,-14.2 -1,-15.8 -5.6,-14 -1.9,0.7 -3.4,2.6 -5.1,6.4 -1.3,3 -3,5.8 -3.8,6.3 -1.7,0.9 -3.7,4.6 -3.7,6.5 0,0.8 0.5,1.9 1.2,2.6 z" />
  <path
     style="fill:#000000;stroke:none;stroke-width:0.1"
     inkscape:connector-curvature="0"
     id="path36"
     d="m 1419.2711,1863.4171 c 0.7,3 5.5,9.5 8.7,11.9 2.2,1.7 4.7,2.2 11.3,2.5 9.4,0.3 15.7,-1.2 22.6,-5.5 3.4,-2.2 3.9,-2.9 3.6,-5.7 -0.2,-2.5 -0.8,-3.3 -2.6,-3.5 -2.2,-0.3 -9.3,3.6 -11.7,6.5 -1.2,1.4 -10.6,2 -15.5,0.9 -4.6,-1.1 -8.8,-5.1 -10,-9.7 -3.1,-11.4 8.1,-28.8 17.7,-27.7 2.2,0.2 3,1 3.8,4.2 0.7,2.2 1.7,4.2 2.4,4.4 2.2,0.7 5.1,-2.9 5.1,-6.4 0,-7.8 -5.8,-12.5 -12.8,-10.4 -10.8,3.3 -15.3,6.7 -19.3,14.7 -2.8,5.7 -3.4,8 -3.5,14.3 -0.1,4.1 0,8.4 0.2,9.5 z" />
  <path
     style="fill:#000000;stroke:none;stroke-width:0.1"
     inkscape:connector-curvature="0"
     id="path38"
     d="m 1450.8711,1216.7171 c 4.1,4.1 8.8,-1.8 8.8,-10.8 v -6.3 l 4.7,0.6 c 2.7,0.3 8.1,0.2 12.2,-0.2 6.7,-0.6 7.4,-0.5 8.6,1.4 0.7,1.1 1.5,3.7 1.8,5.8 0.3,2 1.1,4.4 1.8,5.3 1.9,2.3 6.2,1.4 7.2,-1.6 0.9,-2.5 -1.6,-9.2 -8.2,-22 -1,-1.9 -2.8,-6.7 -4,-10.5 -1.3,-3.9 -3.4,-9.1 -4.8,-11.8 -2.7,-4.9 -3.8,-5.4 -10.2,-4.1 -3.7,0.8 -7.3,6.4 -9.5,14.7 -0.8,3.1 -2,6.5 -2.6,7.7 -0.7,1.2 -1.6,5.2 -2.1,8.9 -0.5,3.6 -1.8,9.2 -2.9,12.4 -2.3,6.6 -2.5,8.8 -0.8,10.5 z m 13.3,-30.4 c 0.8,-1.6 1.5,-3.8 1.5,-4.9 0,-2.3 3.7,-9.6 5.3,-10.7 1.5,-0.9 6.3,7 7.7,12.8 2.2,9.2 2.4,8.9 -5.8,9.2 -6.9,0.3 -10.2,-0.6 -10.2,-2.8 0,-0.4 0.7,-2.1 1.5,-3.6 z" />
  <path
     style="fill:#000000;stroke:none;stroke-width:0.1"
     inkscape:connector-curvature="0"
     id="path42"
     d="m 1780.6711,1522.9171 c 0.5,0.8 1,3.3 1,5.5 0.1,2.2 1.1,8.7 2.3,14.5 1.9,8.8 2.6,10.7 4.5,11.5 1.2,0.5 2.4,1.7 2.7,2.6 1.9,6 18.9,5 25.4,-1.6 3.5,-3.4 3.6,-3.8 3.5,-10.6 -0.2,-5.9 -0.6,-7.6 -3,-11.1 -1.6,-2.2 -4.1,-5 -5.6,-6.1 -3.6,-2.6 -3.5,-3.8 0.3,-6.6 3.6,-2.7 6.9,-7.8 6.9,-10.8 0,-1.2 -1.1,-3.5 -2.5,-5.1 -4.2,-5 -16.9,-5.3 -27.1,-0.7 -4.1,1.9 -5.4,3.6 -6.1,8.2 -0.4,2.1 -1.2,4.4 -2,5.1 -1.5,1.6 -1.6,3.1 -0.3,5.2 z m 7,-2.4 c 0.5,-1.7 1.2,-4.3 1.5,-5.8 0.4,-2.2 1.5,-2.9 7.2,-4.7 9.5,-3 15.3,-2.7 15.3,0.8 0,1.7 -2.1,4.1 -8,8.9 -3.6,3 -14.3,6.8 -16,5.7 -1.2,-0.8 -1.2,-1.1 0,-4.9 z m 6.4,10.9 c 7.1,-2.1 11.3,-1.2 15.5,3.1 2.7,2.7 3.5,4.5 3.9,8.3 0.4,4.8 0.3,5 -3.4,7.4 -5.2,3.5 -8.7,4.2 -10.3,2.3 -0.7,-0.8 -2.7,-2 -4.4,-2.5 -2.9,-1 -3.4,-1.8 -4.8,-7.3 -2.5,-9.7 -2.6,-9.5 3.5,-11.3 z" />
  <path
     style="fill:#000000;stroke:none;stroke-width:0.1"
     inkscape:connector-curvature="0"
     id="path44"
     d="m 1153.6711,1277.9171 c 0.5,0.8 1,4.9 1,9 0,8.4 1.5,12.3 4.7,12.8 3.8,0.6 4.7,-2.9 2.9,-10.8 -1.8,-7.8 -1.4,-10 1.9,-10 3,0 4.8,3 7,11.5 2.6,10.4 4.9,10.8 9.2,1.6 3.3,-7.1 7.3,-12.5 8.4,-11.4 0.5,0.5 1.3,4.2 1.9,8.3 1.3,9.2 3.4,11.3 6.6,6.5 1.3,-2 1.4,-3.1 0.6,-5.3 -0.5,-1.5 -1.5,-5.9 -2.2,-9.9 -1.3,-8.1 -2.5,-9.6 -7.2,-9.1 -2.6,0.2 -3.6,1 -5,3.8 -0.9,1.9 -2.8,4.8 -4.1,6.5 -3,3.6 -4.6,2.7 -7.2,-4 -1.3,-3.6 -2.2,-4.5 -4,-4.5 -1.7,0 -2.5,0.7 -2.7,2.2 -0.5,3.4 -2.7,3.3 -3.9,-0.1 -0.7,-2 -2,-3.3 -3.5,-3.7 -4.2,-1.1 -6.8,2.9 -4.4,6.6 z" />
  <path
     style="fill:#000000;stroke:none;stroke-width:0.1"
     inkscape:connector-curvature="0"
     id="path46"
     d="m 1163.5711,1755.6171 c 1.1,1.3 2.2,4.7 2.6,8 0.9,8 3.4,12.8 6.4,12.8 2,0 2.7,-0.7 3.4,-3.4 0.7,-2.8 0.4,-4.4 -1.3,-7.8 -1.2,-2.4 -2.5,-7 -3,-10.3 -0.5,-3.3 -1.1,-6.3 -1.4,-6.8 -1,-1.7 -4.5,-2 -6.5,-0.5 -2.6,1.8 -2.6,5.1 -0.2,8 z" />
  <path
     style="fill:#000000;stroke:none;stroke-width:0.1"
     inkscape:connector-curvature="0"
     id="path48"
     d="m 1177.4711,1753.9171 c 1.2,3.9 9.3,19.9 10.7,21 1.3,1.1 2,0.9 4,-1 1.3,-1.2 3.3,-4.1 4.3,-6.4 1.1,-2.2 2.9,-5 4.1,-6 2.4,-2.2 2.3,-2.3 2.6,6.7 0.1,3.8 0.7,6.2 1.6,6.8 5.7,3.6 7.4,-5.5 3.3,-18.4 -2.6,-7.8 -9.1,-9.1 -11.4,-2.2 -0.6,2 -2.3,4.9 -3.7,6.6 l -2.6,3 -2.8,-4.8 c -1.6,-2.6 -2.9,-5.5 -2.9,-6.4 0,-2.4 -2.3,-3.9 -4.7,-3.3 -2.4,0.7 -3.2,2.1 -2.5,4.4 z" />
  <path
     style="fill:#000000;stroke:none;stroke-width:0.1"
     inkscape:connector-curvature="0"
     id="path52"
     d="m 1206.1711,1294.7171 c 1.5,1.2 3.2,2.2 3.6,2.2 1.3,0 1.1,4.4 -0.2,5.7 -1.5,1.5 -0.7,6.4 1.3,7.7 2.1,1.3 5.3,-1.3 6.3,-5.2 1.2,-5.2 3.1,-6.9 8.2,-7.6 9.8,-1.3 16,-9.9 13.4,-18.6 -0.8,-2.6 -2,-4.4 -3.4,-4.9 -3.9,-1.5 -5.1,-3.6 -3.8,-7.2 1.5,-4.5 1.4,-7.9 -0.4,-8.6 -2.5,-0.9 -5.2,2.4 -6,7.3 -0.5,3.4 -1.1,4.5 -2.9,5 -1.2,0.3 -2.6,0.4 -3.2,0.3 -3.8,-0.7 -4.9,3.2 -1.4,5.1 2.7,1.4 2.5,4 -0.5,10 -1.6,3.2 -3.2,5 -4.3,5 -4,0 -5.5,-4.7 -2.7,-8.4 2,-2.6 1.9,-7.5 -0.1,-8.3 -0.9,-0.3 -2.5,0.3 -3.7,1.6 -1.7,1.7 -2.2,3.6 -2.5,9.5 -0.4,7 -0.3,7.4 2.3,9.4 z m 19.1,-11.1 c 1.9,-5.7 3.8,-7.5 5.9,-5.7 2.4,2 1.9,7.7 -1,10.5 -2.6,2.7 -6.5,3.4 -6.5,1.2 0,-0.7 0.7,-3.4 1.6,-6 z" />
  <path
     style="fill:#000000;stroke:none;stroke-width:0.1"
     inkscape:connector-curvature="0"
     id="path54"
     d="m 1218.0711,1772.8171 c 1.3,1.2 3.6,2.6 5.2,3 2.7,0.7 2.9,1.1 2.9,5.5 0,5.2 1.7,7.1 4.7,5.5 1.7,-0.9 2.3,-2.4 3,-7.4 0.3,-1.6 1.3,-2.1 4.8,-2.5 5,-0.6 9.6,-3.4 10.4,-6.5 2,-7 -0.3,-13.3 -6.5,-18.4 l -2.4,-1.9 1.8,-3.5 c 2.6,-4.8 2,-7.2 -1.8,-7.2 -2.4,0 -3.3,0.6 -4.4,3.2 -1.3,2.9 -1.9,3.3 -5.3,3.3 -5.8,0 -9.1,2.2 -12.1,8 -3.7,7 -3.8,15.6 -0.3,18.9 z m 6.3,-16.6 c 2,-3.5 3,-4.3 5.4,-4.3 4,0 4.4,1.7 2.4,10 -2,8.3 -3,9.4 -7.3,7.8 -4.9,-1.9 -5.1,-5.8 -0.5,-13.5 z m 13.4,7.1 c 0.6,-2.4 1.5,-4.7 1.9,-4.9 1.7,-1.1 4,2.8 4,6.6 0,3.3 -0.4,4.1 -2.6,4.9 -4.5,1.7 -5.1,0.6 -3.3,-6.6 z" />
  <path
     style="fill:#000000;stroke:none;stroke-width:0.1"
     inkscape:connector-curvature="0"
     id="path60"
     d="m 1681.6711,1250.9171 c 0.5,1.4 1.3,5 1.9,8 1.5,8.5 4.1,15 6,15 4.4,0 5.4,-6.1 2.1,-12.4 -1.2,-2.1 -2.4,-6.7 -2.9,-10.2 -0.9,-7.7 -1.8,-8.9 -5.4,-7.5 -2.8,1.1 -3.1,2.6 -1.7,7.1 z" />
  <path
     style="fill:#000000;stroke:none;stroke-width:0.1"
     inkscape:connector-curvature="0"
     id="path62"
     d="m 1698.1711,1251.8171 c 2.2,3.1 3.6,7.3 5.2,15.3 0.7,3.5 3.7,6.2 5.7,5.1 2,-1.1 6.2,-6.9 8.5,-12.1 1.1,-2.3 2.5,-4.2 3,-4.2 1.5,0 3.1,5.9 3.1,11.6 0,5 0.2,5.4 2.4,5.4 4.3,0 5.1,-2.2 3.7,-10.3 -1.5,-8.7 -4.8,-15.6 -7.8,-16.3 -2.8,-0.8 -4,0 -5.9,3.9 -3.5,7.4 -5.5,10.7 -6.4,10.7 -1.3,0 -2.7,-2.9 -3.4,-7.6 -1.4,-8 -6,-12.6 -9.4,-9.2 -1.8,1.8 -1.4,3.9 1.3,7.7 z" />
  <path
     style="fill:#000000;stroke:none;stroke-width:0.1"
     inkscape:connector-curvature="0"
     id="path64"
     d="m 1700.4711,1820.9171 c 0.2,1.4 1,3.2 1.8,4.1 0.8,0.9 1.4,3.1 1.4,5 -0.1,6.8 1.2,11.9 3.3,13.4 2.8,2 3.4,1.9 5.1,-0.8 1.3,-2 1.2,-3.1 -1,-11.2 -1.3,-5 -2.2,-10 -1.9,-11.1 0.3,-1.3 -0.3,-3.1 -1.3,-4.4 -1.4,-1.8 -2.2,-2 -4.3,-1.1 -3,1.1 -3.7,2.5 -3.1,6.1 z" />
  <path
     style="fill:#000000;stroke:none;stroke-width:0.1"
     inkscape:connector-curvature="0"
     id="path66"
     d="m 1717.6711,1824.4171 c 1.7,3.7 5.2,12.7 6.4,16.7 0.9,3.1 4.6,2.1 6.1,-1.6 0.8,-1.9 1.9,-3.7 2.4,-4 0.5,-0.3 1.7,-2.9 2.7,-5.7 3.6,-9.9 7.4,-8.5 7.4,2.7 0,8.8 3.7,12.2 6.8,6.3 3,-5.7 -3.3,-24.7 -8.7,-26.2 -2.6,-0.6 -3.3,0 -5.9,5.8 -1.3,2.7 -3.4,6.3 -4.7,8 -3,3.6 -4.1,2.8 -5.9,-4.1 -1.1,-4.3 -1.6,-4.9 -4.1,-5.2 -1.5,-0.2 -3.2,0.2 -3.6,1 -1.1,1.7 -1.1,1.6 1.1,6.3 z" />
  <path
     style="fill:#000000;stroke:none;stroke-width:0.1"
     inkscape:connector-curvature="0"
     id="path68"
     d="m 1738.0711,1267.4171 c 3.1,3.6 3.1,4.8 0.6,10.3 -2.1,4.7 -1.9,6.1 1.2,8.1 1.9,1.2 2.4,1.1 3.9,-0.8 0.9,-1.1 2,-4 2.4,-6.4 1.2,-7.1 1.9,-7.7 8.2,-7.7 7.4,0 11.5,-2.9 13.8,-10.1 1.6,-4.8 1.6,-5.2 -0.1,-8.6 -1.1,-1.9 -3.4,-4.3 -5.2,-5.4 -1.9,-1.3 -3.2,-2.9 -3.2,-4.1 0,-2.9 2.1,-9.9 3.7,-12.3 2.1,-3.1 1.7,-7.2 -0.8,-7.8 -1.1,-0.3 -2.7,-0.3 -3.4,-0.1 -1.4,0.6 -3.6,6.1 -5.5,13.4 -1.5,5.8 -2.6,7 -6.2,7 -1.6,0 -3.1,0.6 -3.4,1.4 -0.3,0.8 -1.8,1.6 -3.3,1.9 -3.5,0.7 -4.1,2.3 -4.8,11.2 -0.4,6.4 -0.2,7.3 2.1,10 z m 5.7,-15.4 c 2.7,-3.7 3.9,-3.2 3.9,1.8 0,6.6 -4.6,12.9 -6.4,8.8 -1,-2.3 0.2,-7.6 2.5,-10.6 z m 10.1,2.6 c 1.1,-3.1 2.3,-5.7 2.6,-5.7 1.6,0 6.2,5.6 6.2,7.6 0,3.2 -3.5,7.1 -7.1,7.8 -3.8,0.7 -5.3,0 -4.4,-2.3 0.4,-0.9 1.6,-4.2 2.7,-7.4 z" />
  <path
     style="fill:#000000;stroke:none;stroke-width:0.1"
     inkscape:connector-curvature="0"
     id="path70"
     d="m 1758.8711,1837.6171 c 0.9,4.2 4.6,8.3 7.4,8.3 2,0 2.5,1.6 1.3,4.4 -2.3,5 2.7,10.2 5.9,6.3 0.6,-0.7 1.4,-3.2 1.8,-5.6 0.6,-3.8 1.1,-4.5 4.3,-5.8 8.7,-3.4 10.8,-4.6 13.3,-8 5.2,-6.8 2.8,-15.2 -5.8,-20.2 -4,-2.4 -4.3,-4.8 -1.4,-10.6 1.1,-2.2 2,-4.6 2,-5.5 0,-5.7 -7.2,-3.4 -8.9,2.8 -0.6,2 -1.1,4.4 -1.1,5.2 0,2.6 -2.2,4 -6.1,4 -2.1,0 -4.1,0.5 -4.4,1.1 -1.3,2.1 0.5,5.4 3.5,6.6 2.6,1 3,1.6 3,5 -0.1,3.9 -2.1,12.7 -3.2,13.8 -1.3,1.4 -4.6,-0.7 -6.4,-4 -1.8,-3.4 -1.8,-3.6 0,-8.9 1,-3 1.6,-6.2 1.3,-7 -0.8,-1.9 -4.1,-2.1 -5.4,-0.4 -1.5,1.9 -2.2,13.7 -1.1,18.5 z m 20.2,-8.5 c 1.8,-8.3 2.7,-9.1 6.5,-6.1 3.1,2.5 4.7,6.6 3.6,9.8 -1,3.4 -11.6,6.4 -11.5,3.3 0.1,-0.4 0.7,-3.6 1.4,-7 z" />
  <path
     style="opacity:1;vector-effect:none;fill:#ffd42a;fill-opacity:0.9254902;stroke:#000000;stroke-width:2.13543296;stroke-linecap:round;stroke-linejoin:round;stroke-miterlimit:4;stroke-dasharray:none;stroke-dashoffset:0;stroke-opacity:0.9254902"
     d="m 1965.7051,1695.12 c -18.0042,-1.3078 -52.3641,-8.1666 -61.1857,-12.2136 -13.3066,-6.1046 -18.8098,-9.3107 -25.4721,-14.8397 -3.8904,-3.2286 -7.4865,-5.8707 -7.9913,-5.8714 -0.5047,-6e-4 -2.1648,-1.661 -3.6891,-3.6897 -1.5242,-2.0286 -4.3296,-5.6412 -6.2342,-8.0279 -4.8128,-6.0308 -8.2045,-12.6877 -11.7976,-23.1548 -6.6233,-19.2947 -6.6281,-19.324 -6.1141,-38.0309 0.5094,-18.5429 1.8227,-28.2353 5.8792,-43.3895 5.3296,-19.9099 17.317,-38.2735 30.9928,-47.4782 2.6945,-1.8136 6.8754,-4.753 9.2909,-6.5321 12.0424,-8.8692 43.2118,-19.7422 63.7369,-22.2336 15.6445,-1.8991 21.1293,-2.0126 30.323,-0.6277 15.882,2.3923 21.8706,4.4153 27.4035,9.257 l 4.862,4.2547 h 8.4795 c 8.1126,0 8.6642,0.122 12.7473,2.8206 2.3472,1.5513 11.3173,9.8504 19.9335,18.4425 13.9354,13.8964 16.2536,16.6284 20.9882,24.7346 9.1873,15.73 13.0226,23.5723 16.1934,33.1123 4.1224,12.4029 4.8595,17.6771 4.8672,34.8269 0.01,12.4743 -0.2533,15.3388 -1.8043,19.9612 -3.2645,9.7289 -9.3934,21.3359 -14.428,27.3241 -9.5709,11.3837 -23.3028,25.6791 -27.2118,28.3284 -17.3277,11.7435 -23.1934,14.9935 -33.2239,18.4078 -11.944,4.0657 -36.5227,6.0735 -56.5453,4.619 z m -23.6004,-72.6632 c 2.5025,-2.7653 3.9427,-7.5067 4.5524,-14.9871 l 0.5974,-7.3291 15.6045,0.023 c 17.8824,0.027 17.2081,-0.2613 19.0085,8.1209 1.4514,6.757 2.9983,9.5222 5.7072,10.2021 2.7482,0.6897 6.3085,-1.0824 7.2173,-3.5924 1.0332,-2.8534 -1.4496,-10.5843 -7.3859,-22.9989 -3.0814,-6.444 -7.0142,-15.8171 -8.7396,-20.8291 -4.2217,-12.264 -8.5563,-20.4118 -11.5093,-21.6343 -3.5189,-1.4567 -10.1444,0.082 -13.3133,3.0919 -1.4398,1.3676 -3.4068,4.021 -4.371,5.8965 -2.8369,5.5176 -9.2801,26.3355 -10.7238,34.648 -0.7338,4.2251 -2.342,10.8644 -3.5737,14.754 -2.8056,8.859 -3.0288,13.2976 -0.7525,14.962 2.3087,1.6882 5.9998,1.5307 7.6818,-0.3279 z"
     id="path988"
     inkscape:connector-curvature="0"
     transform="scale(0.75)" />
  <path
     style="opacity:1;vector-effect:none;fill:#ffd42a;fill-opacity:0.9254902;stroke:#000000;stroke-width:2.13543296;stroke-linecap:round;stroke-linejoin:round;stroke-miterlimit:4;stroke-dasharray:none;stroke-dashoffset:0;stroke-opacity:0.9254902"
     d="m 1954.7031,1589.5987 c -4.1317,-0.7286 -4.5087,-2.1959 -2.0593,-8.0153 1.217,-2.8915 2.2131,-5.9525 2.2134,-6.8022 9e-4,-2.0143 4.7282,-11.9953 6.0758,-12.8282 1.4363,-0.8877 3.7504,1.6741 6.8224,7.5524 3.0879,5.9089 5.9711,17.7537 4.6443,19.0804 -0.9525,0.9526 -13.8522,1.6909 -17.6966,1.0129 z"
     id="path990"
     inkscape:connector-curvature="0"
     transform="scale(0.75)" />
  <path
     style="opacity:1;vector-effect:none;fill:#ffd42a;fill-opacity:0.9254902;stroke:#000000;stroke-width:2.13543296;stroke-linecap:round;stroke-linejoin:round;stroke-miterlimit:4;stroke-dasharray:none;stroke-dashoffset:0;stroke-opacity:0.9254902"
     d="m 2392.703,2148.4861 c -20.4326,-2.5873 -42.5589,-11.6106 -61.6733,-25.1509 -13.6128,-9.6431 -25.1378,-24.9723 -28.9324,-38.4825 -4.9815,-17.7366 -5.5629,-20.7646 -7.5453,-39.2971 -3.0387,-28.4073 1.0796,-50.2943 12.7141,-67.5715 8.971,-13.3218 23.6683,-25.078 42.674,-34.1345 13.0496,-6.2183 16.3195,-7.2064 27.3283,-8.2582 12.0983,-1.1558 51.5639,-1.1639 60.6667,-0.012 17.0482,2.1565 28.8602,8.7501 38.1297,21.2843 5.0244,6.794 5.8406,7.3538 10.7231,7.3538 2.3437,0 3.8173,0.6046 5.2876,2.1697 1.1211,1.1933 2.7852,2.1697 3.698,2.1697 2.5813,0 10.1543,8.443 15.173,16.9163 6.2377,10.5312 9.2302,18.7636 11.9801,32.9568 2.6141,13.4927 2.5985,14.1893 -0.8165,36.4099 -1.8578,12.0886 -2.5598,14.6915 -5.6179,20.8292 -5.9667,11.9754 -14.1881,21.5447 -30.6548,35.6807 -3.1923,2.7405 -9.6363,7.0701 -14.3201,9.6214 -14.0476,7.6519 -28.2693,14.7762 -31.7588,15.9094 -1.805,0.5862 -4.9293,1.9721 -6.9431,3.0799 -4.9136,2.703 -16.4525,6.2367 -25.5407,7.8215 -7.2768,1.269 -9.3303,1.3683 -14.5717,0.7045 z m 19.9274,-68.8934 c 4.457,-1.3766 6.7985,-2.7604 10.1702,-6.0103 l 4.3802,-4.2219 -0.322,-9.3946 c -0.3778,-11.023 -1.7263,-14.0469 -9.7887,-21.9492 -2.6619,-2.6091 -4.8348,-5.1476 -4.8288,-5.6413 0.01,-0.4936 2.0564,-2.6922 4.5564,-4.8857 4.7127,-4.135 8.4509,-10.2897 8.4509,-13.9139 0,-2.9035 -3.8346,-8.2559 -7.1849,-10.029 -4.1461,-2.1941 -17.7166,-2.5917 -24.8747,-0.7288 -10.7837,2.8065 -15.0512,6.2076 -16.1192,12.8466 -0.3241,2.0146 -1.5706,5.3672 -2.77,7.4501 -1.8807,3.266 -2.0388,4.0987 -1.1489,6.0518 0.5675,1.2456 1.7976,7.4943 2.7334,13.886 3.0584,20.8896 5.0433,27.3858 9.2922,30.4112 1.4578,1.0381 2.8817,2.6157 3.1642,3.5059 1.4301,4.5057 13.8516,5.8471 24.2897,2.6231 z"
     id="path992"
     inkscape:connector-curvature="0"
     transform="scale(0.75)" />
  <path
     style="opacity:1;vector-effect:none;fill:#ffd42a;fill-opacity:0.9254902;stroke:#000000;stroke-width:2.13543296;stroke-linecap:round;stroke-linejoin:round;stroke-miterlimit:4;stroke-dasharray:none;stroke-dashoffset:0;stroke-opacity:0.9254902"
     d="m 2383.1942,2032.6714 c -0.2337,-0.6564 0.4523,-4.3013 1.5246,-8.0997 2.2872,-8.1022 3.391,-9.0247 14.063,-11.7542 11.7459,-3.0041 16.963,-2.0104 15.7076,2.9916 -0.8091,3.2238 -11.9635,12.1624 -18.3854,14.7332 -7.21,2.8864 -12.339,3.7322 -12.9098,2.1291 z"
     id="path994"
     inkscape:connector-curvature="0"
     transform="scale(0.75)" />
  <path
     style="opacity:1;vector-effect:none;fill:#ffd42a;fill-opacity:0.9254902;stroke:#000000;stroke-width:2.13543296;stroke-linecap:round;stroke-linejoin:round;stroke-miterlimit:4;stroke-dasharray:none;stroke-dashoffset:0;stroke-opacity:0.9254902"
     d="m 2400.1589,2069.7598 c -0.5508,-0.6636 -2.87,-2.0105 -5.1539,-2.993 -2.6787,-1.1523 -4.5343,-2.6242 -5.2281,-4.147 -1.6628,-3.6496 -4.4078,-15.9244 -3.8728,-17.3184 0.4429,-1.1543 5.5962,-2.9651 12.1505,-4.2698 4.1363,-0.8233 9.5146,1.0092 13.4897,4.5961 4.3179,3.8962 5.8933,7.4054 5.8933,13.1268 0,5.0295 -1.3045,6.6375 -8.154,10.0508 -4.8886,2.4361 -7.6549,2.7255 -9.1247,0.9545 z"
     id="path996"
     inkscape:connector-curvature="0"
     transform="scale(0.75)" />
  <path
     style="opacity:1;vector-effect:none;fill:#ffd42a;fill-opacity:0.9254902;stroke:#000000;stroke-width:2.13543296;stroke-linecap:round;stroke-linejoin:round;stroke-miterlimit:4;stroke-dasharray:none;stroke-dashoffset:0;stroke-opacity:0.9254902"
     d="m 1878.049,2569.7044 c -16.9574,-5.9987 -29.2849,-11.4561 -33.9896,-15.0472 -2.0781,-1.5862 -4.1042,-2.884 -4.5025,-2.884 -1.5507,0 -13.6277,-9.1405 -19.707,-14.9154 -7.7358,-7.3481 -11.8985,-13.4305 -15.5734,-22.7549 -1.5229,-3.8641 -3.8001,-8.9784 -5.0605,-11.3651 -2.1287,-4.0309 -7.4482,-22.1096 -9.4486,-32.1116 -0.4773,-2.3867 -0.6772,-9.8071 -0.4441,-16.4898 0.3838,-11.0062 0.7231,-13.0675 3.6033,-21.8908 3.7517,-11.4934 9.5984,-23.0849 18.2964,-36.2742 7.2019,-10.9207 15.0473,-18.8114 25.2645,-25.4108 3.7654,-2.4321 8.4143,-5.5896 10.3308,-7.0165 3.5992,-2.68 11.7043,-6.6042 20.8697,-10.1046 6.4786,-2.4742 30.6008,-6.9298 46.8566,-8.6548 26.2771,-2.7884 55.5991,-0.8004 65.4736,4.4391 2.1442,1.1377 4.4054,2.0686 5.0249,2.0686 1.6207,0 7.7813,3.2615 8.6046,4.5554 0.3836,0.6029 2.11,2.148 3.8363,3.4336 2.3794,1.7719 4.5224,5.1304 8.8568,13.881 3.2358,6.5326 8.2777,14.9384 11.6151,19.3643 14.9401,19.8133 24.3237,36.3317 29.6831,52.2526 2.173,6.4554 2.2546,9.8943 0.4594,19.3582 -2.9053,15.3156 -9.4842,31.0497 -16.1529,38.6315 -2.0841,2.3695 -5.5386,6.636 -7.6766,9.4811 -5.9989,7.9829 -33.7881,35.4566 -38.6589,38.2202 -2.3557,1.3365 -7.0169,4.2722 -10.3582,6.5238 -7.6008,5.1218 -13.9885,8.4033 -25.6025,13.1524 l -9.1128,3.7262 -24.7346,0.2184 -24.7347,0.2184 z m 61.6196,-68.2991 c 7.1167,-2.7201 13.4283,-6.7366 14.3355,-9.1226 0.4487,-1.1803 0.3943,-3.2819 -0.1348,-5.1979 -0.8821,-3.1949 -0.914,-3.2135 -4.7533,-2.7808 -3.5373,0.3987 -6.506,2.0167 -14.8055,8.0691 -2.5821,1.883 -13.6258,2.6315 -19.1773,1.2997 -5.1398,-1.233 -10.5897,-5.5278 -12.7253,-10.0282 -5.6255,-11.8549 4.8237,-34.6506 17.644,-38.4916 5.1159,-1.5328 7.4205,-0.286 9.1617,4.9562 1.7987,5.4153 3.2781,6.7798 6.0039,5.5379 2.1073,-0.9602 4.8885,-5.8525 4.8802,-8.5849 -0.02,-6.692 -5.1136,-13.6051 -10.8115,-14.6741 -6.2068,-1.1643 -20.44,4.7564 -26.537,11.039 -4.2048,4.3327 -9.2058,14.2523 -10.3812,20.5915 -0.4768,2.5711 -0.8668,8.0597 -0.8668,12.1969 0,8.6892 1.8703,13.4923 7.9381,20.3857 5.905,6.7084 8.5092,7.4701 24.1735,7.0709 8.7576,-0.2233 11.8522,-0.6602 16.0558,-2.2668 z"
     id="path998"
     inkscape:connector-curvature="0"
     transform="scale(0.75)" />
  <path
     style="opacity:1;vector-effect:none;fill:#ffd42a;fill-opacity:0.9254902;stroke:#000000;stroke-width:2.13543296;stroke-linecap:round;stroke-linejoin:round;stroke-miterlimit:4;stroke-dasharray:none;stroke-dashoffset:0;stroke-opacity:0.9254902"
     d="m 1558.6684,2147.3667 c -1.9093,-0.4237 -10.3026,-1.9881 -18.6518,-3.4764 -22.5105,-4.0127 -34.9496,-8.6678 -49.4769,-18.5159 -3.58,-2.4269 -7.8964,-5.2144 -9.5919,-6.1944 -5.7158,-3.3036 -20.5025,-21.6759 -25.5325,-31.7237 -2.7735,-5.5404 -7.222,-19.4987 -9.04,-28.3652 -3.1963,-15.5894 -1.0872,-47.3306 4.6606,-70.1394 1.7288,-6.8603 8.3154,-19.9346 13.4506,-26.6994 17.4256,-22.9548 45.0224,-41.9734 72.0509,-49.6545 28.1552,-8.0013 42.0216,-8.4953 62.9215,-2.2418 6.6827,1.9996 13.7125,4.3829 15.6219,5.2963 7.1214,3.4066 14.697,7.808 16.8601,9.7955 4.2885,3.9404 6.4593,4.9219 10.8882,4.9225 10.3599,0 32.8392,17.9606 44.727,35.733 7.2883,10.8961 8.7735,14.0573 14.2654,30.3637 7.7689,23.0675 8.4392,28.0914 6.1054,45.7578 -1.0759,8.1438 -2.0655,11.6866 -5.6343,20.1711 -2.381,5.6607 -4.3291,10.6467 -4.3291,11.08 0,0.4332 -1.4153,2.8774 -3.145,5.4313 -1.7298,2.554 -3.88,6.3408 -4.7782,8.4152 -1.0396,2.4011 -5.439,7.6533 -12.1069,14.454 -8.4383,8.6063 -12.5276,11.9943 -21.0414,17.4326 -13.917,8.8898 -41.1793,22.4375 -48.6274,24.1648 -13.9109,3.2262 -42.6314,5.5384 -49.5962,3.9929 z m 12.8443,-86.389 c 11.1993,-3.0487 22.8918,-13.8936 28.9067,-26.8112 3.4708,-7.4539 2.6373,-10.2931 -5.197,-17.7025 -9.3176,-8.8122 -19.7653,-11.8412 -38.9785,-11.3007 -7.545,0.2122 -13.0832,0.7642 -14.2719,1.4224 -2.5178,1.3941 -3.1343,4.0723 -3.1326,13.6097 9e-4,6.9199 0.3553,8.7021 3.1029,15.6219 1.7057,4.296 3.9402,11.6992 4.9654,16.4514 1.0252,4.7523 2.3267,9.1979 2.892,9.8792 1.3026,1.5695 14.2026,0.8743 21.713,-1.1702 z"
     id="path1000"
     inkscape:connector-curvature="0"
     transform="scale(0.75)" />
  <path
     style="opacity:1;vector-effect:none;fill:#ffd42a;fill-opacity:0.9254902;stroke:#000000;stroke-width:2.13543296;stroke-linecap:round;stroke-linejoin:round;stroke-miterlimit:4;stroke-dasharray:none;stroke-dashoffset:0;stroke-opacity:0.9254902"
     d="m 1562.3014,2051.8588 c -3.7839,-1.1359 -4.6933,-2.284 -6.743,-8.5132 -1.0484,-3.1859 -3.0231,-8.027 -4.3884,-10.7581 -1.8008,-3.6025 -2.4786,-6.2231 -2.4689,-9.5467 0.021,-7.1938 0.024,-7.1956 12.7572,-7.1111 12.2853,0.082 15.5741,0.8332 22.9237,5.2397 6.5388,3.9204 7.7101,6.6447 5.1399,11.9542 -2.422,5.0032 -12.8973,14.8766 -18.6013,17.5325 -4.8372,2.2523 -5.0318,2.2795 -8.6192,1.2027 z"
     id="path1002"
     inkscape:connector-curvature="0"
     transform="scale(0.75)" />
</svg>
