<?xml version="1.0" encoding="UTF-8" standalone="no"?>
<svg
   xmlns:dc="http://purl.org/dc/elements/1.1/"
   xmlns:cc="http://creativecommons.org/ns#"
   xmlns:rdf="http://www.w3.org/1999/02/22-rdf-syntax-ns#"
   xmlns:svg="http://www.w3.org/2000/svg"
   xmlns="http://www.w3.org/2000/svg"
   xmlns:sodipodi="http://sodipodi.sourceforge.net/DTD/sodipodi-0.dtd"
   xmlns:inkscape="http://www.inkscape.org/namespaces/inkscape"
   version="1.0"
   width="2550.000000pt"
   height="3300.000000pt"
   viewBox="0 0 2550.000000 3300.000000"
   preserveAspectRatio="xMidYMid meet"
   id="svg166"
   sodipodi:docname="FSM_arch.svg"
   inkscape:version="0.92.2 (5c3e80d, 2017-08-06)"
   inkscape:export-filename="C:\xesscorp\MyHDL\pygmyhdl\examples\5_fsm\FSM_arch.png"
   inkscape:export-xdpi="144"
   inkscape:export-ydpi="144">
  <defs
     id="defs170" />
  <sodipodi:namedview
     pagecolor="#ffffff"
     bordercolor="#666666"
     borderopacity="1"
     objecttolerance="10"
     gridtolerance="10"
     guidetolerance="10"
     inkscape:pageopacity="0"
     inkscape:pageshadow="2"
     inkscape:window-width="2033"
     inkscape:window-height="1467"
     id="namedview168"
     showgrid="false"
     inkscape:zoom="0.60682618"
     inkscape:cx="1187.3748"
     inkscape:cy="2206.4554"
     inkscape:window-x="920"
     inkscape:window-y="94"
     inkscape:window-maximized="0"
     inkscape:current-layer="svg166"
     inkscape:snap-global="false" />
  <metadata
     id="metadata2">
Created by potrace 1.15, written by Peter Selinger 2001-2017
<rdf:RDF>
  <cc:Work
     rdf:about="">
    <dc:format>image/svg+xml</dc:format>
    <dc:type
       rdf:resource="http://purl.org/dc/dcmitype/StillImage" />
  </cc:Work>
</rdf:RDF>
</metadata>
  <path
     style="fill:#aaccff;fill-opacity:1;stroke:none;stroke-width:0.75px;stroke-linecap:butt;stroke-linejoin:miter;stroke-opacity:1"
     d="m 1190.2225,1390.6229 4.8914,196.4534 218.9222,0.4369 2.1848,-150.3177 -4.1723,-48.4878 z"
     id="path897"
     inkscape:connector-curvature="0"
     sodipodi:nodetypes="cccccc" />
  <path
     style="fill:#000000;stroke:none;stroke-width:0.1"
     inkscape:connector-curvature="0"
     id="path12"
     d="m 1283.2898,1240.0271 c -0.6,1.6 2.1,11.2 3.7,13.2 0.6,0.8 1.4,5.3 1.6,10.1 0.6,9.2 1.4,11.3 4.4,11.3 3.5,0 3.5,-3.9 -0.2,-18 -0.6,-2.5 -1.4,-7.2 -1.6,-10.5 -0.3,-3.3 -1,-6.3 -1.7,-6.7 -1.9,-1.3 -5.6,-0.9 -6.2,0.6 z"
     inkscape:export-xdpi="144"
     inkscape:export-ydpi="144" />
  <path
     style="fill:#000000;stroke:none;stroke-width:0.1"
     inkscape:connector-curvature="0"
     id="path14"
     d="m 1299.2898,1240.1271 c -0.3,0.8 0.1,3.6 1,6.2 0.9,2.6 1.8,6.8 2,9.3 1.1,10.2 2.5,18.3 3.5,19.3 0.5,0.5 1.7,0.7 2.6,0.3 1.4,-0.5 1.6,-1.4 1.1,-5.1 -0.6,-3.8 -0.5,-4.5 0.9,-4.5 2,0 6.9,3.3 11.1,7.4 1.6,1.7 4.7,4 6.7,5.1 3.5,1.8 3.8,1.9 5.4,0.2 1.6,-1.6 1.6,-1.9 0.1,-4.4 -0.9,-1.5 -2.8,-3.1 -4.2,-3.4 -1.4,-0.4 -4,-1.9 -5.7,-3.4 -1.8,-1.4 -4.9,-3.5 -7,-4.6 -2.2,-1.1 -3.9,-2.2 -3.9,-2.4 0,-0.3 3,-1.9 6.6,-3.5 3.8,-1.8 6.4,-3.6 6.1,-4.3 -0.7,-2.2 -5.6,-1.9 -10.8,0.7 -7.5,3.8 -7.7,3.7 -7.7,-4.4 0,-4.1 -0.5,-7.7 -1.2,-8.5 -1.6,-1.9 -5.9,-1.9 -6.6,0 z"
     inkscape:export-xdpi="144"
     inkscape:export-ydpi="144" />
  <path
     style="fill:#000000;stroke:none;stroke-width:0.1"
     inkscape:connector-curvature="0"
     id="path16"
     d="m 1264.3898,1252.4271 c -2.2,0.8 -6.6,3.7 -9.6,6.4 -2.6,2.4 -2.7,10.8 -0.1,13 3.6,3.2 6.8,4 15.6,4.2 11.1,0.1 13.9,-0.6 15.4,-3.9 1,-2.2 0.9,-2.5 -1.3,-3.1 -1.4,-0.3 -3.9,-0.1 -5.6,0.5 -7.4,2.6 -19.9,0.7 -19.9,-3.1 0,-5.1 5.4,-8.8 12.9,-8.8 3,0 4.3,-0.5 5.1,-2 0.8,-1.5 0.6,-2.1 -0.9,-3 -2.1,-1.1 -8.4,-1.2 -11.6,-0.2 z"
     inkscape:export-xdpi="144"
     inkscape:export-ydpi="144" />
  <path
     style="fill:#000000;stroke:none;stroke-width:0.13333334"
     d="M 1860.916 1999.3613 C 1855.0943 1999.4185 1851.8383 2001.469 1847.6133 2006.7773 C 1844.6799 2010.644 1843.7465 2013.0453 1844.1465 2015.4453 C 1844.5465 2017.312 1845.2128 2022.3784 1845.7461 2026.5117 L 1846.5469 2034.2441 L 1840.8125 2036.9121 C 1834.5458 2039.7121 1826.8137 2040.3775 1826.0137 2038.2441 C 1825.8803 2037.5775 1825.8793 2032.6439 1826.2793 2027.3105 C 1827.2126 2014.5105 1825.7467 2009.9784 1821.0801 2010.5117 C 1816.6801 2011.0451 1815.7473 2016.512 1818.9473 2023.4453 C 1820.8139 2027.8453 1820.8134 2028.7788 1819.0801 2032.9121 C 1817.2134 2037.3121 1817.0806 2037.3113 1816.9473 2034.1113 C 1816.9473 2030.5113 1811.881 2026.3784 1803.3477 2022.5117 C 1799.881 2021.0451 1799.7474 2020.6449 1800.4141 2015.0449 C 1801.2141 2009.3116 1801.0794 2008.9115 1797.7461 2007.5781 C 1793.4794 2005.9781 1784.147 2007.1776 1780.0137 2009.7109 C 1778.0137 2011.0443 1776.9467 2012.9105 1777.0801 2015.3105 C 1777.2134 2020.2439 1780.1477 2033.8449 1781.3477 2035.0449 C 1781.881 2035.5783 1782.2793 2037.977 1782.2793 2040.377 C 1782.2793 2042.777 1783.0809 2045.1776 1783.8809 2045.7109 C 1784.8142 2046.3776 1789.3465 2046.6451 1794.1465 2046.5117 C 1800.4132 2046.2451 1804.146 2045.3121 1808.2793 2042.9121 C 1815.6126 2038.5121 1819.3474 2038.6454 1820.4141 2042.9121 C 1820.9474 2045.0454 1822.5469 2046.6449 1824.5469 2047.0449 C 1829.4802 2048.3783 1841.881 2046.5109 1847.3477 2043.7109 C 1850.0143 2042.3776 1853.0803 2041.5771 1854.0137 2041.8438 C 1852.5219 2043.4943 1861.765 2040.0847 1869.6133 2036.7773 C 1870.9466 2032.644 1869.0794 2031.178 1863.7461 2032.1113 C 1853.7461 2033.8447 1852.2793 2033.7116 1852.2793 2031.0449 C 1852.2793 2029.3116 1854.2809 2027.4443 1857.8809 2025.7109 C 1864.5475 2022.2443 1869.0798 2018.244 1868.1465 2016.7773 C 1867.0798 2014.9107 1861.2134 2015.312 1857.0801 2017.4453 C 1852.2801 2019.9786 1849.8801 2018.3776 1851.0801 2013.7109 C 1852.0134 2009.5776 1854.1477 2008.5108 1865.3477 2006.2441 C 1869.6143 2005.4441 1869.2207 2004.0209 1869.293 2002.8086 L 1865.4004 1999.625 C 1863.7403 1999.4413 1862.2595 1999.3481 1860.916 1999.3613 z M 1789.5098 2014.2617 C 1791.541 2014.3073 1792.9473 2015.2454 1792.9473 2016.9121 C 1792.9473 2019.8454 1788.4138 2022.7776 1785.4805 2021.7109 C 1783.2138 2020.7776 1782.9477 2016.1111 1785.3477 2015.1777 C 1786.8477 2014.5277 1788.291 2014.2344 1789.5098 2014.2617 z M 1790.9648 2028.1855 C 1795.0461 2028.2105 1801.8477 2029.2117 1805.3477 2030.5117 C 1812.281 2033.1784 1809.213 2037.1788 1798.6797 2038.9121 C 1793.7464 2039.7121 1792.6799 2039.3103 1789.6133 2036.377 C 1786.0133 2032.777 1785.347 2029.5784 1788.0137 2028.5117 C 1788.547 2028.2784 1789.6044 2028.1772 1790.9648 2028.1855 z "
     transform="scale(0.75)"
     id="path1065" />
  <path
     style="fill:#000000;stroke:none;stroke-width:0.1"
     d="m 1413.3898,1529.8271 c -0.4,13.4 -0.9,30.3 -1,37.6 -0.2,9.8 -0.6,13.7 -1.6,14.6 -3.8,3.5 -12,4.5 -42.9,5.1 -28.7,0.5 -48.5,-0.1 -76.5,-2.5 -17.7,-1.5 -80.9,-2.2 -87.5,-1 -4.5,0.8 -5.7,0.8 -6.5,-0.4 -0.7,-0.9 -0.9,-8.1 -0.7,-19.7 0.2,-11 -0.2,-21.6 -0.9,-26.4 -1.4,-9.8 1.4403,-9.3815 0.5403,-16.7815 -0.4,-3.3 0.1109,-7.4 -0.2891,-9 -0.5,-1.7 -0.726,-10.1924 -1.726,-17.5924 -2.3,-18.4 0.3663,-37.1691 -1.4219,-48.0464 2.5,-6.8 0.3967,-55.3234 -2.0033,-55.7234 -4,-0.7 -4.937,13.4722 -4.1076,23.9992 -0.5,12.7 2.6143,18.7739 1.3143,22.1739 -0.071,4.7739 -0.7076,7.7184 -0.7076,26.4184 0,18.7 -3.2588,20.2707 -4.5588,20.8707 -1.3,0.6 -72.0403,2.3815 -88.4403,2.3815 -86.3,-0.1 -101.39997,-0.5 -115.69997,-2.8 -5.2,-0.8 -8.8,0.2 -8.8,2.5 0,1 0.6,2.4 1.4,3 1.2,1 1.4,5.7 1,28.4 -0.3,15 -0.7,49.4 -0.9,76.4 -0.2,27.1 -0.6,49.7 -0.9,50.1 -0.3,0.5 -0.6,13.6 -0.7,29.2 -0.1,17.8 -0.7,31.1 -1.5,35.7 -1.1,6.8 -1.7,13.4 -1.5,17.4 0.1,1.7 3.7,5.9 5.1,5.9 1.8,0 4.3,-4.9 3.3,-6.3 -2,-2.5 -2.2,-6.6 -0.9,-15.3 0.9,-5.4 1.4,-16.5 1.4,-28.4 0,-10.7 0.5,-35.5 1.1,-55 0.6,-19.5 1,-46.5 0.9,-60 -0.1,-38.4 1,-74.3 2.5,-75.7 0.9,-0.9 2.5,-0.9 6.2,-0.2 8,1.6 177.24027,1.8185 191.64027,0.2185 5,-0.5 7.1,-0.4 7.8,0.5 0.6,0.7 1.2,4.3 1.3,8.1 0.3,6.6 -0.6403,19.4815 2.2597,35.3815 1.7,8.8 1.9,31.4 0.5,42.7 -0.6,4.1 -0.8,8.2 -0.5,9.1 1.1,3.2 5.9,4.3 14.8,3.2 10.4,-1.3 84.4,-0.8 91.7,0.6 3,0.5 10.2,1.4 16,1.8 13.6,1 74.9,0.9 90.9,-0.2 l 12.3,-0.8 1.9,-3.1 c 1.6,-2.6 1.8,-5 1.8,-16.6 -0.1,-7.4 -0.1,-14 0,-14.5 0.5,-2.9 0,-52.7 -0.5,-63.1 -0.6,-9.8 -0.4,-13 0.9,-16.8 1.3,-3.9 1.5,-8.1 1.1,-25.4 -0.3,-12.4 -1.1,-23.3 -2,-27.2 -2.1,-9.8 -2.6,-15 -2.8,-32.9 -0.1,-12.2 0.7359,-7.0215 -0.1641,-7.3215 -3.0699,-0.1382 -0.11,-2.2606 -6.3359,-1.3785 -0.5,0.3 -13.9,0.8 -29.7,1 -15.9,0.3 -31.2,1 -34.1,1.6 -3.3,0.7 -12.6,1 -26.5,0.6 -11.7,-0.3 -21.4,-0.5 -21.4,-0.5 -1.1,-0.6 -1.9,-66.5 -1.1,-91.5 0.2,-5.2 -0.3,-5.8 -4.3,-4.7 l -2.5,0.7 v 47.9 47.9 h -43.5 c -23.9,0 -46.5,-0.3 -50.1,-0.8 -6.3,-0.8 -6.6,-0.7 -9.5,1.9 l -0.9336,2.8092 1.8538,7.6899 c 1.9185,2.9294 3.0798,-2.2958 3.0798,-2.2958 1.2,-0.5 6.6,-3.0033 12.1,-2.7033 10.5,0.5 33.2,0.3 57,-0.5 l 14,-0.5 4.8,5.9 c 2.6,3.3 5.5,7.7 6.5,9.8 2.5,5.5 7.1,12.3 8.2,12.3 1.1,0 4.1,-4.7 8,-12.3 1.4,-2.6 4.9,-7.2 7.8,-10.3 l 5.2,-5.6 6.3,0.6 c 9.5,1.1 11.1,1.1 27.2,-0.2 19.3,-1.6 59.1,-2 60.3,-0.7 0.6,0.5 1.5,6.8 2,14 0.6,7.1 1.8,15.7 2.7,19 1.3,4.8 1.6,11.4 1.7,32.5 0,29 0.218,46.4883 -0.682,47.2883"
     id="path1063"
     inkscape:connector-curvature="0"
     inkscape:export-xdpi="144"
     inkscape:export-ydpi="144"
     sodipodi:nodetypes="ccccccccccccccccssccscccccccsccsscccccccccccccccccccccccccccccccccsccccccccccscccccccccc" />
  <path
     style="fill:#000000;stroke:none;stroke-width:0.1"
     d="m 1302.7898,1391.5271 c 1,0.7 -2.1,7.9 -4,9.1 -0.4,0.3 -1.5,2.2 -2.4,4.3 -1.8,4.4 -4.1,4.8 -5.7,0.9 -0.7,-1.5 -2.7,-4.8 -4.5,-7.3 -3.6,-5.1 -4,-6.5 -2,-7.3 1.7,-0.7 17.3,-0.5 18.6,0.3 z"
     id="path1061"
     inkscape:connector-curvature="0"
     inkscape:export-xdpi="144"
     inkscape:export-ydpi="144" />
  <path
     style="fill:#000000;stroke:none;stroke-width:0.1"
     inkscape:connector-curvature="0"
     id="path22"
     d="m 1503.2898,1372.1271 c -0.4,0.9 0.3,3.8 1.5,6.5 1.2,2.7 2.4,7 2.8,9.6 l 0.6,4.6 -3.5,-1.9 c -5.5,-2.9 -9.6,-8.3 -10,-12.8 -0.2,-3.2 -0.7,-4.1 -2.4,-4.3 -3.8,-0.5 -4.4,1.6 -3.3,11.9 0.5,5.1 0.6,12 0.3,15.2 l -0.7,5.9 2.9,-0.4 c 2.9,-0.3 2.9,-0.4 3.2,-7.6 0.2,-3.9 0.7,-7.2 1.2,-7.2 2.3,0 9.2,5.9 12,10.2 6.2,9.9 10.6,3.7 6,-8.4 -1.1,-2.8 -2.3,-8.5 -2.6,-12.6 -0.4,-4.2 -1.3,-8 -2.1,-8.8 -1.9,-1.8 -5.2,-1.8 -5.9,0.1 z"
     inkscape:export-xdpi="144"
     inkscape:export-ydpi="144" />
  <path
     style="fill:#000000;stroke:none;stroke-width:0.1"
     inkscape:connector-curvature="0"
     id="path24"
     d="m 1547.4898,1375.3271 c -0.4,0.5 -6.2,0.8 -12.9,0.8 h -12 l -1.8,3 c -2.2,3.8 -2.4,13 -0.4,17.9 1.1,2.7 2.8,4.2 6.7,6.2 5.3,2.7 6.4,2.7 16.6,0.8 2,-0.4 4.3,-0.1 5.7,0.6 2,1.1 2.8,0.9 5.4,-0.9 3.6,-2.6 3.9,-3.7 1,-4.6 l -2.1,-0.7 2.3,-2.4 c 1.2,-1.3 2.9,-2.4 3.7,-2.4 0.8,0 3.7,2 6.3,4.5 5.1,4.8 5.9,5.1 9,3.5 2.6,-1.4 2.4,-3.7 -0.3,-5.1 -4.9,-2.5 -10.7,-8 -10.1,-9.5 1.1,-2.9 5.5,-4.2 12.4,-3.7 l 6.6,0.6 1.3,5.6 c 0.7,3.1 1.7,6 2.2,6.5 0.4,0.6 0.8,2 0.8,3.2 0,4.8 6.7,5.7 9.1,1.3 1.2,-2.3 0.6,-3.4 -3.2,-5.3 -1.4,-0.7 -2.4,-2.2 -2.6,-4.1 -0.1,-1.7 -0.5,-4.5 -0.7,-6.3 l -0.5,-3.2 h 6.2 c 4.4,0 6.9,-0.6 8.5,-1.8 l 2.3,-1.8 -2,-1.8 c -1.5,-1.4 -2.8,-1.7 -4.8,-1.1 -4.5,1.2 -25.7,2.2 -26.7,1.3 -2.1,-1.8 -5.5,-0.7 -8.3,2.6 -3.7,4.4 -8.3,5.4 -8.3,1.7 0,-3.4 -7.3,-7.5 -9.4,-5.4 z m 3.7,8 c 4.8,3 4.9,6 0.3,10.6 -2.3,2.3 -4.3,3.4 -6.4,3.5 -1.7,0 -4,0.5 -5.1,1.1 -4.3,2.4 -14.5,-0.3 -15.7,-4.1 -0.9,-3 1.2,-3.8 9.6,-3.7 10,0.1 10,0.1 10,-1.2 0,-2.7 -3.6,-3.8 -11.7,-3.9 -7.5,0 -8.3,-0.2 -8.3,-1.9 0,-2.6 1.6,-2.9 13.5,-2.8 8.6,0.1 10.5,0.4 13.8,2.4 z"
     inkscape:export-xdpi="144"
     inkscape:export-ydpi="144" />
  <path
     style="fill:#000000;stroke:none;stroke-width:0.1"
     inkscape:connector-curvature="0"
     id="path26"
     d="m 1012.7898,1395.9271 c -1.4,0.7 -4,2.8 -5.7,4.8 l -3.2,3.6 1.9,2.5 c 2.7,3.4 5.4,10.5 4.7,12.3 -0.7,2 1.3,7.5 2.8,7.5 1.7,0 3.6,-2.1 3.6,-4.1 0,-4.9 5.8,-4.8 11.5,0.2 3.5,3.1 6.5,3.3 6.5,0.6 0,-2.1 -3.9,-6.7 -6.6,-7.7 -1.4,-0.6 -2.4,-1.8 -2.4,-2.9 0,-2.2 5.8,-6.8 6.9,-5.5 0.4,0.5 1.6,3.7 2.6,7.2 1,3.4 2.4,6.7 3.1,7.3 2.3,1.9 4.4,0.2 4.4,-3.5 0,-4.1 1.8,-4.8 8.3,-3.4 3.7,0.7 5,1.7 7.2,4.9 1.8,2.7 3.1,3.9 4.1,3.5 0.9,-0.3 1.8,-0.6 2,-0.6 0.2,0 0.4,-1.3 0.4,-2.8 0,-2.7 -3.4,-7.2 -5.6,-7.2 -0.5,0 -1.7,-0.7 -2.7,-1.4 -1.6,-1.3 -1.7,-1.5 -0.1,-4.3 5.5,-9.5 -8.1,-14.8 -20,-7.8 -5.2,3 -5.6,3.1 -5.6,0.4 0,-4 -11.8,-6.4 -18.1,-3.6 z m 13.1,6.2 c 1.9,2.2 0.8,4.7 -3,6.6 -3.1,1.6 -4,1.7 -7.2,0.6 -2.1,-0.8 -4,-1.6 -4.4,-1.9 -1.1,-1.2 0.8,-4.9 2.9,-5.8 3.5,-1.4 10.3,-1.2 11.7,0.5 z m 25.1,1.1 c 1.1,1.4 1,1.9 -1,3.5 -1.3,1.1 -3.2,1.9 -4.2,1.9 -1,0 -2.8,0.9 -4,2.1 -2.3,2.3 -3.6,1.6 -3.9,-2.1 -0.4,-4.2 -0.1,-4.8 2.8,-5.8 4.2,-1.6 8.8,-1.4 10.3,0.4 z"
     inkscape:export-xdpi="144"
     inkscape:export-ydpi="144" />
  <path
     style="fill:#000000;stroke:none;stroke-width:0.1"
     inkscape:connector-curvature="0"
     id="path28"
     d="m 955.38983,1396.4271 c -7.6,2.5 -12.2,13 -9.6,22.1 1.8,6.6 20.1,9.8 26.3,4.6 3.7,-3.1 4.2,-3.1 6.2,0 3.6,5.6 15.7,5.3 20.9,-0.5 2.49997,-2.9 2.69997,-3.6 2.69997,-12.5 0,-10.3 -0.8,-11.8 -4.99997,-9.5 -1.8,0.9 -2.1,1.7 -1.5,3.8 1.7,6.7 1.7,11.8 -0.2,13.9 -2.8,3.4 -8.2,3.9 -11.7,1.2 -2.6,-2 -2.8,-2.7 -2.3,-6.8 0.3,-2.5 0.9,-5.6 1.2,-6.8 1,-3 -2.7,-5 -4.9,-2.7 -0.9,0.9 -1.4,2 -1,2.5 0.3,0.5 0.3,2.7 -0.1,4.8 -0.6,3.4 -1.3,4.2 -5.7,6.5 -9.9,5.1 -22.3,1.7 -20.4,-5.7 1.5,-5.8 9.7,-10.9 14.2,-8.8 6.4,2.9 9.4,0.1 4.4,-4.1 -3.5,-2.8 -8.5,-3.6 -13.5,-2 z"
     inkscape:export-xdpi="144"
     inkscape:export-ydpi="144" />
  <path
     style="fill:#000000;stroke:none;stroke-width:0.1"
     inkscape:connector-curvature="0"
     id="path30"
     d="m 1126.9898,1397.4271 c -1.3,0.7 -3.2,1 -4.1,0.7 -0.9,-0.3 -2.3,0.1 -3,1 -1,1.2 -0.8,2.5 1,6.9 3.2,8.1 1.7,9.7 -4.3,4.3 -11.3,-10.1 -14,-11.4 -16.8,-8.1 -1,1.3 -1,1.9 0,3.7 0.7,1.1 1.6,5.2 2,9.1 0.5,5.8 0.9,7.1 2.5,7.4 2.7,0.6 3.9,-1.2 3.8,-5.4 -0.1,-2 0.1,-4.1 0.4,-4.5 0.7,-1.2 5.1,1.2 9.9,5.5 2.2,2 5,3.6 6.1,3.6 1.8,0 2.2,-0.8 2.7,-5.3 0.4,-2.8 0.2,-6.9 -0.2,-9 -1,-4.4 -0.4,-5 4.3,-4.2 l 3.3,0.7 0.5,6.9 c 0.6,7.6 1.8,9.9 5.5,9.9 3.3,0 3.8,-2.1 1.4,-6.9 -2.4,-4.6 -2.7,-8.4 -0.8,-9.9 0.7,-0.6 3.5,-1.2 6.2,-1.4 4.3,-0.3 5,-0.6 5.3,-2.6 0.2,-1.3 -0.3,-2.5 -1.3,-2.8 -3.2,-1.3 -21.8,-0.9 -24.4,0.4 z"
     inkscape:export-xdpi="144"
     inkscape:export-ydpi="144" />
  <path
     style="fill:#000000;stroke:none;stroke-width:0.1"
     inkscape:connector-curvature="0"
     id="path32"
     d="m 1074.4898,1398.1271 c -3.6,3.7 -1.3,5 8.4,4.7 4.1,-0.2 8.3,-0.5 9.3,-0.8 1.9,-0.6 2.4,-4.4 0.5,-4.4 -0.7,-0.1 -4.7,-0.3 -8.9,-0.6 -6.2,-0.4 -8,-0.2 -9.3,1.1 z"
     inkscape:export-xdpi="144"
     inkscape:export-ydpi="144" />
  <path
     style="fill:#000000;stroke:none;stroke-width:0.1"
     inkscape:connector-curvature="0"
     id="path34"
     d="m 1067.1898,1410.1271 c 1.2,12.4 4.8,16 15.8,15.8 8,-0.1 11.3,-1.9 9.3,-5 -2,-3.1 -4.4,-4 -5.8,-2.1 -2.5,3.4 -11.9,1.7 -13.1,-2.3 -1,-2.9 0.8,-3.9 7.5,-3.9 7.2,0 13,-1.6 13,-3.7 0,-1.3 -1.4,-1.5 -10.2,-1.2 -9.9,0.4 -10.3,0.3 -11.3,-1.9 -0.6,-1.4 -1.8,-2.2 -3.4,-2.2 -2.3,0 -2.4,0.1 -1.8,6.5 z"
     inkscape:export-xdpi="144"
     inkscape:export-ydpi="144" />
  <path
     style="fill:#000000;stroke:none;stroke-width:0.1"
     inkscape:connector-curvature="0"
     id="path36"
     d="m 1474.3898,1419.8271 c -1.6,0.6 -3.6,1.5 -4.2,2.1 -1.4,1 -1.7,6.5 -0.5,8.4 0.8,1.2 10.5,5 16.7,6.4 5.3,1.2 11.5,4 11.5,5.1 0,0.5 -1.6,1.6 -3.6,2.4 -3.4,1.4 -3.8,1.3 -9,-1.3 -5.2,-2.6 -5.5,-2.6 -7.2,-1 -1.6,1.7 -1.5,2 2.1,5.4 3.9,3.5 4,3.5 11.4,3.1 6.4,-0.3 7.8,-0.7 9.4,-2.7 2.4,-2.9 2.5,-8.3 0.2,-10.3 -3,-2.6 -7.5,-4.5 -13.8,-5.8 -13.7,-2.8 -15.5,-7 -3,-7 6.3,0 9.3,-2.2 6,-4.6 -2.2,-1.6 -11.6,-1.7 -16,-0.2 z"
     inkscape:export-xdpi="144"
     inkscape:export-ydpi="144" />
  <path
     style="fill:#000000;stroke:none;stroke-width:0.1"
     inkscape:connector-curvature="0"
     id="path38"
     d="m 1606.8898,1419.6271 c -8.4,1.2 -11,2.8 -9,6 0.6,1 2.3,1 8.1,0.2 13.8,-2 20.6,-4.2 19.4,-6.3 -0.7,-1 -10.4,-1 -18.5,0.1 z"
     inkscape:export-xdpi="144"
     inkscape:export-ydpi="144" />
  <path
     style="fill:#000000;stroke:none;stroke-width:0.1"
     inkscape:connector-curvature="0"
     id="path40"
     d="m 1501.6898,1423.6271 c -1,0.6 -1.8,1.9 -1.8,2.9 0,3.2 2.4,4.2 7.9,3.5 l 5.1,-0.7 v 2.9 c 0.1,4 4.6,16.7 6.3,17.8 2.2,1.4 4.7,0 4.7,-2.6 0,-1.3 -1.1,-4.3 -2.5,-6.7 -2.7,-4.6 -3.3,-9.6 -1.2,-10.3 0.6,-0.3 3.2,-0.5 5.7,-0.7 6.6,-0.3 8,-0.9 8,-3.7 0,-2.4 -0.1,-2.4 -9.4,-2.4 -5.1,0 -12,-0.2 -15.2,-0.5 -3.5,-0.3 -6.6,-0.1 -7.6,0.5 z"
     inkscape:export-xdpi="144"
     inkscape:export-ydpi="144" />
  <path
     style="fill:#000000;stroke:none;stroke-width:0.1"
     inkscape:connector-curvature="0"
     id="path42"
     d="m 1557.4898,1426.2271 c -2.7,2.6 0.1,4.6 7.6,5.3 l 6.3,0.6 1,5.7 c 0.6,3.1 1.6,6.3 2.3,7 0.6,0.6 1.2,1.8 1.2,2.4 0,1.7 1.5,2.5 3.3,1.8 2.7,-1 2.7,-4.5 0.1,-9 -1.4,-2.4 -2.4,-5.4 -2.2,-6.6 0.3,-2 1,-2.4 6.3,-2.9 3.3,-0.3 6.3,-0.4 6.8,-0.2 0.4,0.2 0.7,2.2 0.7,4.4 0,5.7 2.9,13.7 5.4,15.1 2.4,1.3 14.5,1.3 19.1,0 2.4,-0.7 3.1,-1.4 3.3,-4.1 l 0.3,-3.3 -3.8,0.6 c -2.1,0.4 -6.8,0.9 -10.5,1.2 -6.5,0.6 -6.8,0.5 -7.7,-1.7 -0.5,-1.3 -0.7,-2.7 -0.4,-3.2 0.2,-0.4 3.7,-0.7 7.8,-0.7 7.8,0 10.5,-1.3 10.5,-5.1 0,-2.7 -2.3,-3.3 -5.7,-1.6 -4.2,2.2 -13.6,1 -14.1,-1.8 -0.2,-1.1 -0.9,-2.6 -1.4,-3.2 -1.1,-1.4 -0.3,-1.3 -19.9,-1.9 -12.8,-0.4 -14.9,-0.3 -16.3,1.2 z"
     inkscape:export-xdpi="144"
     inkscape:export-ydpi="144" />
  <path
     style="fill:#000000;stroke:none;stroke-width:0.1"
     inkscape:connector-curvature="0"
     id="path44"
     d="m 1538.0898,1426.9271 c -0.6,0.7 -1.4,3.2 -1.8,5.6 -0.4,2.3 -1.7,5.8 -3,7.6 -2.4,3.5 -2.7,4.7 -2.5,7.8 0.1,1.4 0.8,1.8 2.7,1.5 2,-0.2 2.9,-1.2 3.9,-4.1 0.7,-2.1 1.5,-4 1.7,-4.1 0.1,-0.2 3.4,0 7.1,0.4 6.1,0.7 7.3,1.2 10.6,4.4 3.8,3.7 7.7,4.7 8.7,2.2 0.7,-1.7 -1.2,-5.6 -2.7,-5.6 -0.6,0 -3.6,-2.6 -6.8,-5.8 -10.5,-10.4 -15.3,-13.1 -17.9,-9.9 z m 7.6,8.4 c 0.2,0.8 -0.5,1.3 -1.7,1.3 -1.2,0 -2.1,-0.6 -2.1,-1.6 0,-1.8 3.1,-1.5 3.8,0.3 z"
     inkscape:export-xdpi="144"
     inkscape:export-ydpi="144" />
  <path
     style="fill:#000000;stroke:none;stroke-width:0.1"
     inkscape:connector-curvature="0"
     id="path46"
     d="m 1099.3898,1435.1271 c -2.7,1.4 -5.5,2.5 -6.1,2.5 -0.7,0 -3.1,0.9 -5.5,2 -3.6,1.6 -6.6,2 -17,2 -13.3,0 -15.7,0.8 -14.3,4.5 0.6,1.4 1.5,1.6 5,1 3.7,-0.5 4.4,-0.3 5.8,1.7 0.9,1.2 1.6,3.9 1.6,5.9 0,4.4 2.9,8.5 5.4,7.6 2.7,-1.1 3,-3.6 0.7,-6.1 -1.7,-1.8 -2.2,-3.3 -1.9,-6.2 0.3,-3.3 0.7,-3.9 2.9,-4.2 3.2,-0.4 5,1.7 5.1,6 0.1,4 1.9,8.3 5.1,12.2 2,2.5 3.1,2.9 9.3,3.3 7.7,0.6 11.4,-0.6 11.4,-3.5 0,-4 -4.5,-5.3 -10.9,-3.1 -2.8,1 -3.7,0.9 -5.9,-0.8 -1.4,-1 -2.7,-2.4 -3,-3.1 -0.6,-1.8 6.5,-4.2 14.6,-4.9 4.6,-0.4 8.1,-1.2 9.4,-2.3 1.9,-1.5 1.9,-1.7 0.3,-3.3 -2,-2.1 -3.6,-2.1 -9.7,-0.2 -6.9,2 -17.3,3.1 -16.4,1.6 0.8,-1.2 3.9,-2.8 15.6,-7.5 5.8,-2.4 7.5,-3.6 7.5,-5.1 0,-2.9 -3.2,-2.9 -9,0 z"
     inkscape:export-xdpi="144"
     inkscape:export-ydpi="144" />
  <path
     style="fill:#000000;stroke:none;stroke-width:0.1"
     inkscape:connector-curvature="0"
     id="path48"
     d="m 988.18983,1436.7271 c -6,2.3 -9.3,5.9 -9.3,10.1 0,2.4 0.7,3.2 4.3,4.8 2.3,1.1 5.8,2 7.7,2.1 5.9,0.1 15.39997,3.2 15.79997,5.1 0.4,2.3 -4.3,5.2 -8.49997,5.2 -2.7,0 -4,-0.7 -5.5,-2.7 -2.4,-3.2 -4.8,-3.4 -7.4,-0.6 -2.3,2.5 -1.2,4.7 3.7,7.1 6.9,3.5 17.79997,1.7 21.19997,-3.5 2.3,-3.5 2.1,-6.1 -0.5,-10 -1.3,-1.8 -2.3,-3.3 -2.3,-3.4 -0.1,-0.1 -4.3,-0.7 -9.49997,-1.4 -14.7,-1.7 -16.4,-3.5 -7.5,-7.5 4.6,-2.2 6.1,-2.4 8.6,-1.5 5.19997,1.8 7.79997,-0.8 4.09997,-4.2 -2.5,-2.3 -8.49997,-2.1 -14.89997,0.4 z"
     inkscape:export-xdpi="144"
     inkscape:export-ydpi="144" />
  <path
     style="fill:#000000;stroke:none;stroke-width:0.1"
     inkscape:connector-curvature="0"
     id="path50"
     d="m 1042.6898,1441.1271 c -2.9,1.6 -3.5,3 -3.7,8.5 -0.1,5.6 -2.2,12 -4.3,13.4 -2.7,1.9 -2.1,6 0.9,6.4 1.8,0.3 2.8,-0.8 5.4,-5.2 2.9,-5.2 3.3,-5.6 6.8,-5.6 4.6,0 6.9,1.6 7.9,5.5 0.7,2.3 1.4,3 3.3,3 2.2,0 2.4,-0.4 2.3,-4.4 -0.1,-3.1 -0.7,-4.8 -2.1,-6 -1.2,-0.9 -3.1,-4 -4.3,-6.9 -2,-4.6 -6.9,-10.3 -8.8,-10.2 -0.4,0.1 -1.9,0.7 -3.4,1.5 z m 6.2,9 c 1.6,2 0.1,3.9 -2.6,3.3 -2.7,-0.5 -3.2,-4.8 -0.6,-4.8 1.1,0 2.5,0.7 3.2,1.5 z"
     inkscape:export-xdpi="144"
     inkscape:export-ydpi="144" />
  <path
     style="fill:#000000;stroke:none;stroke-width:0.1"
     inkscape:connector-curvature="0"
     id="path52"
     d="m 1025.5898,1443.2271 c -0.3,0.3 -4.2,0.6 -8.5,0.6 -8.6,-0.1 -11.8,1.1 -10.6,4.1 0.4,1 1.7,1.7 3.4,1.7 5.6,0 6.7,1.3 10.1,12 1,3.3 2,4.6 3.6,4.8 3.6,0.5 4.1,-3.8 0.9,-9.2 -4.1,-7 -3.6,-8.1 4.9,-8.8 5.3,-0.5 4.3,-5.7 -1.1,-5.8 -1.1,0 -2.3,0.3 -2.7,0.6 z"
     inkscape:export-xdpi="144"
     inkscape:export-ydpi="144" />
  <path
     style="fill:#000000;stroke:none;stroke-width:0.1"
     inkscape:connector-curvature="0"
     id="path54"
     d="m 1228.3101,1449.6834 c -4.4,2 -6.5,5.1 -6.5,9.5 0,5.7 4.2,8.5 13.1,8.5 8.2,0 13.3,4.3 10.8,9 -1.4,2.7 -4.3,2.5 -11.7,-0.6 -6.8,-2.9 -9.6,-2.7 -9.1,0.8 0.2,1.8 1.9,2.8 7.8,5 11.5,4.2 12.6,4.3 15.5,1.4 4.9,-4.9 2.4,-17.2 -4.1,-19.6 -1.4,-0.6 -4.9,-1 -7.7,-1 -5.6,0 -10,-2.1 -9.1,-4.4 0.3,-0.8 2,-2.1 3.7,-2.9 2.8,-1.4 3.4,-1.4 5.8,0 1.5,0.9 3.3,1.3 4.1,1 2.2,-0.8 2.8,-4.3 1.1,-6.6 -1.8,-2.7 -8.2,-2.7 -13.7,-0.1 z"
     inkscape:export-xdpi="144"
     inkscape:export-ydpi="144" />
  <path
     style="fill:#000000;stroke:none;stroke-width:0.1"
     inkscape:connector-curvature="0"
     id="path56"
     d="m 1287.6101,1452.1834 c -1.9,1 -2.9,2.5 -3.3,5.2 -0.3,2.1 -1.1,6.7 -1.7,10.3 -0.6,3.6 -1.5,7.6 -2,8.9 -1.2,3.1 0.6,5.3 4,4.9 2.2,-0.3 2.7,-0.9 3.1,-4.3 l 0.5,-3.9 5.3,0.3 c 2.9,0.1 5.9,-0.3 6.7,-0.9 1.4,-1.2 3.1,0.3 2.1,1.9 -0.3,0.5 0.4,2 1.5,3.5 2,2.6 6.2,3.5 7.4,1.6 0.7,-1.1 -4.2,-11.5 -7.4,-15.6 -1.2,-1.6 -4,-5.3 -6.2,-8.2 -4.3,-5.5 -5.7,-6 -10,-3.7 z m 9.4,10.7 c 3.3,4.7 2.6,6.2 -2.6,5.3 -4.7,-0.9 -6.1,-2.6 -5.2,-6.5 1,-4.4 4.3,-4 7.8,1.2 z"
     inkscape:export-xdpi="144"
     inkscape:export-ydpi="144" />
  <path
     style="fill:#000000;stroke:none;stroke-width:0.1"
     inkscape:connector-curvature="0"
     id="path58"
     d="m 1308.6101,1453.2834 c -5.9,3 -3.8,6.6 4.4,7.4 l 5.1,0.5 1.1,6.5 c 1.5,9.4 6,14.8 8.4,10.1 0.8,-1.4 0.5,-2.9 -1,-6 -2.5,-5.3 -3.4,-9.7 -2.1,-10.5 0.6,-0.4 2.9,-0.4 5,0 l 4,0.6 0.6,5.8 c 0.9,7.4 3,11.8 6.2,12.6 2.5,0.6 8.8,0.1 17.4,-1.3 3.9,-0.7 4.5,-1.1 4.5,-3.3 0,-3.7 -4.4,-4.9 -8.8,-2.5 -2.5,1.3 -4.7,1.7 -8.1,1.3 -5.3,-0.6 -7.2,-1.9 -6.3,-4.2 0.5,-1.3 2.3,-1.6 8.2,-1.6 8.5,0 11.5,-1.1 11.5,-4.2 0,-1.9 -0.4,-2 -5.9,-1.4 -3.2,0.4 -7.7,0.4 -10,0 -3.8,-0.6 -4.2,-0.9 -3.9,-3.3 0.3,-3.4 -1,-5.5 -2.6,-4.2 -1.4,1.2 -19.9,-0.9 -23.1,-2.6 -1.5,-0.8 -2.7,-0.8 -4.6,0.3 z"
     inkscape:export-xdpi="144"
     inkscape:export-ydpi="144" />
  <path
     style="fill:#000000;stroke:none;stroke-width:0.1"
     inkscape:connector-curvature="0"
     id="path60"
     d="m 1344.2101,1453.0834 c -1.8,1.3 -1.9,1.6 -0.4,3.1 1.9,2 10.1,3 17.3,2.1 6,-0.8 8.9,-2.7 7.9,-5.3 -0.5,-1.3 -1.6,-1.4 -7.2,-0.8 -8.2,0.9 -7.9,0.9 -12.1,0.1 -2.4,-0.5 -4.1,-0.3 -5.5,0.8 z"
     inkscape:export-xdpi="144"
     inkscape:export-ydpi="144" />
  <path
     style="fill:#000000;stroke:none;stroke-width:0.1"
     inkscape:connector-curvature="0"
     id="path62"
     d="m 1248.9101,1458.2834 c -0.8,0.6 -1.3,1.9 -1,3 0.2,1.5 1.3,2 5.3,2.2 2.8,0.2 5.3,0.7 5.8,1.1 0.4,0.4 1,3.4 1.2,6.7 0.9,9.1 1.3,10.3 4,11 4.9,1.2 5.8,-1.7 2.5,-8.1 -2.3,-4.4 -2.6,-8.5 -0.8,-10.3 0.7,-0.7 3,-1.2 5.3,-1.2 4.8,0 7.9,-1.8 7,-4.1 -0.5,-1.4 -2.7,-1.6 -14.2,-1.5 -7.9,0.1 -14.2,0.5 -15.1,1.2 z"
     inkscape:export-xdpi="144"
     inkscape:export-ydpi="144" />
  <path
     style="fill:#ffdd55;stroke:none;stroke-width:0.75px;stroke-linecap:butt;stroke-linejoin:miter;stroke-opacity:1"
     d="m 1105.8562,2002.8823 84.0439,-155.1104 317.1524,0.7095 -0.7521,156.8727 -75.7013,4.0169 z"
     id="path1093"
     inkscape:connector-curvature="0"
     inkscape:export-xdpi="144"
     inkscape:export-ydpi="144" />
  <path
     style="fill:#000000;stroke:none;stroke-width:0.1"
     inkscape:connector-curvature="0"
     id="path64"
     d="m 1448.3898,1468.7271 c -2.2,1.1 -5,2.7 -6.2,3.5 -6.2,3.9 -11.2,6.2 -14.8,6.8 -3.6,0.6 -4.2,1.1 -5.2,4.4 -1.6,5 -0.3,6.8 5.9,8.7 2.8,0.8 5.8,2.1 6.7,2.9 0.9,0.8 3.7,2.1 6.3,3 2.6,0.8 6.7,2.5 9.2,3.7 8,3.7 8.9,2.5 7.3,-10.2 -0.8,-6.9 -0.6,-7.1 9.4,-5.8 6.6,0.9 70,1.2 141.3,0.6 l 24.9,-0.2 0.5,15.5 c 0.3,8.5 0.4,16.6 0.4,18 -0.5,9.2 0.1,33.8 0.9,35.8 0.5,1.3 0.9,10.4 0.8,20.1 -0.1,9.7 0.4,23.9 1.2,31.6 1.5,15.5 1.7,54.7 0.6,95 -0.8,27.6 -2,40.9 -3.8,43.1 -0.9,1.1 -4.6,1.4 -15.7,1.4 -12.1,0 -14.8,-0.3 -16.4,-1.7 -1.7,-1.5 -4.2,-1.5 -32.1,-0.4 -16.6,0.7 -36.9,1.4 -45.2,1.4 l -15,0.2 0.3,-15.7 c 0.2,-9.5 -0.1,-17.9 -0.9,-21.5 -0.6,-3.2 -1.2,-8.9 -1.3,-12.7 -0.2,-5.8 -0.6,-7.1 -2.5,-8.7 -2.8,-2.3 -5,-2.4 -7.8,-0.4 -2.5,1.8 -17.6,2.4 -63.3,2.8 -38.4,0.2 -61.8,-0.2 -90,-1.7 -13.8,-0.7 -23.9,-0.8 -28.3,-0.2 -6.7,0.9 -17.7,0 -33.2,-2.5 -3.3,-0.6 -27.8,-1.2 -54.5,-1.5 -26.7,-0.3 -51.4,-0.9 -55,-1.4 -5.2,-0.8 -6.7,-0.7 -8,0.5 -1.3,1.2 -2.7,1.3 -6.7,0.6 -5.1,-1 -51.2,-0.6 -52.2,0.5 -0.9,0.9 -1.9,17.3 -2.6,43.4 -0.7,25.4 -0.9,27 -2.7,25.2 -0.7,-0.7 -2.3,-1.2 -3.6,-1.2 -3.5,0 -10.4,-2.1 -12.4,-3.8 -1.8,-1.5 -16.6,-8.2 -18.1,-8.2 -0.5,0 -2,-0.9 -3.4,-2 -2,-1.6 -2.9,-1.7 -4.5,-0.9 -1.8,1 -2,1.8 -1.4,7 0.3,3.3 0.9,7.1 1.2,8.6 l 0.7,2.6 -5.4,-0.6 c -19.1,-2.3 -25.5,-2.8 -34.9,-2.7 -12.8,0.1 -36.59997,-0.8 -39.89997,-1.6 -2.2,-0.5 -2.3,-0.8 -2,-8.6 0.3,-6.8 0.1,-8.2 -1.3,-9.2 -1.4,-0.8 -2.1,-0.7 -3.4,0.5 -2.1,2.2 -2.8,17.5 -0.9,20.5 2.1,3.2 8.4,4.2 32.99997,5 58.8,1.8 56,1.6 56.3,4.2 0.2,1.4 -0.5,3.3 -1.8,4.7 -4.9,5.2 0.1,8.3 6.7,4.2 2.1,-1.3 5.6,-3 7.8,-3.7 2.2,-0.7 5.1,-1.8 6.5,-2.5 1.4,-0.7 4.3,-1.8 6.5,-2.5 2.2,-0.7 6.6,-2.6 9.9,-4.2 3.2,-1.6 6,-2.8 6.2,-2.5 1.3,1.3 -0.2,53.3 -2.3,78.2 -1.2,15.7 -1.4,29.4 -0.9,79.5 0.4,33.3 0.9,62.1 1.1,64 0.3,1.9 0.8,9 1.1,15.7 0.8,14.3 1.4,15.4 7.2,13.3 3.6,-1.3 16.8,-1.5 27.7,-0.4 6.4,0.7 23.5,1.1 79.5,1.9 142.8,2 199.6,3.2 211.4,4.5 9.3,1.1 42.8,-0.2 51.6,-2 2.5,-0.5 10.2,-1.3 17.2,-1.9 6.9,-0.5 13.6,-1.5 14.8,-2.1 2,-1.1 2.1,-1.7 1.4,-5.8 -0.4,-2.6 -0.8,-11.5 -0.9,-19.7 -0.1,-8.3 -0.3,-20.2 -0.4,-26.5 -0.2,-6.3 -0.2,-15.4 -0.2,-20.2 l 0.1,-8.7 12.3,0.6 c 6.7,0.3 21.2,0.4 32.2,0.2 11,-0.2 39.6,-0.3 63.5,-0.4 40.4,0 43.8,0.1 46.3,1.8 2.6,1.7 2.8,2.2 2.1,6.3 -0.7,5.1 0.6,7.4 4.2,7.4 1.4,0 3.1,-1.1 4.4,-2.9 1.1,-1.7 3.1,-3.3 4.3,-3.7 1.2,-0.3 2.9,-1.2 3.7,-1.9 0.8,-0.8 3.8,-1.9 6.5,-2.6 2.8,-0.6 6.8,-2.3 9.1,-3.5 2.2,-1.3 5,-2.4 6.1,-2.4 4.4,0 8.3,-2.1 8.3,-4.5 0,-3.2 -1.3,-3.9 -9,-4.7 -11.8,-1.3 -26.9,-4.4 -33.2,-6.9 -5.3,-2.1 -8.4,-2.4 -9.2,-1 -0.3,0.4 0.1,3.4 0.9,6.6 0.9,3.2 1.4,5.9 1.3,6.1 -0.2,0.1 -4.6,-0.1 -9.8,-0.5 -5.2,-0.4 -23.7,-0.6 -41,-0.3 -93.6,1.3 -101.7,1.3 -102.9,-0.2 -0.8,-1 -1.1,-3.6 -0.7,-7.8 2.8,-34.5 3.3,-93.6 1,-133.2 -0.8,-13.2 -1.2,-24.1 -1,-24.3 0.2,-0.2 5,-0.6 10.7,-0.8 5.7,-0.1 12,-0.5 13.9,-0.9 1.9,-0.3 17.4,-0.8 34.5,-1.1 17,-0.4 31.1,-0.8 31.3,-1 0.2,-0.2 1.2,0.5 2.2,1.5 1.6,1.6 3.6,1.8 18.7,1.7 l 16.8,-0.2 1.1,-4 c 4,-14.2 4.2,-17.6 5,-92.5 0.3,-28.9 0,-40.6 -1.1,-51 -0.8,-7.4 -1.5,-20.9 -1.5,-30 0,-9.1 -0.3,-20.1 -0.8,-24.5 -1.4,-12.2 -0.9,-57.2 0.6,-58.7 1.8,-1.8 1.5,-4.6 -0.8,-7.5 -1.1,-1.4 -2,-3.2 -2,-3.9 0,-0.7 -0.8,-1.5 -1.8,-1.8 -0.9,-0.3 -13.4,-0.3 -27.7,0.1 -37,0.9 -149.7,0.9 -151.7,0.1 -1.3,-0.6 -1.6,-2 -1.5,-6.5 0.2,-5.1 0,-5.8 -1.8,-6.1 -1.1,-0.1 -3.8,0.7 -6,1.9 z m -9,18.9 c 0.8,1.3 -2,2.4 -4.1,1.6 -2,-0.8 -0.9,-2.6 1.6,-2.6 1,0 2.2,0.5 2.5,1 z m 12.2,6.6 c -0.3,0.3 -1.2,0.4 -1.9,0.1 -0.8,-0.3 -0.5,-0.6 0.6,-0.6 1.1,-0.1 1.7,0.2 1.3,0.5 z m -281.5,194.3 c 1.3,0.5 23,1.2 48.3,1.6 25.3,0.4 51.2,1.1 57.5,1.6 6.3,0.6 26.1,1.4 44,2 17.9,0.5 35.4,1.2 39,1.5 13.8,1.1 126.4,0.6 131,-0.6 7.9,-2 8.5,-2.1 9.8,-1.2 0.8,0.5 1.7,3.6 2.1,6.8 0.4,3.3 1,6.5 1.5,7.2 0.4,0.7 0.7,9.9 0.7,20.5 -0.1,10.5 0.4,24.1 0.9,30.2 1,11 2.5,62.9 2.5,86.5 0,6.9 -0.4,18.3 -0.9,25.5 -0.5,7.1 -1,39.4 -1.1,71.6 -0.1,32.2 -0.5,59 -0.8,59.6 -0.4,0.5 -4.1,1.3 -8.4,1.7 -4.3,0.3 -11.4,1.1 -15.8,1.7 -13,1.8 -33.7,2.4 -54,1.7 -10.4,-0.4 -43.3,-1 -73,-1.3 -29.7,-0.3 -56.5,-1 -59.5,-1.5 -3.1,-0.5 -26.8,-0.9 -54,-0.9 -26.7,0.1 -51,-0.2 -54,-0.5 -7.9,-1 -55.6,-2.8 -67.7,-2.6 l -10.3,0.2 -0.1,-3.4 c -0.1,-1.8 -0.2,-4.7 -0.4,-6.5 -2,-24 -2.3,-130.9 -0.5,-158.4 0.6,-8 1.5,-41 2,-73.5 0.5,-32.4 1,-59 1,-59.2 0,-0.1 0.7,-0.2 1.5,-0.2 2.1,0 4.4,2.9 8.6,10.8 2.9,5.4 4.1,6.8 6.3,7 4.1,0.5 4.2,-2.1 0.4,-7.5 -1.9,-2.7 -4,-5.9 -4.7,-7.4 -2,-4 -7,-8.9 -9.2,-8.9 -2,0 -2.6,-1.5 -0.9,-2.5 1.6,-1 42.1,-1.2 45.8,-0.2 2.5,0.6 3.9,0.4 5.5,-0.7 2.6,-1.8 3.8,-1.9 6.9,-0.7 z m -103.4,64.7 c -0.9,0.9 -2.1,1.3 -2.7,1 -2,-1.3 -1.1,-2.6 1.6,-2.6 2.5,0 2.6,0.1 1.1,1.6 z"
     inkscape:export-xdpi="144"
     inkscape:export-ydpi="144" />
  <path
     style="fill:#000000;stroke:none;stroke-width:0.1"
     inkscape:connector-curvature="0"
     id="path66"
     d="m 1130.5898,1724.3271 c -1.5,1.4 -0.5,4.3 3.1,8.9 2.1,2.7 4.8,7.1 6,9.9 3.4,7.4 12.2,13.1 13.8,9 0.4,-0.9 -0.8,-3 -3.1,-5.3 -2,-2 -5.2,-6.9 -7.2,-10.7 -5,-10 -9.9,-14.6 -12.6,-11.8 z"
     inkscape:export-xdpi="144"
     inkscape:export-ydpi="144" />
  <path
     style="fill:#000000;stroke:none;stroke-width:0.1"
     inkscape:connector-curvature="0"
     id="path68"
     d="m 1224.6023,1721.7193 c -0.4,0.7 1.3,9.9 3.9,21.9 0.6,2.8 0.5,3.3 -1.1,3.3 -1.1,0 -3.8,-1.6 -6.2,-3.4 -2.4,-1.9 -4.7,-3.6 -5.1,-3.8 -2,-0.8 -8.1,-12.1 -7.6,-13.9 0.5,-1.5 0.1,-1.9 -1.5,-1.9 -1.3,0 -1.8,0.4 -1.5,1.1 0.4,0.6 -0.2,2.1 -1.4,3.3 l -2.1,2.3 2.1,4.8 c 1.7,3.9 2,6.1 1.7,12.4 -0.3,4.2 -0.8,8.3 -1.2,9.2 -0.4,0.9 0.1,2.5 1.2,3.9 l 1.9,2.3 2.1,-2.1 c 1.9,-1.9 2.1,-3 1.7,-9.7 -0.2,-4.1 -0.2,-7.5 0.1,-7.5 1.5,0 8.6,4.3 9,5.5 0.3,0.8 1.6,1.7 2.7,2.1 1.2,0.4 4.1,2.7 6.4,5.3 4.1,4.4 4.2,4.5 6.2,2.7 1.9,-1.7 2,-1.7 3.5,0.7 2.4,3.5 5.8,4.7 13.7,4.7 10.1,0 13,-1.9 8.9,-6 -1.8,-1.8 -2.2,-1.8 -6.7,-0.5 -3.7,1.1 -5.6,1.2 -8.1,0.4 -3.2,-1 -5.8,-4.2 -4.8,-5.8 0.3,-0.4 4.7,-1.1 9.7,-1.5 10.4,-0.8 10.9,-1 10.9,-3.6 0,-2.6 -3.4,-3.4 -9,-2.1 -5.6,1.3 -10.7,1.4 -11.4,0.2 -0.4,-0.5 -0.2,-2.1 0.4,-3.5 0.9,-2.5 1.2,-2.6 9.2,-2.6 11.3,0.1 14.7,1 19.8,5.8 l 4.4,4.1 -1.7,3.6 c -0.9,1.9 -1.7,4.5 -1.7,5.5 0,2.7 3.4,2.6 5.9,-0.1 2.3,-2.5 5.6,-1.9 6.4,1.2 0.4,1.5 1.2,2 2.9,1.7 3.6,-0.5 3.4,-3.9 -0.7,-8.2 -4,-4.2 -4.1,-4.8 -1.7,-9.6 1.6,-3.2 2.1,-3.5 5.7,-3.3 2.2,0.2 4.5,0.5 5.1,0.7 0.6,0.2 1.6,3.8 2.3,8 1.1,6.7 1.5,7.7 3.7,8.2 4.8,1.2 7.1,-1.9 4,-5.5 -1.5,-1.9 -3.5,-9 -2.8,-10.9 0.2,-0.8 2.9,-1.2 8.3,-1.2 6.6,0 8.2,-0.3 10,-2.1 2.9,-2.9 1.9,-4.4 -2.7,-4.3 -2.1,0.1 -10.5,0.2 -18.6,0.4 l -14.8,0.3 -2.2,3.6 c -1.2,2 -2.6,4.4 -3,5.4 -0.5,1.2 -1.6,1.7 -3,1.5 -1.9,-0.2 -2.3,-0.8 -2,-3.5 0.3,-5 -2.2,-6 -17,-6.7 -11.5,-0.6 -15.2,-0.2 -18.6,2 -0.7,0.4 -4,14.9 -3.5,15.6 0.2,0.5 0.1,0.8 -0.4,0.8 -2.1,0 -3.6,-7 -3.9,-18.2 -0.2,-6.6 -0.6,-12.3 -0.9,-12.9 -0.7,-1.1 -6.2,-1.2 -6.9,-0.1 z"
     inkscape:export-xdpi="144"
     inkscape:export-ydpi="144" />
  <path
     style="fill:#000000;stroke:none;stroke-width:0.1"
     inkscape:connector-curvature="0"
     id="path70"
     d="m 1362.5023,1722.1193 c -5.5,1.5 -11.5,6.3 -11.5,9.3 0,3.9 2.2,7.5 4.9,8.1 7.3,1.6 10.4,2.6 15.5,5 4.8,2.2 5.6,2.9 5.6,5.3 0,6.5 -12.6,10.9 -14.5,5.1 -1,-3.3 -4.2,-4.4 -7.1,-2.5 -2.1,1.4 -2.3,1.9 -1.3,3.8 1.5,2.8 3.5,4.3 7.8,6.2 4.7,2.1 6.8,1.9 12.9,-1.2 6,-3.1 7.6,-5.7 6.9,-11.5 -0.6,-4.4 1.2,-5.4 7,-4.3 l 3.5,0.6 -0.6,5.8 c -0.7,6.2 0.6,11.1 3,11.1 2.2,0 3.5,-3.6 2.4,-6.5 -1.9,-4.9 -1.2,-8.5 2.2,-11.6 4.8,-4.6 3.1,-5.3 -13.8,-5.5 -11.2,-0.2 -14.9,-0.5 -16.2,-1.7 -0.9,-0.8 -3.3,-1.8 -5.2,-2.2 -4.3,-0.9 -7,-2.3 -7,-3.6 0,-2.3 13.4,-6 16.9,-4.7 4.2,1.5 7.8,-2.1 4.9,-5 -1.4,-1.4 -10.7,-1.4 -16.3,0 z"
     inkscape:export-xdpi="144"
     inkscape:export-ydpi="144" />
  <path
     style="fill:#000000;stroke:none;stroke-width:0.1"
     inkscape:connector-curvature="0"
     id="path72"
     d="m 1473.5023,1729.9193 c -1.1,0.5 -4.8,0.9 -8.1,0.9 -6.1,0.1 -10.9,1.7 -12.5,4.3 -0.5,0.7 -0.9,3.2 -0.9,5.4 0,2.5 -0.6,4.7 -1.5,5.4 -1.2,1 -1.5,2.8 -1.3,6.9 l 0.3,5.6 5,1.6 c 2.8,0.9 7.6,1.9 10.7,2.3 5.2,0.7 5.7,0.6 6.3,-1.5 1.1,-3.4 -1.6,-5.2 -9.2,-5.8 -5.9,-0.5 -6.8,-0.9 -7.1,-2.7 -0.2,-1.7 0.5,-2.3 4,-3.2 2.4,-0.7 5.9,-1.3 7.8,-1.4 2.7,-0.2 3.5,-0.7 3.5,-2.3 0,-1.8 -0.7,-2 -6.5,-2 -6.3,0 -6.5,-0.1 -6.8,-2.7 -0.3,-2.2 0.2,-2.8 3,-3.6 1.8,-0.6 7.5,-1.3 12.7,-1.6 10.3,-0.7 12.7,-1.7 11,-4.7 -1.1,-2 -6.6,-2.5 -10.4,-0.9 z"
     inkscape:export-xdpi="144"
     inkscape:export-ydpi="144" />
  <path
     style="fill:#000000;stroke:none;stroke-width:0.1"
     inkscape:connector-curvature="0"
     id="path74"
     d="m 1409.4023,1733.1193 c -1.7,0.8 -2.2,2.2 -2.7,7.1 -0.4,4.8 -1.1,6.6 -2.8,8 -2.2,1.8 -3.3,6.9 -2.2,10.9 0.6,2.5 3.8,2.2 5.6,-0.5 1.2,-1.9 2.3,-2.3 6.3,-2.1 4.4,0.2 4.9,0.5 6.6,3.8 1.9,3.7 2.5,4 5.2,3 2.1,-0.8 2,-2.6 -0.4,-7.6 -1.1,-2.3 -2,-4.7 -2,-5.4 0,-2.2 -7.6,-15.8 -9.6,-17 -1.3,-0.8 -2.5,-0.9 -4,-0.2 z m 6.1,12.7 c 1.5,2.2 2.4,4.5 2,5 -0.8,1.4 -6.2,1.4 -7,0.1 -0.8,-1.4 0.4,-9 1.5,-9 0.4,0 2,1.8 3.5,3.9 z"
     inkscape:export-xdpi="144"
     inkscape:export-ydpi="144" />
  <path
     style="fill:#000000;stroke:none;stroke-width:0.1"
     inkscape:connector-curvature="0"
     id="path76"
     d="m 1423.8023,1734.5193 c -1.4,1.4 -0.8,4.3 1.1,5.3 1,0.6 3.5,0.8 5.5,0.4 3.4,-0.5 3.7,-0.4 5.1,3.1 0.9,2.1 1.3,4.6 1,5.5 -0.3,1 -0.1,3.1 0.5,4.5 0.7,2 1.6,2.7 3.3,2.4 1.8,-0.2 2.2,-0.9 2.1,-3.8 -0.1,-1.9 -0.5,-5.2 -0.9,-7.3 l -0.8,-3.7 h 3.5 c 1.9,0 4.2,-0.6 5.2,-1.3 1.7,-1.3 1.7,-1.4 0.1,-3 -1,-1.1 -3.2,-1.7 -5.9,-1.7 -2.4,0 -7.6,-0.3 -11.7,-0.6 -4.1,-0.3 -7.7,-0.3 -8.1,0.2 z"
     inkscape:export-xdpi="144"
     inkscape:export-ydpi="144" />
  <path
     style="fill:#000000;stroke:none;stroke-width:0.1"
     inkscape:connector-curvature="0"
     id="path78"
     d="m 1333.7023,1746.6193 c -1.5,0.2 -3.2,1.3 -3.7,2.3 -1.5,2.8 2,4.6 10,5.5 7.5,0.7 10,0.1 10,-2.6 0,-1.4 -1,-2 -4,-2.5 -2.2,-0.4 -4.5,-1.3 -5.1,-2 -1.1,-1.4 -2,-1.5 -7.2,-0.7 z"
     inkscape:export-xdpi="144"
     inkscape:export-ydpi="144" />
  <path
     style="fill:#000000;stroke:none;stroke-width:0.1"
     inkscape:connector-curvature="0"
     id="path80"
     d="m 1155.0898,1771.8271 c -0.7,0.7 -1.2,1.7 -1.2,2.3 0,1.4 5.5,12 8.1,15.7 2.1,2.9 6.3,3.8 7.2,1.5 0.9,-2.5 -0.5,-7.6 -2.3,-8.2 -1,-0.3 -2.6,-2.5 -3.5,-4.8 -2.8,-6.9 -5.6,-9.2 -8.3,-6.5 z"
     inkscape:export-xdpi="144"
     inkscape:export-ydpi="144" />
  <path
     style="fill:#000000;stroke:none;stroke-width:0.1"
     inkscape:connector-curvature="0"
     id="path82"
     d="m 1279.2023,1782.1193 c -0.7,0.9 -0.7,6 0.1,17.1 l 1.2,15.9 3.4,1.4 c 5,2.1 15.4,1.8 20.1,-0.6 2.6,-1.3 5.9,-2 9.8,-2 7.4,0 12.1,-1.5 14.9,-4.8 2.4,-2.9 5.3,-2.4 5.3,0.8 0,4.5 13.9,7.3 22.9,4.6 6.7,-2 8.1,-3.1 8.1,-6.8 0,-4.1 -1.5,-6.5 -5.3,-8.2 -5.2,-2.3 -8.7,-2.8 -12.3,-1.6 -2.6,0.9 -3.4,1.7 -3.4,3.5 0,4.3 4.5,5.3 12.8,2.9 1.9,-0.5 2.2,-0.3 2.2,1.9 0,2.2 -0.6,2.8 -4.1,3.7 -8.4,2.3 -16.4,0.7 -17.5,-3.6 -0.7,-2.7 2.9,-11.4 4.8,-11.4 0.6,0 2.6,-1.1 4.4,-2.5 1.8,-1.4 3.7,-2.5 4.3,-2.5 1.5,0 4.2,-3.1 3.6,-4.1 -1.7,-2.7 -12.4,2 -17.7,7.9 l -3.6,4 -4.6,-4.7 -4.6,-4.6 -8,-0.3 c -7.9,-0.4 -8,-0.4 -11,2.8 -3.6,3.9 -5.4,9.8 -4.5,15.2 0.9,5 -0.1,5.8 -7.2,5.8 -7.6,0 -8.3,-1.1 -8.3,-13.1 0,-5.5 0.5,-11 1.1,-12.1 0.8,-1.5 0.8,-2.3 -0.3,-3.3 -2.1,-2 -5.4,-2.7 -6.6,-1.3 z m 46.2,14.3 c 1.4,1.3 2.6,3 2.5,3.7 -0.3,6.4 -10.1,10.4 -18.4,7.5 -3.4,-1.2 -4,-1.9 -4.3,-4.7 -0.3,-2.4 0.3,-3.9 2.4,-6.1 2.5,-2.6 3.5,-2.9 8.9,-2.9 5.2,0 6.6,0.4 8.9,2.5 z"
     inkscape:export-xdpi="144"
     inkscape:export-ydpi="144" />
  <path
     style="fill:#000000;stroke:none;stroke-width:0.1"
     inkscape:connector-curvature="0"
     id="path84"
     d="m 1392.4023,1789.2193 c -3.2,1.2 -8.4,6.5 -8.4,8.6 0,0.6 1.1,3.5 2.4,6.4 2.5,5.7 4.4,7 12.3,8.2 5,0.8 7.9,0 8.7,-2.2 1.1,-2.8 -1.3,-4.3 -7.1,-4.3 -4.4,0 -5.8,-0.5 -7.8,-2.5 -1.4,-1.3 -2.5,-2.9 -2.5,-3.5 0,-1.8 4.2,-4.9 6.7,-5 2.1,0 5.3,-2.4 5.3,-3.9 0,-1.4 -2.4,-3.1 -4.4,-3 -1.2,0 -3.5,0.6 -5.2,1.2 z"
     inkscape:export-xdpi="144"
     inkscape:export-ydpi="144" />
  <path
     style="fill:#000000;stroke:none;stroke-width:0.1"
     inkscape:connector-curvature="0"
     id="path86"
     d="m 1366.9023,1790.5193 c -1,1.2 -1,1.9 -0.1,3.2 2.5,3.5 4.2,8.3 4.2,12 0,4.1 1.4,6.2 4.1,6.2 2.8,0 3,-1.4 1.5,-10 -1.8,-10.7 -6.1,-15.7 -9.7,-11.4 z"
     inkscape:export-xdpi="144"
     inkscape:export-ydpi="144" />
  <path
     style="fill:#000000;stroke:none;stroke-width:0.1"
     inkscape:connector-curvature="0"
     id="path88"
     d="m 1170.5898,1804.3271 c -1.6,1.5 -0.5,6.3 2.3,10.4 1.6,2.4 3,5 3,5.8 0,2.9 6.1,12.1 8,12.1 2.7,0 3.2,-1.4 2.5,-6.4 -0.5,-3 -2.1,-6.3 -5.1,-10.3 -2.4,-3.2 -4.4,-6.6 -4.4,-7.5 0,-3.1 -4.4,-6 -6.3,-4.1 z"
     inkscape:export-xdpi="144"
     inkscape:export-ydpi="144" />
  <path
     style="fill:#000000;stroke:none;stroke-width:0.1"
     inkscape:connector-curvature="0"
     id="path90"
     d="m 1198.5898,1841.7271 c -1,0.6 -3.1,0.8 -4.6,0.4 -3.2,-0.7 -6.1,1.4 -6.1,4.5 0,1.1 -1.2,2.6 -2.9,3.4 -3.2,1.7 -4.1,3.4 -4.1,8 0,1.8 -0.7,4.1 -1.5,5.2 -3.1,4.1 -1.1,7.3 3.9,6 2,-0.5 2.5,-1.7 4.1,-9.5 l 1.8,-8.9 5.6,-0.7 c 6.8,-0.8 10.1,-2.7 10.1,-5.9 0,-3.3 -2.9,-4.4 -6.3,-2.5 z"
     inkscape:export-xdpi="144"
     inkscape:export-ydpi="144" />
  <path
     style="fill:#000000;stroke:none;stroke-width:0.1"
     inkscape:connector-curvature="0"
     id="path92"
     d="m 1222.8898,1843.5271 c -3.2,0.9 -3.6,3.2 -1.1,5.5 3,2.7 20,3.6 22,1.2 2.2,-2.6 0.6,-4.6 -3.7,-4.6 -2.1,0 -6.1,-0.7 -8.8,-1.5 -2.7,-0.8 -5.1,-1.4 -5.4,-1.4 -0.3,0.1 -1.6,0.4 -3,0.8 z"
     inkscape:export-xdpi="144"
     inkscape:export-ydpi="144" />
  <path
     style="fill:#000000;stroke:none;stroke-width:0.1"
     inkscape:connector-curvature="0"
     id="path94"
     d="m 1475.5898,1844.2271 c -1.2,1.2 -0.8,6.1 0.6,7.2 0.7,0.6 5.8,0.7 13.5,0.3 10.6,-0.5 12.6,-0.9 13.8,-2.5 2.6,-3.6 0.1,-4.7 -10.5,-4.5 -5.3,0.1 -11.2,-0.2 -13.1,-0.5 -1.9,-0.4 -3.9,-0.4 -4.3,0 z"
     inkscape:export-xdpi="144"
     inkscape:export-ydpi="144" />
  <path
     style="fill:#000000;stroke:none;stroke-width:0.1"
     inkscape:connector-curvature="0"
     id="path96"
     d="m 1308.1898,1846.4271 c -1.2,1.2 -1.2,1.7 0,3.6 1.3,1.9 2.5,2.1 12,2.4 11.4,0.3 14.1,-0.8 13.5,-5.2 -0.3,-2 -0.8,-2.1 -12.2,-2.1 -8.9,-0.1 -12.2,0.3 -13.3,1.3 z"
     inkscape:export-xdpi="144"
     inkscape:export-ydpi="144" />
  <path
     style="fill:#000000;stroke:none;stroke-width:0.1"
     inkscape:connector-curvature="0"
     id="path98"
     d="m 1354.1898,1845.4271 c -1.7,0.2 -2.3,1 -2.3,2.8 0,2.8 0.8,3.1 14.7,3.9 11.5,0.7 14.3,-0.1 14.3,-4 0,-1.4 -0.3,-2.6 -0.7,-2.6 -2,-0.3 -24.1,-0.4 -26,-0.1 z"
     inkscape:export-xdpi="144"
     inkscape:export-ydpi="144" />
  <path
     style="fill:#000000;stroke:none;stroke-width:0.1"
     inkscape:connector-curvature="0"
     id="path100"
     d="m 1398.3898,1845.4271 c -1.2,1.3 -0.3,5.2 1.4,6.2 2.2,1.1 11.6,1.2 17.6,0.2 3.6,-0.7 4,-1 4,-3.7 v -3 l -11.3,-0.1 c -6.2,0 -11.4,0.2 -11.7,0.4 z"
     inkscape:export-xdpi="144"
     inkscape:export-ydpi="144" />
  <path
     style="fill:#000000;stroke:none;stroke-width:0.1"
     inkscape:connector-curvature="0"
     id="path102"
     d="m 1436.1898,1846.2271 c -1.6,4.2 2.7,6.4 12.6,6.4 7.7,0 10.5,-1.4 9.9,-5.1 -0.3,-2.4 -0.5,-2.4 -11.1,-2.6 -8.5,-0.1 -10.9,0.2 -11.4,1.3 z"
     inkscape:export-xdpi="144"
     inkscape:export-ydpi="144" />
  <path
     style="fill:#000000;stroke:none;stroke-width:0.1"
     inkscape:connector-curvature="0"
     id="path104"
     d="m 1265.1898,1846.3271 c -2,0.7 -1.6,5.1 0.5,5.7 3.2,0.9 22.9,1.8 25.1,1.1 2.3,-0.7 2.8,-3.7 0.9,-5.2 -1.4,-1.1 -24.4,-2.4 -26.5,-1.6 z"
     inkscape:export-xdpi="144"
     inkscape:export-ydpi="144" />
  <path
     style="fill:#000000;stroke:none;stroke-width:0.1"
     inkscape:connector-curvature="0"
     id="path106"
     d="m 1256.6788,1886.7506 c -2.1,1.3 -4.4,5.7 -7.4,14.4 -3.1,8.9 -3,12 0.1,15.1 2.1,2.2 3.3,2.5 9.5,2.5 10.6,0 15.3,-1.5 19.6,-6.2 3.5,-3.9 3.6,-4.3 3.2,-10.4 -0.4,-6.8 -2.1,-10.1 -7.1,-13.8 -3.1,-2.3 -15,-3.4 -17.9,-1.6 z m 13.6,5.5 c 8.8,3.7 8.6,16.3 -0.3,19.8 -7.8,3.2 -18.1,1.5 -18.1,-2.9 0,-0.9 0.5,-2.5 1.2,-3.7 0.7,-1.2 2,-4.2 2.8,-6.7 1.4,-3.9 2,-4.5 4.8,-4.8 2.2,-0.2 2.9,-0.7 2.5,-1.8 -0.7,-1.9 2.4,-1.8 7.1,0.1 z"
     inkscape:export-xdpi="144"
     inkscape:export-ydpi="144" />
  <path
     style="fill:#000000;stroke:none;stroke-width:0.1"
     inkscape:connector-curvature="0"
     id="path108"
     d="m 1171.5898,1879.4271 c -1,1 -1.7,2.4 -1.7,3 0,0.6 -1.3,2.6 -2.8,4.4 -4,4.7 -8.2,11.2 -8.2,12.6 0,0.6 1.1,1.4 2.4,1.8 2.7,0.6 6.6,-1 6.6,-2.8 0,-2.3 3.6,-8.8 5.2,-9.3 2.2,-0.8 5.1,-7.1 4.3,-9.5 -0.8,-2.5 -3.7,-2.6 -5.8,-0.2 z"
     inkscape:export-xdpi="144"
     inkscape:export-ydpi="144" />
  <path
     style="fill:#000000;stroke:none;stroke-width:0.1"
     inkscape:connector-curvature="0"
     id="path110"
     d="m 1308.1788,1891.4506 c -5.4,1.1 -5.8,7.2 -0.5,8.5 3,0.8 3.2,1.1 3.2,5.2 0,2.4 -0.6,4.8 -1.2,5.3 -3.4,2.7 -10.5,2.5 -14.3,-0.3 -1.7,-1.2 -2,-2.6 -2,-8.7 0,-7.1 0,-7.2 -2.5,-6.9 -3.4,0.4 -4,1.9 -3.4,8.2 1.2,10.7 6.1,15 16.9,15 8.1,0 10.8,-2.7 11.5,-11.4 l 0.5,-6.1 3.6,-0.3 c 3.4,-0.3 3.7,-0.1 4.3,2.9 0.3,1.7 0.6,4.2 0.6,5.6 0,2.9 2.7,7.3 4.6,7.3 0.8,0 2,-1.1 2.6,-2.5 0.9,-2 0.8,-2.8 -0.4,-4.2 -1.8,-2.1 -3,-7.4 -2,-9 0.4,-0.6 3.2,-1.3 6.2,-1.4 l 5.5,-0.3 1.2,6.4 c 2.7,15 3.6,17.5 6.5,17.8 3.2,0.4 4.4,-2.2 2.8,-6.3 -1.3,-3.3 -0.8,-3.8 4.6,-5.3 6.5,-1.9 9.4,-4.7 9.4,-9 -0.1,-4.3 -1.3,-6.2 -6,-9.1 -4.5,-2.7 -10.3,-2.7 -14,-0.1 -2.4,1.7 -3.3,1.8 -5.3,0.9 -1.8,-0.8 -4.6,-0.8 -10.8,0 -12.2,1.6 -15.7,1.5 -17.1,-0.9 -0.7,-1.1 -1.5,-1.9 -1.8,-1.9 -0.3,0.1 -1.5,0.4 -2.7,0.6 z m 50.4,7.8 c 4.7,3.1 2,6.2 -5.8,6.7 -4.1,0.3 -4.4,0.1 -4.7,-2.4 -0.2,-1.5 0.2,-3.7 0.8,-4.9 1,-1.7 1.8,-2 4.3,-1.5 1.7,0.3 4.1,1.3 5.4,2.1 z"
     inkscape:export-xdpi="144"
     inkscape:export-ydpi="144" />
  <path
     style="fill:#000000;stroke:none;stroke-width:0.1"
     inkscape:connector-curvature="0"
     id="path112"
     d="m 1391.1788,1893.3506 c -1.9,0.8 -1.6,3.9 0.7,5.9 3,2.7 2.5,5.9 -1.5,9.4 -3.7,3.2 -6.6,3.8 -10.9,2.1 -2.2,-0.8 -2.5,-1.6 -2.8,-6.7 -0.3,-5.4 -0.5,-5.8 -2.8,-5.8 -2.4,0 -2.5,0.3 -2.6,6.3 -0.1,8 2,11.7 7.1,12.6 4.9,1 12,-0.2 14.9,-2.5 2.9,-2.2 5.6,-7.8 5.6,-11.3 0,-2.8 3.2,-4.3 6.9,-3.1 1.7,0.5 2.1,1.6 2.3,7.7 0.2,5.4 0.7,7.3 2,8.2 3.1,1.9 4.3,-0.7 4,-8.5 l -0.2,-6.9 h 3.1 c 6,0 9.1,-3.7 5,-6 -1.1,-0.5 -5.7,-0.9 -10.3,-0.7 -4.5,0.1 -10.8,-0.1 -13.8,-0.5 -3,-0.4 -6.1,-0.4 -6.7,-0.2 z"
     inkscape:export-xdpi="144"
     inkscape:export-ydpi="144" />
  <path
     style="fill:#000000;stroke:none;stroke-width:0.1"
     inkscape:connector-curvature="0"
     id="path114"
     d="m 1150.7898,1915.8271 c -5.7,11.3 -6.4,17.8 -1.9,17.8 2.2,0 3.4,-2 4.4,-7 0.3,-1.9 1.8,-5.2 3.1,-7.2 2.9,-4.3 3.1,-6.3 0.9,-7.2 -3.1,-1.2 -4.4,-0.5 -6.5,3.6 z"
     inkscape:export-xdpi="144"
     inkscape:export-ydpi="144" />
  <path
     style="fill:#000000;stroke:none;stroke-width:0.1"
     inkscape:connector-curvature="0"
     id="path116"
     d="m 1278.7788,1936.4506 c -0.1,0.5 -0.2,7.2 -0.3,15.1 l -0.1,14.3 4.5,1.3 c 3.7,1.1 6,1.1 12.2,0.2 4.1,-0.7 8.7,-2 10.2,-2.9 2.4,-1.6 3,-1.6 7.2,-0.2 2.4,0.8 6.7,1.5 9.4,1.5 4.3,0 5.5,-0.5 9.1,-3.7 l 4,-3.6 6.7,3.3 c 6.5,3.2 6.8,3.3 12.7,2.1 7.2,-1.4 14.7,-4.1 15.7,-5.5 1.5,-2.2 0.7,-4.9 -2.2,-7.6 -2.2,-2.1 -4.3,-2.9 -9,-3.4 l -6.1,-0.7 0.7,-3.6 c 1.1,-5.9 -2.8,-6.9 -11.8,-2.9 -3.5,1.6 -5.7,3.2 -6.1,4.5 -0.8,3.1 -3.9,2.5 -6.2,-1.2 -2.3,-3.7 -7.1,-5 -8.2,-2.1 -0.4,1.1 0.6,2.8 3.5,5.5 4.6,4.2 5.5,8.4 2.6,11.3 -2,2 -9.3,2.1 -13.9,0.2 -4.6,-1.9 -4.8,-5.6 -0.5,-9.6 3.7,-3.4 3.8,-5.8 0.4,-6.6 -2.1,-0.5 -3.1,0 -5.4,2.7 -2.3,2.7 -2.9,4.4 -3,8.2 0,4.6 -0.2,4.9 -3.7,6.4 -2.1,0.9 -6.5,1.8 -9.9,2.1 l -6.1,0.4 -0.6,-9.8 c -0.3,-5.4 -0.1,-10.6 0.4,-11.5 1.4,-2.7 0,-4.9 -3.2,-4.9 -1.6,0 -2.9,0.3 -3,0.7 z m 69.3,12 c -0.4,3.6 -0.1,3.7 9.7,4.7 7.2,0.7 8.4,2 3.6,4 -4.4,1.9 -13.7,2.1 -16.8,0.5 -3.3,-1.7 -6.7,-5.1 -6.7,-6.6 0,-2.6 4.9,-6.4 7.8,-6.1 2.4,0.3 2.7,0.7 2.4,3.5 z"
     inkscape:export-xdpi="144"
     inkscape:export-ydpi="144" />
  <path
     style="fill:#000000;stroke:none;stroke-width:0.1"
     inkscape:connector-curvature="0"
     id="path118"
     d="m 1393.1788,1939.7506 c -5,2.7 -6.2,3.9 -7.2,7.8 -0.8,2.8 -0.6,4.4 1.1,8.4 1.1,2.7 2.9,5.3 3.9,5.8 2.3,1.3 20.2,1.3 21.5,0.1 0.5,-0.5 2.4,-1.1 4.3,-1.3 4,-0.4 6.1,-2.9 4.5,-5.6 -1.3,-2.1 -6.4,-2.8 -7.5,-1.1 -0.9,1.6 -8.3,3.9 -12.5,3.9 -3.9,0 -9.1,-2.5 -10.5,-5.2 -1.4,-2.6 0.9,-5.2 6.6,-7.1 4.4,-1.5 5.4,-3.6 3,-6.1 -2,-1.9 -3,-1.9 -7.2,0.4 z"
     inkscape:export-xdpi="144"
     inkscape:export-ydpi="144" />
  <path
     style="fill:#000000;stroke:none;stroke-width:0.1"
     inkscape:connector-curvature="0"
     id="path120"
     d="m 1371.3788,1940.7506 c -0.3,0.5 0.6,4.7 2.1,9.3 3.6,10.8 3.8,11.2 6,11.2 2.6,0 3,-4.6 0.7,-8.1 -1,-1.5 -2,-5.1 -2.3,-7.8 -0.5,-4.6 -0.8,-5.1 -3.2,-5.4 -1.4,-0.2 -2.9,0.2 -3.3,0.8 z"
     inkscape:export-xdpi="144"
     inkscape:export-ydpi="144" />
  <path
     style="fill:#000000;stroke:none;stroke-width:0.1"
     inkscape:connector-curvature="0"
     id="path122"
     d="m 1139.7898,1944.8271 c -4.3,4.5 -6.9,8.9 -6.9,11.4 0,1.2 -0.7,2.7 -1.5,3.4 -2.1,1.7 -1.5,5.4 0.8,5.8 2.6,0.5 4.7,-1.6 7,-6.8 1.1,-2.5 2.9,-5.9 4.2,-7.5 3.2,-4.4 3.7,-7.3 1.4,-8.6 -1.6,-0.8 -2.5,-0.4 -5,2.3 z"
     inkscape:export-xdpi="144"
     inkscape:export-ydpi="144" />
  <path
     style="fill:#000000;stroke:none;stroke-width:0.1"
     inkscape:connector-curvature="0"
     id="path124"
     d="m 1122.3898,1973.4271 c -1.9,1.3 -5.2,6.7 -6.6,10.7 -0.7,2.2 -2.4,4.9 -3.8,6.1 -2.8,2.4 -2.3,5.4 0.9,5.4 1.4,0 2.6,-1.1 3.5,-3.4 0.8,-1.9 1.8,-3.6 2.2,-3.8 1.9,-0.8 6.7,-9.5 6.5,-11.8 -0.2,-2.9 -1.3,-4.2 -2.7,-3.2 z"
     inkscape:export-xdpi="144"
     inkscape:export-ydpi="144" />
  <path
     style="fill:#000000;stroke:none;stroke-width:0.1"
     inkscape:connector-curvature="0"
     id="path126"
     d="m 1226.8101,1499.9834 c -0.6,0.8 -0.9,2.2 -0.5,3.1 0.8,2.1 -2.5,18.9 -3.9,19.8 -1.5,0.9 -3.7,-1 -3.7,-3.2 0,-2.6 -2.6,-8.5 -4.4,-10 -0.9,-0.7 -1.6,-1.8 -1.6,-2.6 0,-1.6 -5.2,-5.4 -7.4,-5.4 -4.1,0 -2.2,5.3 4,11.5 3.1,3.1 7.3,12.1 9.3,19.9 1.3,4.9 2.1,6.2 3.8,6.4 1.8,0.3 2.3,-0.3 2.8,-3.5 0.3,-2.1 1.5,-7.4 2.6,-11.8 1.1,-4.4 2.4,-9.6 2.8,-11.5 0.4,-1.9 1.3,-4.5 2,-5.8 2,-3.8 1.1,-7.6 -2,-8 -1.4,-0.2 -3.1,0.3 -3.8,1.1 z"
     inkscape:export-xdpi="144"
     inkscape:export-ydpi="144" />
  <path
     style="fill:#000000;stroke:none;stroke-width:0.1"
     inkscape:connector-curvature="0"
     id="path128"
     d="m 1270.7101,1505.6834 c -4,1 -7.4,4.6 -6.4,6.9 0.3,0.9 0.9,5.8 1.3,10.9 0.8,9 1.9,11.7 4.5,10.9 2.4,-0.8 3,-3.6 1.6,-7.6 -0.7,-2.3 -1.1,-4.4 -0.8,-4.7 0.7,-0.6 5.3,1.4 13.3,6.1 3.3,1.9 6.8,3.5 7.8,3.5 0.9,0 1.7,0.4 1.7,0.9 0,1.9 3,3.9 5.1,3.4 2,-0.5 2.1,-1 1.4,-6.2 -0.4,-3.1 -0.7,-8.2 -0.6,-11.5 0.1,-6.5 -1,-8.6 -4.5,-8.6 -3.1,0 -3.5,1.1 -2.3,5.1 1.8,5.8 2.2,10.9 0.7,10.9 -1.9,0 -10.1,-3.2 -12.8,-5.1 l -2.4,-1.6 4.7,-2.1 c 5.1,-2.3 6.2,-3.9 5.3,-7.5 -1,-4 -9,-5.7 -17.6,-3.7 z m 10,6.5 c -1,1.2 -9.3,5.5 -10.6,5.5 -0.2,0 -0.4,-1.1 -0.4,-2.5 0,-3.1 2.4,-4.4 7.9,-4.5 3.8,0 4.2,0.2 3.1,1.5 z"
     inkscape:export-xdpi="144"
     inkscape:export-ydpi="144" />
  <path
     style="fill:#000000;stroke:none;stroke-width:0.1"
     inkscape:connector-curvature="0"
     id="path130"
     d="m 1316.8101,1508.2834 c -1.7,1.4 -3.1,3.4 -3.1,4.3 0,1 -1.4,4.5 -3.1,7.9 -3.2,6.2 -4,10.5 -2.1,12.4 1.7,1.7 4.2,0.1 4.8,-3.1 0.8,-3.8 1.9,-4.2 8,-2.7 4,1.1 5.2,1.9 6.9,4.9 2.1,3.9 3.6,4.5 5.4,2.3 1.4,-1.6 0.4,-4.4 -3.3,-9.9 -4.3,-6.3 -5.6,-9.4 -5.6,-13.5 0,-2.7 -0.5,-4.2 -1.6,-4.6 -2.5,-0.9 -3.1,-0.8 -6.3,2 z m 4.5,9.1 c 2.1,2.8 1.6,4.3 -1.1,4.3 -3,0 -4.3,-2.4 -2.5,-4.5 1.6,-1.9 2,-1.9 3.6,0.2 z"
     inkscape:export-xdpi="144"
     inkscape:export-ydpi="144" />
  <path
     style="fill:#000000;stroke:none;stroke-width:0.1"
     inkscape:connector-curvature="0"
     id="path132"
     d="m 1241.9101,1509.8834 c -0.7,0.7 -1.2,2 -1.2,2.9 0,0.9 -0.7,3.4 -1.6,5.5 -1.9,4.5 -4.3,13.9 -4.4,17 0,2.6 2.7,3.9 4.6,2.3 0.8,-0.6 1.4,-2.2 1.4,-3.5 0,-3.5 2.2,-5 7.6,-4.9 4.3,0 5,0.3 6.2,2.8 1.1,2.2 1.9,2.8 4,2.5 3.6,-0.4 3.2,-3.9 -0.9,-8.6 -1.7,-1.9 -4,-5.6 -5.1,-8.1 -3.3,-7.8 -7.5,-11 -10.6,-7.9 z m 5.6,10 c 1.9,1.9 1.4,3.8 -1.1,3.8 -3.1,0 -3.8,-0.9 -2.6,-3.1 1.1,-2.2 2,-2.4 3.7,-0.7 z"
     inkscape:export-xdpi="144"
     inkscape:export-ydpi="144" />
  <path
     style="fill:#000000;stroke:none;stroke-width:0.1"
     inkscape:connector-curvature="0"
     id="path138"
     d="m 1746.3898,1894.7271 c -9,2 -17.5,9.8 -18,16.4 -0.2,2.2 -0.8,5.2 -1.4,6.7 -1.8,4.7 0.5,13.3 4.5,17 2.4,2.1 10,4.8 13.7,4.8 6.2,0 13.7,-3.1 17.7,-7.3 2.2,-2.2 4,-4.7 4,-5.4 0,-3.1 2.7,-0.9 3.9,3.2 1.2,4 1.7,4.6 5.5,5.6 2.2,0.6 6.6,0.8 9.6,0.5 4.6,-0.5 6,-1.2 8.3,-3.9 2.7,-3 2.9,-3.6 2.4,-10.2 -0.7,-8.7 -1.3,-10.4 -4.4,-11.1 -3.9,-1 -4.8,0.8 -2.9,5.6 2.3,5.7 2.1,11.6 -0.3,13 -2.6,1.3 -9.7,1.3 -12.3,-0.1 -1.7,-0.9 -1.9,-1.9 -1.6,-7.2 l 0.3,-6.2 -3.2,0.1 c -2.9,0.2 -3.3,-0.1 -3.3,-2.5 0,-2.8 -2.5,-7.5 -5.9,-10.6 -1.1,-1.1 -3,-2.9 -4.1,-3.9 -1.1,-1.1 -2,-2.5 -2,-3.2 0,-0.6 -1,-1.4 -2.2,-1.8 -2.7,-0.7 -3.1,-0.7 -8.3,0.5 z m 12.2,11.1 c 5.9,4.1 7,14.6 2.2,20.6 -3.2,4 -11.1,8.2 -15.4,8.2 -4.4,0 -11.2,-4.2 -12.5,-7.6 -1.9,-4.9 -0.4,-11.2 3.7,-15.3 0.8,-0.8 1.9,-2.5 2.4,-3.8 1.2,-3.2 3.3,-3.8 9.1,-2.6 4,0.8 5.1,0.7 5.5,-0.4 0.7,-1.8 1.1,-1.7 5,0.9 z"
     inkscape:export-xdpi="144"
     inkscape:export-ydpi="144" />
  <path
     style="fill:#000000;stroke:none;stroke-width:0.1"
     inkscape:connector-curvature="0"
     id="path140"
     d="m 1053.0898,1903.3271 c -2.2,4.3 -2.3,7.4 -0.2,10 2,2.6 2.6,6.9 1.2,8.8 -0.4,0.7 -11.2,1.1 -31.2,1.2 -31.59997,0.2 -76.89997,1.2 -82.99997,1.9 -1.9,0.2 -6.9,0.8 -11,1.3 -4.1,0.5 -14.2,1.5 -22.5,2.1 -16,1.3 -18.5,2 -18.5,5 0,2.8 2.6,3.8 7.4,3 2.2,-0.5 11.3,-1.3 20.1,-2 8.8,-0.6 17.6,-1.5 19.5,-2 5.9,-1.6 40.6,-2.9 78.79997,-3 20,0 37,-0.4 37.7,-0.7 0.8,-0.3 1.5,-1.1 1.5,-1.9 0,-0.8 0.6,-1.4 1.3,-1.4 1.1,0 1.3,1.6 0.9,7.1 -0.3,5.3 -0.1,7.4 0.9,8 2.4,1.5 4.7,1 7.4,-1.5 1.4,-1.3 4,-2.9 5.8,-3.6 1.7,-0.7 5,-2.1 7.2,-3.1 2.2,-1 6.3,-2.4 9.1,-3 3.9,-0.9 5.4,-1.8 6.7,-4.1 1.9,-3.4 0.9,-6.8 -2.1,-6.8 -1,0 -3.3,-0.9 -5.2,-2 -7.4,-4.2 -17.9,-9 -19.7,-9 -1.1,0 -3.2,-1.4 -4.8,-3 -3.2,-3.4 -6,-3.8 -7.3,-1.3 z m 9.3,11.3 c -0.3,0.5 -1,1 -1.6,1 -0.5,0 -0.9,-0.5 -0.9,-1 0,-0.6 0.7,-1 1.6,-1 0.8,0 1.2,0.4 0.9,1 z"
     inkscape:export-xdpi="144"
     inkscape:export-ydpi="144" />
  <path
     style="fill:#000000;stroke:none;stroke-width:0.1"
     inkscape:connector-curvature="0"
     id="path142"
     d="m 1923.8898,1906.5271 c -6,1.2 -11.5,4.4 -11.8,6.9 -0.2,1.3 0.2,2.9 0.8,3.7 1.6,2 9.2,5.5 14.8,6.9 4,1 4.7,1.6 5,3.9 0.4,3.1 -2,4 -8.4,3.5 -3.4,-0.3 -3.9,-0.6 -3.9,-2.8 0,-1.8 -0.6,-2.6 -2.3,-2.8 -4.9,-0.7 -6.9,4.5 -3.4,8.8 1.5,1.8 3.1,2.3 8.8,2.7 4.3,0.3 8.4,0 10.9,-0.9 l 4,-1.3 v -6 c 0,-5.6 -0.2,-6 -3.3,-8.1 -1.8,-1.2 -5.4,-2.5 -8.1,-2.9 -6,-0.8 -9.4,-2.9 -7.1,-4.4 0.8,-0.6 4,-1.3 7,-1.6 10.5,-1.1 11.6,-1.8 8.4,-4.9 -1.6,-1.7 -5.4,-1.9 -11.4,-0.7 z"
     inkscape:export-xdpi="144"
     inkscape:export-ydpi="144" />
  <path
     style="fill:#000000;stroke:none;stroke-width:0.1"
     inkscape:connector-curvature="0"
     id="path144"
     d="m 706.48983,1910.8271 c -1.6,2.6 -0.9,8.5 2.5,19.7 1.1,3.5 2.3,8.4 2.6,10.8 0.6,4.8 2.4,6.3 4.9,4.2 1.6,-1.3 1.4,-7 -0.5,-10.7 -0.5,-0.9 -1.6,-5 -2.6,-9 -1.4,-6 -1.5,-7.8 -0.5,-10.3 1.1,-2.5 1,-3.2 -0.5,-4.9 -2.4,-2.6 -4.1,-2.5 -5.9,0.2 z"
     inkscape:export-xdpi="144"
     inkscape:export-ydpi="144" />
  <path
     style="fill:#000000;stroke:none;stroke-width:0.1"
     inkscape:connector-curvature="0"
     id="path146"
     d="m 765.88983,1910.9271 c -3.7,1.8 -4.6,2.8 -5.4,6 -0.5,2.5 -0.5,4.7 0.2,6 0.6,1.2 1.3,4.2 1.7,6.7 1,7.5 2.4,11 4.6,11 2.6,0 3.5,-2.6 2.2,-6.1 -1,-2.7 -0.9,-2.9 4.3,-5.5 6.4,-3.2 8.9,-7.4 7.8,-13.1 -0.4,-2.1 -1.3,-4.6 -2.2,-5.6 -2.1,-2.4 -7.7,-2.1 -13.2,0.6 z m 9.8,5.3 c 2.8,1.9 2.8,2.5 -0.3,5.8 -3.2,3.5 -10,3.8 -10.8,0.4 -0.7,-2.7 0.8,-4.7 4.8,-6.4 3.8,-1.7 3.7,-1.7 6.3,0.2 z"
     inkscape:export-xdpi="144"
     inkscape:export-ydpi="144" />
  <path
     style="fill:#000000;stroke:none;stroke-width:0.1"
     inkscape:connector-curvature="0"
     id="path148"
     d="m 1829.1898,1909.7271 c -1.1,0.4 -8.3,1 -15.9,1.4 -14.8,0.8 -17,1.5 -15.3,4.6 0.8,1.6 2.1,1.9 7.9,1.9 h 7 v 6.4 c 0,9.5 2.3,13.9 6,11.6 1.1,-0.7 1.1,-2.3 0.2,-8.6 -0.6,-4.7 -0.7,-8.5 -0.2,-9.5 1.2,-2.1 10,-3.5 11.2,-1.7 0.4,0.7 0.8,3 0.8,5.2 0,4.5 3.9,15.3 5.8,16 3.8,1.6 5.4,-2.6 2.7,-6.8 -1.5,-2.3 -1.5,-2.3 5.9,-5.6 4.1,-1.7 7.9,-2.9 8.5,-2.6 0.5,0.3 1.2,2.1 1.6,3.9 1.7,8.6 4.1,10.7 12.5,10.7 4.2,0 5.2,-0.4 7.4,-3.1 2.7,-3.2 3.2,-4.4 4.4,-11.9 0.7,-4.5 0.7,-4.5 5.2,-4.8 2.5,-0.1 5.1,0.2 5.8,0.6 0.8,0.5 1.4,3.8 1.6,8.5 0.5,8.5 0.9,9.7 3.5,9.7 4,0 4.8,-4.6 1.9,-10.6 -0.5,-1.2 -0.8,-3.2 -0.6,-4.5 0.2,-1.9 1,-2.5 3.5,-2.7 1.7,-0.2 3.7,-1 4.4,-1.9 2.2,-2.5 -1.1,-3.9 -11,-4.6 -4.9,-0.4 -10.1,-1.2 -11.5,-1.9 -2.4,-1 -3,-0.8 -5.5,1.6 -2.4,2.3 -2.9,3.6 -2.9,7 0.1,2.4 -0.7,6 -1.8,8.2 -1.7,3.6 -2.2,3.9 -5.7,3.8 -5.2,-0.2 -6.2,-1.5 -6.3,-8.2 -0.1,-6.2 -2.3,-11.7 -5.1,-12.6 -2.6,-0.8 -23.6,-0.4 -26,0.5 z m 23.1,5.3 c -0.7,1.8 -11.5,7.6 -14.2,7.6 -2.1,0 -3.5,-3.1 -2.5,-5.6 0.7,-1.9 5.6,-3.2 12,-3.3 4.1,-0.1 5.1,0.2 4.7,1.3 z"
     inkscape:export-xdpi="144"
     inkscape:export-ydpi="144" />
  <path
     style="fill:#000000;stroke:none;stroke-width:0.1"
     inkscape:connector-curvature="0"
     id="path150"
     d="m 858.58983,1914.7271 c -6.7,1.1 -11.1,3.9 -11.5,7.2 -0.3,2.4 0.3,3 5,5.2 2.9,1.4 6.5,2.5 8,2.5 6.5,0 10.1,3.7 5.9,6 -3.4,1.7 -7.8,1.1 -10.9,-1.5 -2,-1.7 -3.3,-2.2 -3.7,-1.5 -0.4,0.6 -1.8,1.5 -3.1,2 -3.4,1.3 -3,2.7 1.4,4.9 4.8,2.4 13,3.5 16.5,2.2 4.3,-1.7 7.6,-6.1 7.7,-10.1 0,-4.5 -2.2,-6 -11.2,-7.1 -9.4,-1.2 -11.5,-2.4 -6.3,-3.7 2.2,-0.6 5.7,-1.3 7.8,-1.7 3.2,-0.5 5.9,-2.8 4.6,-3.9 -1.2,-1 -6,-1.2 -10.2,-0.5 z"
     inkscape:export-xdpi="144"
     inkscape:export-ydpi="144" />
  <path
     style="fill:#000000;stroke:none;stroke-width:0.1"
     inkscape:connector-curvature="0"
     id="path152"
     d="m 806.28983,1915.7271 c -1.9,1 -2,1.7 -1.7,8.7 0.2,4.2 0,8.4 -0.6,9.2 -0.6,0.9 -2.6,1.5 -5.1,1.5 -5.5,0 -7.9,-3.1 -8,-9.8 0,-4.8 -1.9,-7.2 -4.1,-5 -1.7,1.7 -1.3,11.8 0.6,14.7 4.6,7 13.6,8.6 19.8,3.5 3.7,-3 3.7,-3.1 3.7,-10.5 0,-8.8 1.5,-11.7 4.5,-8.4 1.3,1.5 3.1,2 6.5,2 2.6,0 5.2,0.6 5.8,1.2 0.5,0.7 1.3,3.6 1.7,6.5 0.7,5.8 3.2,8.8 6.3,7.9 2.1,-0.7 2,-1.8 -0.7,-10.6 -1.5,-4.7 -1.4,-5 0.8,-5 2.5,0 6.6,-3.4 5.8,-4.7 -0.4,-0.6 -2.6,-0.8 -5.3,-0.5 -2.5,0.2 -7.6,-0.1 -11.3,-0.8 -5.3,-1 -7.2,-1 -9,0 -1.7,0.8 -2.6,0.9 -3.4,0.1 -1.3,-1.3 -3.5,-1.3 -6.3,0 z"
     inkscape:export-xdpi="144"
     inkscape:export-ydpi="144" />
  <path
     style="fill:#000000;stroke:none;stroke-width:0.1"
     inkscape:connector-curvature="0"
     id="path154"
     d="m 723.28983,1917.9271 c -0.3,0.8 0,2.6 0.6,4.1 0.5,1.5 1,6.2 1,10.5 0,7.9 0.9,10.1 4.2,10.1 2,0 2.2,-0.7 1.9,-6.3 -0.2,-2 0,-3.7 0.3,-3.7 0.6,0 5.8,3 10.1,5.8 6.9,4.4 12.5,4.9 14.5,1.2 1.1,-2.1 0.5,-5.1 -2.6,-11.5 -1.3,-2.8 -2.5,-6.4 -2.6,-8 -0.3,-2.6 -0.7,-3 -3.3,-3 -4.3,0 -4.3,2.3 -0.1,10.6 3,5.8 3.3,7.1 2,7.6 -1.9,0.7 -5.3,-0.8 -12.1,-5.3 -4.2,-2.8 -5.5,-4.3 -6.5,-7.7 -0.6,-2.3 -1.7,-4.5 -2.3,-4.9 -1.6,-1.2 -4.5,-0.9 -5.1,0.5 z"
     inkscape:export-xdpi="144"
     inkscape:export-ydpi="144" />
  <path
     style="fill:none;stroke:none;stroke-width:0.75px;stroke-linecap:butt;stroke-linejoin:miter;stroke-opacity:1"
     d="m 1108.1568,1688.4534 16.6049,19.6636 67.2934,136.3348 317.6774,4.8067 -5.2436,-158.6203 -17.4788,1.7479 -316.9203,-3.859 z"
     id="path1085"
     inkscape:connector-curvature="0" />
  <path
     style="opacity:1;vector-effect:none;fill:#aaccff;fill-opacity:1;stroke:none;stroke-width:0.88082212;stroke-linecap:square;stroke-linejoin:miter;stroke-miterlimit:4;stroke-dasharray:none;stroke-dashoffset:0;stroke-opacity:1"
     d="m 2005.8034,2462.7484 c -0.1646,-1.7073 -0.4405,-1.9606 -2.8044,-2.575 -1.4602,-0.3794 -7.0103,-0.7014 -12.5265,-0.7266 -5.4476,-0.025 -12.7659,-0.3442 -16.263,-0.7095 -5.924,-0.6187 -6.4114,-0.5913 -7.1371,0.4011 -0.4284,0.5859 -0.7789,1.9327 -0.7789,2.9931 v 1.9278 h -10.4242 -10.4241 l -0.3613,-1.4398 c -0.6182,-2.4631 -2.0111,-2.7224 -15.1038,-2.812 -13.1643,-0.09 -15.5404,0.2905 -15.5404,2.4895 0,1.1041 -0.364,1.1794 -5.6807,1.1755 -3.1243,0 -7.4503,-0.1713 -9.6133,-0.3755 -3.637,-0.3435 -3.9327,-0.4747 -3.9327,-1.7438 v -1.3723 h -14.8094 c -8.1451,0 -15.224,0.1591 -15.7309,0.3536 -0.5069,0.1946 -0.9216,0.8806 -0.9216,1.5246 0,0.9299 -0.2698,1.0985 -1.3109,0.8195 -0.721,-0.1932 -5.8336,-0.3549 -11.3612,-0.3592 -8.2912,-0.01 -10.0504,-0.1528 -10.0504,-0.8356 0,-1.2694 -5.434,-1.6173 -21.9059,-1.4024 -11.4898,0.1499 -14.8342,0.3663 -15.6085,1.0098 -0.8094,0.6725 -3.1421,0.7533 -13.0517,0.452 -6.6365,-0.2017 -13.115,-0.6688 -14.3968,-1.0378 -1.693,-0.4875 -8.5457,-0.559 -25.053,-0.2614 -12.7728,0.2303 -41.0131,0.1109 -64.4936,-0.2727 -40.4425,-0.6607 -41.9343,-0.7247 -46.9014,-2.0118 -4.8418,-1.2547 -5.2779,-1.2783 -7.7522,-0.4206 -1.9155,0.664 -5.6041,0.9626 -13.6917,1.1083 l -11.07,0.1996 -0.8739,-1.9079 c -1.227,-2.6788 -3.3761,-3.3072 -6.9584,-2.0349 -1.5725,0.5585 -4.5077,0.9985 -6.661,0.9985 h -3.8497 l -3.228,-6.4365 c -3.0829,-6.1471 -3.2355,-6.6645 -3.394,-11.5069 -0.2021,-6.1774 -1.2404,-8.6526 -7.5686,-18.0431 -2.4328,-3.6101 -4.6953,-7.5741 -5.0278,-8.809 -0.7608,-2.8253 -2.4174,-4.9562 -4.5349,-5.8333 -1.288,-0.5336 -2.3627,-2.1261 -4.9721,-7.3682 -1.8308,-3.6781 -3.3288,-6.9162 -3.3288,-7.1957 0,-0.2795 0.507,-0.6408 1.1267,-0.8029 1.5657,-0.4094 2.0843,-3.7439 1.1737,-7.5453 -0.57,-2.3794 -1.3046,-3.6015 -3.2491,-5.4051 -1.6355,-1.517 -3.4074,-4.1608 -5.0761,-7.5741 -2.9099,-5.952 -5.0716,-8.4481 -7.316,-8.4481 -1.4071,0 -2.0063,-0.9553 -7.4947,-11.9475 -3.2809,-6.5712 -5.9653,-12.0636 -5.9653,-12.2055 0,-0.1418 0.9092,0.122 2.0204,0.5863 3.8935,1.6268 6.1363,0.8368 6.1363,-2.1614 0,-1.1189 -1.087,-2.8983 -3.5771,-5.8554 -4.0698,-4.8332 -7.2306,-9.605 -11.1503,-16.833 -3.8375,-7.0764 -7.5333,-11.883 -10.3467,-13.4563 -1.9321,-1.0804 -2.8461,-2.2206 -4.6854,-5.8447 -1.3914,-2.7416 -2.285,-5.3162 -2.285,-6.5835 0,-2.4767 -0.838,-4.1961 -5.2458,-10.7626 -1.8284,-2.7238 -3.869,-6.001 -4.5347,-7.2828 -2.6258,-5.0558 -8.7958,-11.1438 -11.9289,-11.7704 -1.8834,-0.3767 -3.1734,-2.1803 -2.0542,-2.872 2.0748,-1.2823 41.9743,-1.8006 57.2451,-0.7436 8.4397,0.5841 9.3499,0.5511 11.1221,-0.4032 1.821,-0.9807 3.1101,-0.9997 22.7973,-0.3365 11.4769,0.3866 34.2384,0.9624 50.5811,1.2794 39.5524,0.7673 69.2002,1.6341 79.5286,2.3251 12.9586,0.8669 30.8617,1.6378 60.8846,2.6215 15.0609,0.4934 32.1027,1.1829 37.8707,1.5321 15.3416,0.9289 115.4683,1.2957 151.516,0.5551 24.2408,-0.4981 31.6573,-0.8286 34.6334,-1.5437 7.1873,-1.7268 9.374,-2.0182 10.5242,-1.4027 1.1881,0.6359 2.5752,4.8067 3.1905,9.5936 0.2059,1.6023 0.8599,5.1417 1.4533,7.8655 0.9167,4.2078 1.1748,9.5947 1.7172,35.8316 0.351,16.9836 0.8685,33.7632 1.1499,37.2881 1.1396,14.2732 2.9276,75.5911 2.9349,100.6488 v 15.5853 h -1.711 c -1.5044,0 -1.733,-0.2285 -1.8935,-1.8935 z m -271.9782,-39.743 c 1.7625,-0.4589 5.0665,-1.4968 7.3422,-2.3064 3.1485,-1.1201 6.0736,-1.6021 12.2352,-2.0158 9.8124,-0.6588 13.2563,-1.7918 17.9612,-5.909 4.4452,-3.8899 6.103,-3.8004 6.9954,0.3777 0.7169,3.3568 4.0419,5.4412 10.9583,6.8698 10.5816,2.1857 25.1102,-0.2489 29.4808,-4.9401 1.6988,-1.8235 1.7498,-7.3228 0.099,-10.7033 -1.8252,-3.7379 -7.4444,-6.7963 -14.6142,-7.9539 -3.3856,-0.5467 -9.1493,0.4789 -10.9117,1.9416 -2.4892,2.0658 -1.8833,6.7893 1.0665,8.3147 2.141,1.1071 7.3926,1.0907 12.1819,-0.038 4.4599,-1.0512 5.2773,-0.8413 5.2773,1.3549 0,3.3322 -2.6231,4.756 -11.0259,5.9847 -7.6257,1.115 -13.7242,-0.4536 -16.5612,-4.2596 -1.1041,-1.4812 -1.1439,-1.8747 -0.5018,-4.9523 1.0991,-5.2677 3.8419,-10.3365 6.0969,-11.2673 1.0402,-0.4294 3.4865,-1.8713 5.4362,-3.2043 1.9497,-1.3329 4.7612,-2.9615 6.2477,-3.6191 2.7622,-1.2219 5.2358,-4.2287 4.677,-5.685 -0.8875,-2.3129 -8.0355,-0.8211 -14.7609,3.0805 -2.0829,1.2084 -6.0668,4.4429 -8.8533,7.1878 l -5.0662,4.9907 -6.0037,-5.9997 -6.0037,-5.9997 -10.8939,-0.153 -10.894,-0.153 -2.889,2.8376 c -5.6641,5.5634 -7.8839,12.1973 -7.2599,21.6967 0.3404,5.1825 0.3102,5.3623 -1.0237,6.0761 -0.756,0.4046 -3.7431,0.8512 -6.6381,0.9924 -6.999,0.3414 -9.5181,-0.4855 -11.0793,-3.6367 -1.0266,-2.0722 -1.1536,-3.5255 -1.146,-13.1091 0.01,-8.5659 0.2359,-11.7228 1.1157,-15.3779 l 1.1072,-4.5992 -1.5715,-1.3518 c -1.9708,-1.6952 -5.6479,-2.8278 -7.5945,-2.3393 -2.0535,0.5154 -2.3723,2.7586 -1.9101,13.4397 0.5125,11.8427 2.1062,31.4006 2.5986,31.8911 0.2192,0.2182 2.3648,1.0636 4.7681,1.8786 3.7163,1.2603 5.4153,1.4828 11.3613,1.4877 4.2062,0 8.2681,-0.3266 10.1959,-0.8286 z m 140.9958,-7.2508 c 1.8494,-1.3285 2.7991,-3.8356 1.9631,-5.1821 -1.0896,-1.7549 -3.6577,-2.5356 -9.7773,-2.9724 -6.7264,-0.4801 -8.7328,-1.317 -11.5687,-4.8258 -1.3248,-1.6391 -1.6472,-2.5035 -1.3602,-3.6468 0.5283,-2.105 4.5199,-4.7986 8.2622,-5.5756 2.2024,-0.4572 3.784,-1.2409 5.201,-2.5774 2.3978,-2.2613 2.5343,-3.3769 0.6448,-5.2664 -2.1134,-2.1134 -4.8917,-2.38 -9.6721,-0.928 -3.4807,1.0572 -4.7133,1.8207 -8.1052,5.0205 -4.8519,4.577 -5.8049,6.484 -4.7481,9.5012 1.9426,5.5465 5.1985,11.5623 7.2116,13.3251 4.637,4.0603 18,5.9645 21.9489,3.1277 z m -38.7863,-0.3863 c 1.145,-1.145 1.1515,-3.6941 0.027,-10.737 -2.2644,-14.1878 -6.85,-21.5621 -11.8123,-18.9961 -0.8883,0.4594 -1.9905,1.5366 -2.4492,2.3937 -0.745,1.392 -0.7189,1.7551 0.2437,3.3998 3.9628,6.7704 4.8579,9.3411 5.5807,16.0266 0.2892,2.6747 0.9479,5.5072 1.4637,6.2945 1.5943,2.4332 5.2739,3.2906 6.946,1.6185 z m -155.7784,-62.6523 c 3.0833,-0.6612 5.2109,-2.1817 5.2109,-3.7239 0,-1.1205 -3.836,-5.3812 -5.2485,-5.8295 -0.5938,-0.1884 -2.7364,0.098 -4.7614,0.6375 -9.3563,2.4905 -12.4591,2.1604 -16.5514,-1.7607 -4.6805,-4.4847 -3.7136,-5.0306 11.4341,-6.4558 12.9027,-1.214 13.9619,-1.6081 13.9619,-5.1946 0,-3.5378 -4.2152,-4.3932 -13.3904,-2.7173 -10.1268,1.8497 -13.993,1.5989 -13.993,-0.9078 0,-2.4882 1.5967,-5.4184 3.3219,-6.096 1.0753,-0.4224 5.1018,-0.539 11.8264,-0.3425 11.0077,0.3216 15.2708,1.1938 19.3269,3.9541 2.7224,1.8526 9.8044,8.4974 9.8044,9.1991 0,0.3026 -0.7776,2.1945 -1.728,4.2042 -2.0696,4.3762 -2.7967,8.32 -1.7633,9.565 1.457,1.7557 4.4761,0.9546 8.027,-2.1299 1.1789,-1.0241 2.5771,-1.6624 3.6414,-1.6624 1.8154,0 4.0581,1.7479 4.0581,3.1628 0,2.4008 3.8298,3.4721 6.2793,1.7565 2.5917,-1.8153 1.4869,-5.6094 -3.1555,-10.8364 -3.6695,-4.1316 -4.3736,-5.932 -3.3997,-8.6923 1.0337,-2.9299 2.3912,-5.4842 3.5084,-6.6013 0.9856,-0.9857 6.4955,-1.2849 10.1607,-0.5519 2.3553,0.4711 2.9545,1.8132 4.6438,10.4013 1.8422,9.3657 2.1657,10.1764 4.4392,11.1263 1.0762,0.4497 2.7163,0.8176 3.6447,0.8176 2.0196,0 4.7583,-1.9962 4.7583,-3.4682 0,-0.5792 -1.0283,-3.1164 -2.2853,-5.6383 -3.3164,-6.6541 -4.4837,-13.0974 -2.5213,-13.9172 0.5607,-0.2343 5.2145,-0.6119 10.3416,-0.8392 10.1837,-0.4513 12.0515,-0.9815 14.2284,-4.0387 1.5573,-2.1869 1.5316,-3.3478 -0.093,-4.2174 -1.3744,-0.7356 -20.7187,-0.7355 -40.062,2e-4 l -9.6134,0.3656 -3.6112,6.1176 c -4.4144,7.4783 -4.4965,7.5742 -6.4912,7.5742 -2.3725,0 -3.0067,-1.0134 -3.0067,-4.8041 0,-5.5542 -2.0393,-6.8385 -12.8178,-8.0722 -8.2924,-0.9491 -27.1062,-0.981 -30.3001,-0.051 -4.5898,1.3361 -5.0833,2.0228 -6.9951,9.735 -0.9516,3.8388 -1.8999,8.6183 -2.1073,10.6211 -0.2074,2.0028 -0.5963,3.6414 -0.8642,3.6414 -0.9086,0 -2.3332,-3.5588 -3.1651,-7.9064 -0.4557,-2.3816 -1.0922,-9.7702 -1.4146,-16.419 -0.7366,-15.1933 -0.9612,-16.8824 -2.3435,-17.6222 -1.3426,-0.7185 -6.9875,-0.7552 -8.097,-0.053 -1.0639,0.6737 -0.7261,3.2446 2.5948,19.7469 1.4384,7.1475 2.4621,13.2433 2.275,13.546 -0.9506,1.5382 -4.4269,-0.1648 -12.3054,-6.0282 -6.2712,-4.6672 -7.7431,-6.5289 -11.8426,-14.9785 -1.7187,-3.5425 -2.3139,-5.4149 -2.0909,-6.5771 0.25,-1.3029 0.054,-1.7206 -0.9891,-2.109 -1.9481,-0.7254 -3.6269,0.1223 -3.6576,1.8468 -0.014,0.8115 -0.9976,2.6609 -2.1848,4.1098 -1.1873,1.4488 -2.1587,2.8603 -2.1587,3.1366 0,0.2762 0.9832,2.7228 2.1849,5.4369 l 2.1848,4.9346 v 9.322 c 0,5.5445 -0.3208,10.9102 -0.7916,13.2411 -0.7749,3.8359 -0.7602,3.9729 0.6947,6.4554 2.5419,4.3375 3.0052,4.47 5.8135,1.6638 l 2.4402,-2.4385 0.2913,-10.5147 0.2914,-10.5147 3.7666,1.9277 c 2.0716,1.0603 5.0867,3.1932 6.7002,4.7399 1.6135,1.5466 3.9533,3.3403 5.1997,3.986 1.2463,0.6456 4.6804,3.5096 7.6313,6.3643 2.9508,2.8547 5.826,5.1904 6.3892,5.1904 0.5632,0 1.8138,-0.6646 2.7791,-1.4768 l 1.755,-1.4768 3.2814,3.4703 c 3.1817,3.365 3.7607,3.6769 9.1076,4.9064 2.3895,0.5495 14.9073,0.3801 17.8029,-0.241 z m 146.2466,-1.4606 c 4.6167,-1.3705 9.6082,-4.0437 12.4614,-6.6737 3.0198,-2.7836 3.9296,-5.5874 3.6911,-11.376 -0.2418,-5.8707 0.2342,-6.3187 6.2283,-5.8614 7.3938,0.5641 7.1293,0.367 6.6213,4.9324 -1.058,9.5086 -0.2693,15.5975 2.2801,17.6028 1.8808,1.4795 2.222,1.4513 4.0038,-0.3305 1.3193,-1.3193 1.4531,-1.843 1.2275,-4.8067 -0.1392,-1.8293 -0.5893,-4.768 -1.0003,-6.5305 -1.0572,-4.5335 -0.2101,-7.1358 3.778,-11.6053 3.3062,-3.7053 3.732,-4.7071 2.4524,-5.7692 -1.2605,-1.0461 -7.9109,-1.8423 -15.5653,-1.8636 -4.0056,-0.011 -11.1628,-0.2579 -15.9049,-0.5483 -7.5099,-0.4599 -8.9379,-0.711 -11.07,-1.9462 -1.3463,-0.78 -5.0882,-2.2325 -8.3154,-3.2277 -8.8585,-2.732 -9.7876,-4.5501 -3.5772,-6.9995 7.3714,-2.9074 11.4609,-3.5178 20.4255,-3.0485 3.3924,0.1776 5.6242,-1.461 5.6242,-4.1292 0,-3.7893 -3.7311,-4.9574 -13.9639,-4.3719 -7.6281,0.4364 -12.7689,1.9618 -17.5747,5.2149 -5.2192,3.5329 -7.1957,6.2015 -7.0513,9.5204 0.1315,3.0212 1.7603,7.0314 3.4727,8.5503 0.6462,0.5732 4.6637,1.9624 8.9278,3.0873 8.8986,2.3474 20.405,7.4633 21.5351,9.5749 2.3239,4.3424 -2.7675,10.5647 -9.9582,12.1701 -4.1412,0.9246 -6.6626,-0.012 -8.1726,-3.0343 -1.622,-3.2469 -3.2432,-4.4586 -5.9862,-4.4743 -2.59,-0.015 -5.9467,1.8099 -6.4925,3.5295 -0.5974,1.8822 2.3251,6.1434 5.7923,8.4455 2.9503,1.9589 10.1048,4.87 12.0326,4.8959 0.5026,0.01 2.3379,-0.4105 4.0784,-0.9272 z m 74.9733,-0.57 c 1.8595,-1.2027 1.6669,-3.0504 -0.9587,-9.1983 -1.2484,-2.923 -2.5845,-6.4943 -2.9691,-7.9363 -1.6434,-6.1601 -11.1335,-22.2927 -13.5684,-23.0655 -2.2751,-0.7221 -4.5992,-0.3475 -5.9981,0.9666 -1.3962,1.3117 -2.1567,4.1301 -2.8872,10.6998 -0.4971,4.4709 -1.0241,5.7769 -3.4969,8.6658 -2.4063,2.8112 -3.3192,5.7781 -3.2927,10.7008 0.022,4.1594 0.7435,5.8606 2.6914,6.3495 1.7601,0.4418 3.4399,-0.4632 6.1521,-3.3143 2.1115,-2.2196 2.2338,-2.2633 6.3403,-2.2633 5.808,0 7.8092,0.9595 9.6732,4.638 2.7337,5.3947 4.5285,6.2058 8.3141,3.7572 z m 60.5078,-2.3318 c 2.0177,-4.8291 -1.3981,-7.3592 -11.4215,-8.4599 -3.3646,-0.3695 -6.9876,-1.0243 -8.051,-1.4551 -1.6253,-0.6585 -1.904,-1.0408 -1.7479,-2.3986 0.303,-2.6367 2.1876,-3.2852 17.0678,-5.8733 1.8313,-0.3186 2.4353,-0.7405 2.8832,-2.0143 1.0348,-2.9429 -0.3979,-3.5898 -8.6887,-3.9236 -4.4082,-0.1775 -7.5035,-0.5599 -7.9209,-0.9787 -0.3768,-0.378 -0.7167,-1.6889 -0.7552,-2.9131 -0.063,-1.9943 0.1423,-2.3298 1.9724,-3.2254 1.985,-0.9714 9.9087,-2.1123 23.0105,-3.3131 9.9758,-0.9143 12.3678,-2.2466 10.504,-5.8509 -1.4903,-2.8818 -7.2962,-3.8039 -12.8876,-2.0467 -1.573,0.4944 -6.3992,1.1502 -10.7249,1.4574 -8.5801,0.6093 -12.6951,1.5525 -15.7475,3.6096 -2.4069,1.6219 -3.2945,3.9425 -3.7874,9.9014 -0.2902,3.5086 -0.7084,4.9917 -1.889,6.7002 -1.7387,2.516 -2.282,7.008 -1.6084,13.2976 0.4669,4.3599 0.01,4.0131 8.466,6.4172 6.2048,1.7639 13.3412,3.0423 17.3629,3.1104 3.0118,0.051 3.1102,3e-4 3.9632,-2.0411 z m -39.5041,-7.9278 c 0.976,-0.976 0.8846,-8.1341 -0.1747,-13.6696 -0.4806,-2.5116 -0.8739,-4.7632 -0.8739,-5.0036 -10e-5,-0.2403 1.7524,-0.437 3.8943,-0.437 4.5237,0 8.9234,-1.7236 8.9234,-3.4959 0,-1.3499 -2.9733,-3.8756 -5.0841,-4.3188 -2.0314,-0.4265 -20.5917,-1.4875 -26.2187,-1.4988 -3.8497,-0.01 -4.2922,0.116 -5.1622,1.4438 -1.0918,1.6664 -0.8,3.5547 0.8671,5.6112 1.0463,1.2906 1.5198,1.385 6.9778,1.39 5.1692,0 5.9551,0.1413 6.7067,1.1653 1.4977,2.0405 2.6867,6.7172 2.6867,10.5675 0,3.7176 1.1506,7.622 2.4987,8.4788 1.0894,0.6923 4.1788,0.5472 4.9589,-0.2329 z m -123.3457,-1.9722 c 1.5363,-1.3903 1.45,-4.0975 -0.158,-4.958 -0.6977,-0.3734 -2.8456,-1.0468 -4.7732,-1.4965 -1.9276,-0.4497 -4.6996,-1.6117 -6.16,-2.5823 -2.4664,-1.6391 -2.9038,-1.7364 -6.151,-1.3682 -4.2636,0.4835 -7.7068,1.7865 -8.4651,3.2035 -1.128,2.1077 -0.6597,4.0065 1.279,5.1855 5.1608,3.1385 21.6815,4.5019 24.4283,2.016 z"
     id="path1087"
     inkscape:connector-curvature="0"
     transform="scale(0.75)" />
  <path
     style="opacity:1;vector-effect:none;fill:#aaccff;fill-opacity:1;stroke:none;stroke-width:0.88082212;stroke-linecap:square;stroke-linejoin:miter;stroke-miterlimit:4;stroke-dasharray:none;stroke-dashoffset:0;stroke-opacity:1"
     d="m 1746.2056,2409.8545 c -3.9484,-1.2873 -5.0212,-2.4144 -5.6354,-5.9208 -0.5074,-2.8968 0.6469,-5.3917 3.9904,-8.6244 l 2.7117,-2.6218 6.4477,-0.1989 c 3.5462,-0.1094 7.2947,-0.04 8.3299,0.1543 2.1749,0.408 6.4082,3.8207 7.5356,6.075 1.6494,3.2978 -1.3804,7.8841 -6.9814,10.5681 -4.0598,1.9453 -11.3953,2.1996 -16.3985,0.5685 z"
     id="path1089"
     inkscape:connector-curvature="0"
     transform="scale(0.75)" />
  <path
     style="opacity:1;vector-effect:none;fill:#aaccff;fill-opacity:1;stroke:none;stroke-width:0.88082212;stroke-linecap:square;stroke-linejoin:miter;stroke-miterlimit:4;stroke-dasharray:none;stroke-dashoffset:0;stroke-opacity:1"
     d="m 1881.3464,2334.5995 c -1.4092,-1.4092 -0.1201,-11.2447 1.474,-11.2447 0.9048,0 5.2013,5.677 6.3165,8.3462 0.6308,1.5097 0.6764,2.2097 0.1826,2.8048 -0.8297,0.9996 -6.9946,1.0722 -7.9731,0.094 z"
     id="path1091"
     inkscape:connector-curvature="0"
     transform="scale(0.75)" />
</svg>
