<?xml version="1.0" encoding="UTF-8" standalone="no"?>
<svg
   xmlns:dc="http://purl.org/dc/elements/1.1/"
   xmlns:cc="http://creativecommons.org/ns#"
   xmlns:rdf="http://www.w3.org/1999/02/22-rdf-syntax-ns#"
   xmlns:svg="http://www.w3.org/2000/svg"
   xmlns="http://www.w3.org/2000/svg"
   xmlns:sodipodi="http://sodipodi.sourceforge.net/DTD/sodipodi-0.dtd"
   xmlns:inkscape="http://www.inkscape.org/namespaces/inkscape"
   inkscape:export-ydpi="144"
   inkscape:export-xdpi="144"
   inkscape:export-filename="C:\xesscorp\MyHDL\pygmyhdl\examples\5_fsm\FSM_counter.png"
   inkscape:version="0.92.2 (5c3e80d, 2017-08-06)"
   sodipodi:docname="FSM_counter.svg"
   id="svg166"
   preserveAspectRatio="xMidYMid meet"
   viewBox="0 0 2550.000000 3300.000000"
   height="3300.000000pt"
   width="2550.000000pt"
   version="1.0">
  <sodipodi:namedview
     inkscape:snap-global="false"
     inkscape:current-layer="svg166"
     inkscape:window-maximized="0"
     inkscape:window-y="94"
     inkscape:window-x="920"
     inkscape:cy="1218.5165"
     inkscape:cx="1882.0754"
     inkscape:zoom="0.30341309"
     showgrid="false"
     id="namedview168"
     inkscape:window-height="1467"
     inkscape:window-width="2033"
     inkscape:pageshadow="2"
     inkscape:pageopacity="0"
     guidetolerance="10"
     gridtolerance="10"
     objecttolerance="10"
     borderopacity="1"
     bordercolor="#666666"
     pagecolor="#ffffff" />
  <defs
     id="defs170" />
  <metadata
     id="metadata2">
Created by potrace 1.15, written by Peter Selinger 2001-2017
<rdf:RDF>
  <cc:Work
     rdf:about="">
    <dc:format>image/svg+xml</dc:format>
    <dc:type
       rdf:resource="http://purl.org/dc/dcmitype/StillImage" />
    <dc:title />
  </cc:Work>
</rdf:RDF>
</metadata>
  <path
     inkscape:connector-curvature="0"
     id="path902"
     d="m 1108.6371,1685.864 37.6961,63.6508 46.3477,100.1111 317.0183,-1.854 -6.1797,-156.3462 z"
     style="fill:#aaccff;stroke:none;stroke-width:0.75px;stroke-linecap:butt;stroke-linejoin:miter;stroke-opacity:1;fill-opacity:1" />
  <path
     sodipodi:nodetypes="cccccc"
     inkscape:connector-curvature="0"
     id="path897"
     d="m 1190.2225,1390.6229 4.8914,196.4534 218.9222,0.4369 2.1848,-150.3177 -4.1723,-48.4878 z"
     style="fill:#aaccff;fill-opacity:1;stroke:none;stroke-width:0.75px;stroke-linecap:butt;stroke-linejoin:miter;stroke-opacity:1" />
  <path
     inkscape:export-ydpi="144"
     inkscape:export-xdpi="144"
     d="m 1283.2898,1240.0271 c -0.6,1.6 2.1,11.2 3.7,13.2 0.6,0.8 1.4,5.3 1.6,10.1 0.6,9.2 1.4,11.3 4.4,11.3 3.5,0 3.5,-3.9 -0.2,-18 -0.6,-2.5 -1.4,-7.2 -1.6,-10.5 -0.3,-3.3 -1,-6.3 -1.7,-6.7 -1.9,-1.3 -5.6,-0.9 -6.2,0.6 z"
     id="path12"
     inkscape:connector-curvature="0"
     style="fill:#000000;stroke:none;stroke-width:0.1" />
  <path
     inkscape:export-ydpi="144"
     inkscape:export-xdpi="144"
     d="m 1299.2898,1240.1271 c -0.3,0.8 0.1,3.6 1,6.2 0.9,2.6 1.8,6.8 2,9.3 1.1,10.2 2.5,18.3 3.5,19.3 0.5,0.5 1.7,0.7 2.6,0.3 1.4,-0.5 1.6,-1.4 1.1,-5.1 -0.6,-3.8 -0.5,-4.5 0.9,-4.5 2,0 6.9,3.3 11.1,7.4 1.6,1.7 4.7,4 6.7,5.1 3.5,1.8 3.8,1.9 5.4,0.2 1.6,-1.6 1.6,-1.9 0.1,-4.4 -0.9,-1.5 -2.8,-3.1 -4.2,-3.4 -1.4,-0.4 -4,-1.9 -5.7,-3.4 -1.8,-1.4 -4.9,-3.5 -7,-4.6 -2.2,-1.1 -3.9,-2.2 -3.9,-2.4 0,-0.3 3,-1.9 6.6,-3.5 3.8,-1.8 6.4,-3.6 6.1,-4.3 -0.7,-2.2 -5.6,-1.9 -10.8,0.7 -7.5,3.8 -7.7,3.7 -7.7,-4.4 0,-4.1 -0.5,-7.7 -1.2,-8.5 -1.6,-1.9 -5.9,-1.9 -6.6,0 z"
     id="path14"
     inkscape:connector-curvature="0"
     style="fill:#000000;stroke:none;stroke-width:0.1" />
  <path
     inkscape:export-ydpi="144"
     inkscape:export-xdpi="144"
     d="m 1264.3898,1252.4271 c -2.2,0.8 -6.6,3.7 -9.6,6.4 -2.6,2.4 -2.7,10.8 -0.1,13 3.6,3.2 6.8,4 15.6,4.2 11.1,0.1 13.9,-0.6 15.4,-3.9 1,-2.2 0.9,-2.5 -1.3,-3.1 -1.4,-0.3 -3.9,-0.1 -5.6,0.5 -7.4,2.6 -19.9,0.7 -19.9,-3.1 0,-5.1 5.4,-8.8 12.9,-8.8 3,0 4.3,-0.5 5.1,-2 0.8,-1.5 0.6,-2.1 -0.9,-3 -2.1,-1.1 -8.4,-1.2 -11.6,-0.2 z"
     id="path16"
     inkscape:connector-curvature="0"
     style="fill:#000000;stroke:none;stroke-width:0.1" />
  <path
     sodipodi:nodetypes="ccccccccccccccccssccscccccccsccsscccccccccccccccccccccccccccccccccsccccccccccscccccccccc"
     inkscape:export-ydpi="144"
     inkscape:export-xdpi="144"
     inkscape:connector-curvature="0"
     id="path1063"
     d="m 1413.3898,1529.8271 c -0.4,13.4 -0.9,30.3 -1,37.6 -0.2,9.8 -0.6,13.7 -1.6,14.6 -3.8,3.5 -12,4.5 -42.9,5.1 -28.7,0.5 -48.5,-0.1 -76.5,-2.5 -17.7,-1.5 -80.9,-2.2 -87.5,-1 -4.5,0.8 -5.7,0.8 -6.5,-0.4 -0.7,-0.9 -0.9,-8.1 -0.7,-19.7 0.2,-11 -0.2,-21.6 -0.9,-26.4 -1.4,-9.8 1.4403,-9.3815 0.5403,-16.7815 -0.4,-3.3 0.1109,-7.4 -0.2891,-9 -0.5,-1.7 -0.726,-10.1924 -1.726,-17.5924 -2.3,-18.4 0.3663,-37.1691 -1.4219,-48.0464 2.5,-6.8 0.3967,-55.3234 -2.0033,-55.7234 -4,-0.7 -4.937,13.4722 -4.1076,23.9992 -0.5,12.7 2.6143,18.7739 1.3143,22.1739 -0.071,4.7739 -0.7076,7.7184 -0.7076,26.4184 0,18.7 -3.2588,20.2707 -4.5588,20.8707 -1.3,0.6 -72.0403,2.3815 -88.4403,2.3815 -86.3,-0.1 -101.39997,-0.5 -115.69997,-2.8 -5.2,-0.8 -8.8,0.2 -8.8,2.5 0,1 0.6,2.4 1.4,3 1.2,1 1.4,5.7 1,28.4 -0.3,15 -0.7,49.4 -0.9,76.4 -0.2,27.1 -0.6,49.7 -0.9,50.1 -0.3,0.5 -0.6,13.6 -0.7,29.2 -0.1,17.8 -0.7,31.1 -1.5,35.7 -1.1,6.8 -1.7,13.4 -1.5,17.4 0.1,1.7 3.7,5.9 5.1,5.9 1.8,0 4.3,-4.9 3.3,-6.3 -2,-2.5 -2.2,-6.6 -0.9,-15.3 0.9,-5.4 1.4,-16.5 1.4,-28.4 0,-10.7 0.5,-35.5 1.1,-55 0.6,-19.5 1,-46.5 0.9,-60 -0.1,-38.4 1,-74.3 2.5,-75.7 0.9,-0.9 2.5,-0.9 6.2,-0.2 8,1.6 177.24027,1.8185 191.64027,0.2185 5,-0.5 7.1,-0.4 7.8,0.5 0.6,0.7 1.2,4.3 1.3,8.1 0.3,6.6 -0.6403,19.4815 2.2597,35.3815 1.7,8.8 1.9,31.4 0.5,42.7 -0.6,4.1 -0.8,8.2 -0.5,9.1 1.1,3.2 5.9,4.3 14.8,3.2 10.4,-1.3 84.4,-0.8 91.7,0.6 3,0.5 10.2,1.4 16,1.8 13.6,1 74.9,0.9 90.9,-0.2 l 12.3,-0.8 1.9,-3.1 c 1.6,-2.6 1.8,-5 1.8,-16.6 -0.1,-7.4 -0.1,-14 0,-14.5 0.5,-2.9 0,-52.7 -0.5,-63.1 -0.6,-9.8 -0.4,-13 0.9,-16.8 1.3,-3.9 1.5,-8.1 1.1,-25.4 -0.3,-12.4 -1.1,-23.3 -2,-27.2 -2.1,-9.8 -2.6,-15 -2.8,-32.9 -0.1,-12.2 0.7359,-7.0215 -0.1641,-7.3215 -3.0699,-0.1382 -0.11,-2.2606 -6.3359,-1.3785 -0.5,0.3 -13.9,0.8 -29.7,1 -15.9,0.3 -31.2,1 -34.1,1.6 -3.3,0.7 -12.6,1 -26.5,0.6 -11.7,-0.3 -21.4,-0.5 -21.4,-0.5 -1.1,-0.6 -1.9,-66.5 -1.1,-91.5 0.2,-5.2 -0.3,-5.8 -4.3,-4.7 l -2.5,0.7 v 47.9 47.9 h -43.5 c -23.9,0 -46.5,-0.3 -50.1,-0.8 -6.3,-0.8 -6.6,-0.7 -9.5,1.9 l -0.9336,2.8092 1.8538,7.6899 c 1.9185,2.9294 3.0798,-2.2958 3.0798,-2.2958 1.2,-0.5 6.6,-3.0033 12.1,-2.7033 10.5,0.5 33.2,0.3 57,-0.5 l 14,-0.5 4.8,5.9 c 2.6,3.3 5.5,7.7 6.5,9.8 2.5,5.5 7.1,12.3 8.2,12.3 1.1,0 4.1,-4.7 8,-12.3 1.4,-2.6 4.9,-7.2 7.8,-10.3 l 5.2,-5.6 6.3,0.6 c 9.5,1.1 11.1,1.1 27.2,-0.2 19.3,-1.6 59.1,-2 60.3,-0.7 0.6,0.5 1.5,6.8 2,14 0.6,7.1 1.8,15.7 2.7,19 1.3,4.8 1.6,11.4 1.7,32.5 0,29 0.218,46.4883 -0.682,47.2883"
     style="fill:#000000;stroke:none;stroke-width:0.1" />
  <path
     inkscape:export-ydpi="144"
     inkscape:export-xdpi="144"
     inkscape:connector-curvature="0"
     id="path1061"
     d="m 1302.7898,1391.5271 c 1,0.7 -2.1,7.9 -4,9.1 -0.4,0.3 -1.5,2.2 -2.4,4.3 -1.8,4.4 -4.1,4.8 -5.7,0.9 -0.7,-1.5 -2.7,-4.8 -4.5,-7.3 -3.6,-5.1 -4,-6.5 -2,-7.3 1.7,-0.7 17.3,-0.5 18.6,0.3 z"
     style="fill:#000000;stroke:none;stroke-width:0.1" />
  <path
     inkscape:export-ydpi="144"
     inkscape:export-xdpi="144"
     inkscape:connector-curvature="0"
     id="path1093"
     d="m 1105.8562,2002.8823 84.0439,-155.1104 317.1524,0.7095 -0.7521,156.8727 -75.7013,4.0169 z"
     style="fill:#ffdd55;stroke:none;stroke-width:0.75px;stroke-linecap:butt;stroke-linejoin:miter;stroke-opacity:1" />
  <path
     inkscape:export-ydpi="144"
     inkscape:export-xdpi="144"
     d="m 1448.3898,1468.7271 c -2.2,1.1 -5,2.7 -6.2,3.5 -6.2,3.9 -11.2,6.2 -14.8,6.8 -3.6,0.6 -4.2,1.1 -5.2,4.4 -1.6,5 -0.3,6.8 5.9,8.7 2.8,0.8 5.8,2.1 6.7,2.9 0.9,0.8 3.7,2.1 6.3,3 2.6,0.8 6.7,2.5 9.2,3.7 8,3.7 8.9,2.5 7.3,-10.2 -0.8,-6.9 -0.6,-7.1 9.4,-5.8 6.6,0.9 70,1.2 141.3,0.6 l 24.9,-0.2 0.5,15.5 c 0.3,8.5 0.4,16.6 0.4,18 -0.5,9.2 0.1,33.8 0.9,35.8 0.5,1.3 0.9,10.4 0.8,20.1 -0.1,9.7 0.4,23.9 1.2,31.6 1.5,15.5 1.7,54.7 0.6,95 -0.8,27.6 -2,40.9 -3.8,43.1 -0.9,1.1 -4.6,1.4 -15.7,1.4 -12.1,0 -14.8,-0.3 -16.4,-1.7 -1.7,-1.5 -4.2,-1.5 -32.1,-0.4 -16.6,0.7 -36.9,1.4 -45.2,1.4 l -15,0.2 0.3,-15.7 c 0.2,-9.5 -0.1,-17.9 -0.9,-21.5 -0.6,-3.2 -1.2,-8.9 -1.3,-12.7 -0.2,-5.8 -0.6,-7.1 -2.5,-8.7 -2.8,-2.3 -5,-2.4 -7.8,-0.4 -2.5,1.8 -17.6,2.4 -63.3,2.8 -38.4,0.2 -61.8,-0.2 -90,-1.7 -13.8,-0.7 -23.9,-0.8 -28.3,-0.2 -6.7,0.9 -17.7,0 -33.2,-2.5 -3.3,-0.6 -27.8,-1.2 -54.5,-1.5 -26.7,-0.3 -51.4,-0.9 -55,-1.4 -5.2,-0.8 -6.7,-0.7 -8,0.5 -1.3,1.2 -2.7,1.3 -6.7,0.6 -5.1,-1 -51.2,-0.6 -52.2,0.5 -0.9,0.9 -1.9,17.3 -2.6,43.4 -0.7,25.4 -0.9,27 -2.7,25.2 -0.7,-0.7 -2.3,-1.2 -3.6,-1.2 -3.5,0 -10.4,-2.1 -12.4,-3.8 -1.8,-1.5 -16.6,-8.2 -18.1,-8.2 -0.5,0 -2,-0.9 -3.4,-2 -2,-1.6 -2.9,-1.7 -4.5,-0.9 -1.8,1 -2,1.8 -1.4,7 0.3,3.3 0.9,7.1 1.2,8.6 l 0.7,2.6 -5.4,-0.6 c -19.1,-2.3 -25.5,-2.8 -34.9,-2.7 -12.8,0.1 -36.59997,-0.8 -39.89997,-1.6 -2.2,-0.5 -2.3,-0.8 -2,-8.6 0.3,-6.8 0.1,-8.2 -1.3,-9.2 -1.4,-0.8 -2.1,-0.7 -3.4,0.5 -2.1,2.2 -2.8,17.5 -0.9,20.5 2.1,3.2 8.4,4.2 32.99997,5 58.8,1.8 56,1.6 56.3,4.2 0.2,1.4 -0.5,3.3 -1.8,4.7 -4.9,5.2 0.1,8.3 6.7,4.2 2.1,-1.3 5.6,-3 7.8,-3.7 2.2,-0.7 5.1,-1.8 6.5,-2.5 1.4,-0.7 4.3,-1.8 6.5,-2.5 2.2,-0.7 6.6,-2.6 9.9,-4.2 3.2,-1.6 6,-2.8 6.2,-2.5 1.3,1.3 -0.2,53.3 -2.3,78.2 -1.2,15.7 -1.4,29.4 -0.9,79.5 0.4,33.3 0.9,62.1 1.1,64 0.3,1.9 0.8,9 1.1,15.7 0.8,14.3 1.4,15.4 7.2,13.3 3.6,-1.3 16.8,-1.5 27.7,-0.4 6.4,0.7 23.5,1.1 79.5,1.9 142.8,2 199.6,3.2 211.4,4.5 9.3,1.1 42.8,-0.2 51.6,-2 2.5,-0.5 10.2,-1.3 17.2,-1.9 6.9,-0.5 13.6,-1.5 14.8,-2.1 2,-1.1 2.1,-1.7 1.4,-5.8 -0.4,-2.6 -0.8,-11.5 -0.9,-19.7 -0.1,-8.3 -0.3,-20.2 -0.4,-26.5 -0.2,-6.3 -0.2,-15.4 -0.2,-20.2 l 0.1,-8.7 12.3,0.6 c 6.7,0.3 21.2,0.4 32.2,0.2 11,-0.2 39.6,-0.3 63.5,-0.4 40.4,0 43.8,0.1 46.3,1.8 2.6,1.7 2.8,2.2 2.1,6.3 -0.7,5.1 0.6,7.4 4.2,7.4 1.4,0 3.1,-1.1 4.4,-2.9 1.1,-1.7 3.1,-3.3 4.3,-3.7 1.2,-0.3 2.9,-1.2 3.7,-1.9 0.8,-0.8 3.8,-1.9 6.5,-2.6 2.8,-0.6 6.8,-2.3 9.1,-3.5 2.2,-1.3 5,-2.4 6.1,-2.4 4.4,0 8.3,-2.1 8.3,-4.5 0,-3.2 -1.3,-3.9 -9,-4.7 -11.8,-1.3 -26.9,-4.4 -33.2,-6.9 -5.3,-2.1 -8.4,-2.4 -9.2,-1 -0.3,0.4 0.1,3.4 0.9,6.6 0.9,3.2 1.4,5.9 1.3,6.1 -0.2,0.1 -4.6,-0.1 -9.8,-0.5 -5.2,-0.4 -23.7,-0.6 -41,-0.3 -93.6,1.3 -101.7,1.3 -102.9,-0.2 -0.8,-1 -1.1,-3.6 -0.7,-7.8 2.8,-34.5 3.3,-93.6 1,-133.2 -0.8,-13.2 -1.2,-24.1 -1,-24.3 0.2,-0.2 5,-0.6 10.7,-0.8 5.7,-0.1 12,-0.5 13.9,-0.9 1.9,-0.3 17.4,-0.8 34.5,-1.1 17,-0.4 31.1,-0.8 31.3,-1 0.2,-0.2 1.2,0.5 2.2,1.5 1.6,1.6 3.6,1.8 18.7,1.7 l 16.8,-0.2 1.1,-4 c 4,-14.2 4.2,-17.6 5,-92.5 0.3,-28.9 0,-40.6 -1.1,-51 -0.8,-7.4 -1.5,-20.9 -1.5,-30 0,-9.1 -0.3,-20.1 -0.8,-24.5 -1.4,-12.2 -0.9,-57.2 0.6,-58.7 1.8,-1.8 1.5,-4.6 -0.8,-7.5 -1.1,-1.4 -2,-3.2 -2,-3.9 0,-0.7 -0.8,-1.5 -1.8,-1.8 -0.9,-0.3 -13.4,-0.3 -27.7,0.1 -37,0.9 -149.7,0.9 -151.7,0.1 -1.3,-0.6 -1.6,-2 -1.5,-6.5 0.2,-5.1 0,-5.8 -1.8,-6.1 -1.1,-0.1 -3.8,0.7 -6,1.9 z m -9,18.9 c 0.8,1.3 -2,2.4 -4.1,1.6 -2,-0.8 -0.9,-2.6 1.6,-2.6 1,0 2.2,0.5 2.5,1 z m 12.2,6.6 c -0.3,0.3 -1.2,0.4 -1.9,0.1 -0.8,-0.3 -0.5,-0.6 0.6,-0.6 1.1,-0.1 1.7,0.2 1.3,0.5 z m -281.5,194.3 c 1.3,0.5 23,1.2 48.3,1.6 25.3,0.4 51.2,1.1 57.5,1.6 6.3,0.6 26.1,1.4 44,2 17.9,0.5 35.4,1.2 39,1.5 13.8,1.1 126.4,0.6 131,-0.6 7.9,-2 8.5,-2.1 9.8,-1.2 0.8,0.5 1.7,3.6 2.1,6.8 0.4,3.3 1,6.5 1.5,7.2 0.4,0.7 0.7,9.9 0.7,20.5 -0.1,10.5 0.4,24.1 0.9,30.2 1,11 2.5,62.9 2.5,86.5 0,6.9 -0.4,18.3 -0.9,25.5 -0.5,7.1 -1,39.4 -1.1,71.6 -0.1,32.2 -0.5,59 -0.8,59.6 -0.4,0.5 -4.1,1.3 -8.4,1.7 -4.3,0.3 -11.4,1.1 -15.8,1.7 -13,1.8 -33.7,2.4 -54,1.7 -10.4,-0.4 -43.3,-1 -73,-1.3 -29.7,-0.3 -56.5,-1 -59.5,-1.5 -3.1,-0.5 -26.8,-0.9 -54,-0.9 -26.7,0.1 -51,-0.2 -54,-0.5 -7.9,-1 -55.6,-2.8 -67.7,-2.6 l -10.3,0.2 -0.1,-3.4 c -0.1,-1.8 -0.2,-4.7 -0.4,-6.5 -2,-24 -2.3,-130.9 -0.5,-158.4 0.6,-8 1.5,-41 2,-73.5 0.5,-32.4 1,-59 1,-59.2 0,-0.1 0.7,-0.2 1.5,-0.2 2.1,0 4.4,2.9 8.6,10.8 2.9,5.4 4.1,6.8 6.3,7 4.1,0.5 4.2,-2.1 0.4,-7.5 -1.9,-2.7 -4,-5.9 -4.7,-7.4 -2,-4 -7,-8.9 -9.2,-8.9 -2,0 -2.6,-1.5 -0.9,-2.5 1.6,-1 42.1,-1.2 45.8,-0.2 2.5,0.6 3.9,0.4 5.5,-0.7 2.6,-1.8 3.8,-1.9 6.9,-0.7 z m -103.4,64.7 c -0.9,0.9 -2.1,1.3 -2.7,1 -2,-1.3 -1.1,-2.6 1.6,-2.6 2.5,0 2.6,0.1 1.1,1.6 z"
     id="path64"
     inkscape:connector-curvature="0"
     style="fill:#000000;stroke:none;stroke-width:0.1" />
  <path
     inkscape:export-ydpi="144"
     inkscape:export-xdpi="144"
     d="m 1130.5898,1724.3271 c -1.5,1.4 -0.5,4.3 3.1,8.9 2.1,2.7 4.8,7.1 6,9.9 3.4,7.4 12.2,13.1 13.8,9 0.4,-0.9 -0.8,-3 -3.1,-5.3 -2,-2 -5.2,-6.9 -7.2,-10.7 -5,-10 -9.9,-14.6 -12.6,-11.8 z"
     id="path66"
     inkscape:connector-curvature="0"
     style="fill:#000000;stroke:none;stroke-width:0.1" />
  <path
     inkscape:export-ydpi="144"
     inkscape:export-xdpi="144"
     d="m 1155.0898,1771.8271 c -0.7,0.7 -1.2,1.7 -1.2,2.3 0,1.4 5.5,12 8.1,15.7 2.1,2.9 6.3,3.8 7.2,1.5 0.9,-2.5 -0.5,-7.6 -2.3,-8.2 -1,-0.3 -2.6,-2.5 -3.5,-4.8 -2.8,-6.9 -5.6,-9.2 -8.3,-6.5 z"
     id="path80"
     inkscape:connector-curvature="0"
     style="fill:#000000;stroke:none;stroke-width:0.1" />
  <path
     inkscape:export-ydpi="144"
     inkscape:export-xdpi="144"
     d="m 1170.5898,1804.3271 c -1.6,1.5 -0.5,6.3 2.3,10.4 1.6,2.4 3,5 3,5.8 0,2.9 6.1,12.1 8,12.1 2.7,0 3.2,-1.4 2.5,-6.4 -0.5,-3 -2.1,-6.3 -5.1,-10.3 -2.4,-3.2 -4.4,-6.6 -4.4,-7.5 0,-3.1 -4.4,-6 -6.3,-4.1 z"
     id="path88"
     inkscape:connector-curvature="0"
     style="fill:#000000;stroke:none;stroke-width:0.1" />
  <path
     inkscape:export-ydpi="144"
     inkscape:export-xdpi="144"
     d="m 1198.5898,1841.7271 c -1,0.6 -3.1,0.8 -4.6,0.4 -3.2,-0.7 -6.1,1.4 -6.1,4.5 0,1.1 -1.2,2.6 -2.9,3.4 -3.2,1.7 -4.1,3.4 -4.1,8 0,1.8 -0.7,4.1 -1.5,5.2 -3.1,4.1 -1.1,7.3 3.9,6 2,-0.5 2.5,-1.7 4.1,-9.5 l 1.8,-8.9 5.6,-0.7 c 6.8,-0.8 10.1,-2.7 10.1,-5.9 0,-3.3 -2.9,-4.4 -6.3,-2.5 z"
     id="path90"
     inkscape:connector-curvature="0"
     style="fill:#000000;stroke:none;stroke-width:0.1" />
  <path
     inkscape:export-ydpi="144"
     inkscape:export-xdpi="144"
     d="m 1222.8898,1843.5271 c -3.2,0.9 -3.6,3.2 -1.1,5.5 3,2.7 20,3.6 22,1.2 2.2,-2.6 0.6,-4.6 -3.7,-4.6 -2.1,0 -6.1,-0.7 -8.8,-1.5 -2.7,-0.8 -5.1,-1.4 -5.4,-1.4 -0.3,0.1 -1.6,0.4 -3,0.8 z"
     id="path92"
     inkscape:connector-curvature="0"
     style="fill:#000000;stroke:none;stroke-width:0.1" />
  <path
     inkscape:export-ydpi="144"
     inkscape:export-xdpi="144"
     d="m 1475.5898,1844.2271 c -1.2,1.2 -0.8,6.1 0.6,7.2 0.7,0.6 5.8,0.7 13.5,0.3 10.6,-0.5 12.6,-0.9 13.8,-2.5 2.6,-3.6 0.1,-4.7 -10.5,-4.5 -5.3,0.1 -11.2,-0.2 -13.1,-0.5 -1.9,-0.4 -3.9,-0.4 -4.3,0 z"
     id="path94"
     inkscape:connector-curvature="0"
     style="fill:#000000;stroke:none;stroke-width:0.1" />
  <path
     inkscape:export-ydpi="144"
     inkscape:export-xdpi="144"
     d="m 1308.1898,1846.4271 c -1.2,1.2 -1.2,1.7 0,3.6 1.3,1.9 2.5,2.1 12,2.4 11.4,0.3 14.1,-0.8 13.5,-5.2 -0.3,-2 -0.8,-2.1 -12.2,-2.1 -8.9,-0.1 -12.2,0.3 -13.3,1.3 z"
     id="path96"
     inkscape:connector-curvature="0"
     style="fill:#000000;stroke:none;stroke-width:0.1" />
  <path
     inkscape:export-ydpi="144"
     inkscape:export-xdpi="144"
     d="m 1354.1898,1845.4271 c -1.7,0.2 -2.3,1 -2.3,2.8 0,2.8 0.8,3.1 14.7,3.9 11.5,0.7 14.3,-0.1 14.3,-4 0,-1.4 -0.3,-2.6 -0.7,-2.6 -2,-0.3 -24.1,-0.4 -26,-0.1 z"
     id="path98"
     inkscape:connector-curvature="0"
     style="fill:#000000;stroke:none;stroke-width:0.1" />
  <path
     inkscape:export-ydpi="144"
     inkscape:export-xdpi="144"
     d="m 1398.3898,1845.4271 c -1.2,1.3 -0.3,5.2 1.4,6.2 2.2,1.1 11.6,1.2 17.6,0.2 3.6,-0.7 4,-1 4,-3.7 v -3 l -11.3,-0.1 c -6.2,0 -11.4,0.2 -11.7,0.4 z"
     id="path100"
     inkscape:connector-curvature="0"
     style="fill:#000000;stroke:none;stroke-width:0.1" />
  <path
     inkscape:export-ydpi="144"
     inkscape:export-xdpi="144"
     d="m 1436.1898,1846.2271 c -1.6,4.2 2.7,6.4 12.6,6.4 7.7,0 10.5,-1.4 9.9,-5.1 -0.3,-2.4 -0.5,-2.4 -11.1,-2.6 -8.5,-0.1 -10.9,0.2 -11.4,1.3 z"
     id="path102"
     inkscape:connector-curvature="0"
     style="fill:#000000;stroke:none;stroke-width:0.1" />
  <path
     inkscape:export-ydpi="144"
     inkscape:export-xdpi="144"
     d="m 1265.1898,1846.3271 c -2,0.7 -1.6,5.1 0.5,5.7 3.2,0.9 22.9,1.8 25.1,1.1 2.3,-0.7 2.8,-3.7 0.9,-5.2 -1.4,-1.1 -24.4,-2.4 -26.5,-1.6 z"
     id="path104"
     inkscape:connector-curvature="0"
     style="fill:#000000;stroke:none;stroke-width:0.1" />
  <path
     inkscape:export-ydpi="144"
     inkscape:export-xdpi="144"
     d="m 1171.5898,1879.4271 c -1,1 -1.7,2.4 -1.7,3 0,0.6 -1.3,2.6 -2.8,4.4 -4,4.7 -8.2,11.2 -8.2,12.6 0,0.6 1.1,1.4 2.4,1.8 2.7,0.6 6.6,-1 6.6,-2.8 0,-2.3 3.6,-8.8 5.2,-9.3 2.2,-0.8 5.1,-7.1 4.3,-9.5 -0.8,-2.5 -3.7,-2.6 -5.8,-0.2 z"
     id="path108"
     inkscape:connector-curvature="0"
     style="fill:#000000;stroke:none;stroke-width:0.1" />
  <path
     inkscape:export-ydpi="144"
     inkscape:export-xdpi="144"
     d="m 1150.7898,1915.8271 c -5.7,11.3 -6.4,17.8 -1.9,17.8 2.2,0 3.4,-2 4.4,-7 0.3,-1.9 1.8,-5.2 3.1,-7.2 2.9,-4.3 3.1,-6.3 0.9,-7.2 -3.1,-1.2 -4.4,-0.5 -6.5,3.6 z"
     id="path114"
     inkscape:connector-curvature="0"
     style="fill:#000000;stroke:none;stroke-width:0.1" />
  <path
     inkscape:export-ydpi="144"
     inkscape:export-xdpi="144"
     d="m 1139.7898,1944.8271 c -4.3,4.5 -6.9,8.9 -6.9,11.4 0,1.2 -0.7,2.7 -1.5,3.4 -2.1,1.7 -1.5,5.4 0.8,5.8 2.6,0.5 4.7,-1.6 7,-6.8 1.1,-2.5 2.9,-5.9 4.2,-7.5 3.2,-4.4 3.7,-7.3 1.4,-8.6 -1.6,-0.8 -2.5,-0.4 -5,2.3 z"
     id="path122"
     inkscape:connector-curvature="0"
     style="fill:#000000;stroke:none;stroke-width:0.1" />
  <path
     inkscape:export-ydpi="144"
     inkscape:export-xdpi="144"
     d="m 1122.3898,1973.4271 c -1.9,1.3 -5.2,6.7 -6.6,10.7 -0.7,2.2 -2.4,4.9 -3.8,6.1 -2.8,2.4 -2.3,5.4 0.9,5.4 1.4,0 2.6,-1.1 3.5,-3.4 0.8,-1.9 1.8,-3.6 2.2,-3.8 1.9,-0.8 6.7,-9.5 6.5,-11.8 -0.2,-2.9 -1.3,-4.2 -2.7,-3.2 z"
     id="path124"
     inkscape:connector-curvature="0"
     style="fill:#000000;stroke:none;stroke-width:0.1" />
  <path
     inkscape:connector-curvature="0"
     id="path1085"
     d="m 1108.1568,1688.4534 16.6049,19.6636 67.2934,136.3348 317.6774,4.8067 -5.2436,-158.6203 -17.4788,1.7479 -316.9203,-3.859 z"
     style="fill:none;stroke:none;stroke-width:0.75px;stroke-linecap:butt;stroke-linejoin:miter;stroke-opacity:1" />
  <path
     inkscape:connector-curvature="0"
     id="path2112"
     d="M1115.76709809 1757.88871046C1115.76709809 1757.88871046 1115.76747143 1759.1617609 1115.45829181 1759.35453235C1115.31412905 1759.44441688 1114.12824329 1757.35176829 1113.94085828 1757.46860161C1113.78439144 1757.56615765 1114.09277002 1757.73841767 1113.91593078 1757.84867577C1113.75439591 1757.9493917 1114.71815996 1758.05073081 1114.54671956 1758.15762277C1114.38176078 1758.26047348 1115.16935443 1758.49657475 1115.00137645 1758.60130791C1114.83304801 1758.70625959 1114.58167541 1759.5539814 1114.41637962 1759.65704224C1114.24465926 1759.76410875 1113.92040807 1758.1490273 1113.75863988 1758.2498887C1113.58222725 1758.35988081 1113.99536806 1760.43783405 1113.83925212 1760.53517131C1113.65168597 1760.65211757 1112.80222337 1759.1818888 1112.6579812 1759.27182285C1112.34914366 1759.46438102 1112.39921503 1761.86397276 1112.39921503 1761.86397276C1112.39921503 1761.86397276 1116.61872014 1768.51408001 1122.23040837 1778.78677186C1124.84822983 1783.57892568 1127.04480352 1787.4659055 1130.44779284 1793.69537856C1133.28373564 1798.88682279 1135.91751914 1804.87056659 1139.1221562 1810.73693829C1142.05536234 1816.10643167 1144.94023386 1821.53560866 1148.05351014 1827.23473637C1151.05038243 1832.72077627 1153.6790066 1838.16277999 1156.73078612 1843.74933243C1159.78267617 1849.33608722 1163.6785205 1855.1899815 1166.67549539 1860.67620921C1169.78879874 1866.37538647 1171.73646251 1872.18674709 1174.66968478 1877.55627C1177.87407733 1883.42219411 1182.45471494 1889.59012215 1185.29046214 1894.78120831C1188.69361516 1901.01098105 1190.72642027 1906.23009745 1193.34433001 1911.02241287C1198.95585871 1921.2948127 1203.45113636 1925.83289334 1203.45113636 1925.83289334C1203.45113636 1925.83289334 1214.2635203 1927.12220516 1232.62141703 1927.0709003C1241.18527411 1927.04696686 1251.12759359 1927.73087146 1262.2600236 1927.69975962C1271.53677297 1927.67383387 1279.87553819 1926.88395875 1290.35826855 1926.85466263C1299.95388519 1926.82784574 1311.10634013 1927.63040626 1321.29107225 1927.60194296C1331.09500185 1927.57454389 1342.71055425 1927.42861941 1352.69413307 1927.40071827C1362.67807351 1927.37281613 1371.30894242 1927.33982013 1381.11325339 1927.31241999C1391.29812159 1927.28395631 1402.22927608 1928.99524537 1411.82504241 1928.96842806C1422.30791733 1928.93913154 1431.04790356 1925.99953245 1440.32480245 1925.97360627C1451.4579199 1925.94249252 1460.72355745 1927.87271982 1469.28783182 1927.84878521C1487.6454821 1927.79748104 1501.89802363 1925.4415991 1501.89802363 1925.4415991C1501.89802363 1925.4415991 1501.80022575 1925.49674706 1501.78874163 1925.12771142C1501.78338686 1924.95563928 1498.71342866 1926.15544975 1498.70646846 1925.93178769C1498.70065667 1925.74502945 1499.03370157 1926.80642202 1499.02713307 1926.59534736C1499.02113304 1926.40253993 1499.20653103 1925.01221453 1499.20016307 1924.8075839C1499.19403587 1924.61068971 1499.09191981 1923.61015997 1499.08568046 1923.40966207C1499.07942809 1923.20874587 1501.13394117 1923.77366116 1501.12780145 1923.57636473C1501.12142309 1923.37139993 1501.0606286 1922.17011014 1501.0546199 1921.97702423C1501.04806726 1921.76645877 1499.12240773 1922.93482312 1499.11660898 1922.74848371C1499.10964205 1922.52460545 1501.3241871 1921.80435116 1501.31882938 1921.63218423C1501.30735797 1921.26355689 1499.42230737 1920.30298594 1499.42230737 1920.30298594C1499.42230737 1920.30298594 1488.54919689 1920.13932925 1470.44925496 1920.19665044C1462.00573236 1920.22339046 1453.71781262 1920.61424338 1442.74180923 1920.64900358C1433.5954115 1920.67796955 1422.93567381 1922.04034057 1412.60024086 1922.07307213C1403.1394564 1922.10303374 1394.54680813 1920.0526729 1384.50518611 1920.08447398C1374.83901579 1920.11508604 1362.39578375 1919.86707908 1352.55248853 1919.89825208C1342.70883679 1919.9294262 1334.73289739 1922.34228974 1325.06635106 1922.37290298C1315.02459487 1922.40470449 1303.81950768 1920.78758188 1294.35857564 1920.81754396C1284.02300016 1920.85027597 1274.54228981 1921.69968146 1265.39574467 1921.7286479C1254.4190635 1921.76341025 1243.98956802 1920.69303684 1235.54563399 1920.71977816C1217.44593504 1920.77709859 1206.43917153 1922.51196449 1206.43917153 1922.51196449C1206.43917153 1922.51196449 1203.30762175 1914.72520158 1197.77093884 1904.64600868C1195.18810695 1899.94412105 1193.06115003 1896.64828285 1189.70364477 1890.53614969C1186.90560692 1885.44249277 1183.45052789 1878.60404517 1180.28872372 1872.84817389C1177.39472255 1867.57982161 1173.79403703 1861.53179485 1170.72237252 1855.94001731C1167.76555615 1850.5573138 1165.04402589 1846.40806632 1162.03303618 1840.92674355C1159.02193742 1835.44522225 1155.41963802 1829.31472981 1152.46272044 1823.93184204C1149.39102922 1818.34001588 1144.99821838 1811.3938607 1142.1042013 1806.12547945C1138.94263837 1800.37004734 1137.34187484 1796.29899116 1134.54402999 1791.20568558C1131.1863632 1785.09325837 1129.46665966 1777.63875462 1126.88374067 1772.93670843C1121.34721516 1762.85780206 1117.8190233 1757.7744928 1117.8190233 1757.7744928"
     style="color:#000000;font-style:normal;font-variant:normal;font-weight:normal;font-stretch:normal;font-size:medium;line-height:normal;font-family:sans-serif;font-variant-ligatures:normal;font-variant-position:normal;font-variant-caps:normal;font-variant-numeric:normal;font-variant-alternates:normal;font-feature-settings:normal;text-indent:0;text-align:start;text-decoration:none;text-decoration-line:none;text-decoration-style:solid;text-decoration-color:#000000;letter-spacing:normal;word-spacing:normal;text-transform:none;writing-mode:lr-tb;direction:ltr;text-orientation:mixed;dominant-baseline:auto;baseline-shift:baseline;text-anchor:start;white-space:normal;shape-padding:0;clip-rule:nonzero;display:inline;overflow:visible;visibility:visible;opacity:1;isolation:auto;mix-blend-mode:normal;color-interpolation:sRGB;color-interpolation-filters:linearRGB;solid-color:#000000;solid-opacity:1;vector-effect:none;fill:#217821;fill-opacity:1;fill-rule:nonzero;stroke:none;stroke-width:5.92500019;stroke-linecap:butt;stroke-linejoin:miter;stroke-miterlimit:4;stroke-dasharray:none;stroke-dashoffset:0;stroke-opacity:1;color-rendering:auto;image-rendering:auto;shape-rendering:auto;text-rendering:auto;enable-background:accumulate" />
  <path
     style="fill:#217821;stroke:none;stroke-width:0.08548227;fill-opacity:1"
     inkscape:connector-curvature="0"
     d="m 1321.9072,1707.3639 c -1.1968,0.7693 -2.2226,1.4532 -2.3081,1.4532 -0.085,0.085 0.7694,3.6757 1.9661,8.1208 1.1113,4.3596 1.7952,8.2918 1.5387,8.8047 -0.7693,1.1967 -4.616,0 -7.4369,-2.3935 -1.8806,-1.6242 -3.3338,-2.0516 -5.6419,-1.8806 -2.7354,0.2564 -3.0773,0.5129 -3.0773,2.7354 0,3.4193 -1.5387,3.6757 -17.9513,2.9919 -7.5224,-0.3419 -14.361,-0.4274 -15.1304,-0.2565 -1.7951,0.5129 -2.2225,5.4709 -0.4274,5.4709 0.5129,0.085 7.6934,0.2565 15.7288,0.4274 8.1208,0.171 15.2158,0.5984 15.7287,0.8548 0.4274,0.342 0.6839,1.6242 0.3419,2.9064 -0.8548,4.0177 1.3677,4.958 6.2402,2.821 4.6161,-2.0516 11.1127,-4.0177 11.6256,-3.5048 0.2565,0.1709 0.5129,3.5902 0.5984,7.6079 0.2564,8.0353 1.0258,11.1127 2.8209,11.1127 0.5984,0 1.6242,0.5129 2.1371,1.1967 0.5983,0.6839 2.9918,1.8807 5.4708,2.65 2.479,0.7693 5.0435,1.9661 5.8128,2.6499 0.7694,0.6839 3.0774,2.1371 5.0435,3.1629 2.0516,1.0258 3.5902,2.2225 3.5048,2.7354 -0.171,0.9403 -13.8482,8.3773 -19.7464,10.6853 l -3.8468,1.5387 v 11.3691 c 0,8.2063 -0.2564,11.3692 -1.0257,11.6256 -0.5984,0.2565 -3.1629,-1.7951 -5.6419,-4.3596 -2.5644,-2.6499 -5.2999,-4.787 -6.2402,-4.787 -2.9919,0.086 -5.0434,2.3935 -5.0434,5.8128 v 3.1629 l -8.9757,1.1112 c -4.9579,0.5984 -13.1642,0.9403 -18.3787,0.7694 -5.1289,-0.2565 -9.9159,-0.171 -10.4288,0 -1.5387,0.5129 -1.3677,4.1031 0.171,5.3853 1.0258,0.8549 4.616,0.9403 16.0706,0.4275 8.1209,-0.342 16.4126,-0.6839 18.5497,-0.7694 l 3.8467,-0.086 0.2564,3.5903 c 0.342,4.958 2.821,6.4112 6.0693,3.5048 3.5048,-3.1629 7.3515,-5.6419 9.1466,-5.9838 1.2822,-0.171 1.7096,0.3419 1.8806,2.65 0.171,1.6241 -0.171,4.616 -0.6839,6.7531 -0.7693,3.3338 -0.7693,3.9321 0.5984,4.8724 1.4532,1.1113 1.4532,1.1968 -0.171,2.479 -1.3677,1.0258 -1.5386,1.5387 -0.7693,2.8209 0.5129,0.8549 1.7951,1.6242 2.8209,1.7952 1.9661,0.3419 7.0951,-1.7097 9.4886,-3.6758 0.6838,-0.5983 2.308,-1.2822 3.5902,-1.6241 1.2822,-0.2565 3.7612,-1.4532 5.4709,-2.65 1.7096,-1.1967 3.5047,-2.137 3.9322,-2.137 1.2822,0 16.1561,-7.608 19.4044,-9.916 1.6242,-1.1113 3.5903,-2.0516 4.3596,-2.0516 0.8549,0 1.9661,-0.5128 2.479,-1.1967 0.5129,-0.5984 2.8209,-1.7951 5.0435,-2.65 2.2225,-0.8548 4.616,-2.0515 5.2999,-2.6499 0.6838,-0.5984 3.3338,-1.8806 5.8128,-2.8209 2.4789,-1.0258 5.3853,-2.308 6.4111,-2.9919 1.0258,-0.6839 4.0177,-2.0516 6.5822,-3.1628 7.4369,-3.0774 7.6934,-3.4193 7.6934,-11.6256 v -7.0951 l 7.9498,-0.085 c 24.9608,-0.171 26.6705,-0.4275 26.0721,-4.5306 -0.2564,-1.7096 -0.6838,-1.7951 -15.6432,-1.7951 -8.4628,0 -15.8143,-0.2565 -16.3272,-0.5984 -1.1112,-0.6839 -0.5983,-9.1466 0.5984,-10.5143 1.3677,-1.3677 0.8548,-2.9919 -1.5387,-5.2144 -2.7354,-2.479 -9.0611,-5.4709 -11.4546,-5.4709 -0.8548,0 -1.6241,-0.3419 -1.6241,-0.7693 0,-0.4275 -1.4532,-1.3678 -3.1629,-2.2226 -4.787,-2.137 -7.3515,-3.4193 -9.2321,-4.5305 -3.4193,-1.8807 -11.1982,-5.5564 -14.361,-6.6677 -1.7951,-0.5983 -4.2741,-1.8806 -5.5563,-2.7354 -1.2823,-0.8548 -3.6758,-2.0516 -5.2999,-2.6499 -1.6242,-0.6839 -4.2742,-1.7097 -5.7274,-2.3936 -1.5386,-0.5983 -4.3596,-1.7096 -6.2402,-2.3935 -1.9661,-0.6838 -4.5305,-1.966 -5.8128,-2.9064 -1.2822,-0.8548 -3.6757,-2.2225 -5.2999,-2.9918 -5.1289,-2.3935 -9.4885,-5.2999 -11.9675,-8.1208 -2.8209,-3.0774 -3.1628,-3.1629 -5.9837,-1.1968 z m 11.5401,11.3691 c 5.2144,3.2484 15.3868,8.5483 16.3271,8.5483 1.0258,0 10.0014,4.1886 14.8739,6.924 1.6242,0.9403 4.7015,2.479 6.8386,3.4193 2.137,0.8548 4.5305,1.9661 5.3854,2.479 3.1628,1.8806 4.616,2.5645 10.0014,4.958 3.0774,1.3677 6.9241,2.9919 8.5482,3.5048 1.6242,0.5128 3.9322,1.6241 5.129,2.4789 1.1967,0.7694 3.2483,1.7952 4.7015,2.3081 1.5387,0.5129 2.7354,1.6241 3.0773,2.9918 0.9403,3.4193 0.8549,16.1562 -0.085,18.0368 -0.5129,0.8548 -0.9403,3.7612 -1.0258,6.4112 -0.171,4.5305 -0.342,4.8725 -3.1629,6.6676 -1.7096,1.0258 -5.7273,3.1628 -9.0611,4.787 -3.2483,1.5387 -6.5821,3.1628 -7.266,3.5048 -2.9064,1.7096 -18.5496,9.1466 -20.2593,9.6595 -1.1113,0.3419 -1.9661,0.9403 -1.9661,1.3677 0,0.4274 -1.6241,1.5387 -3.5902,2.479 -2.0516,0.9403 -4.6161,2.308 -5.8128,2.9918 -1.1968,0.6839 -4.4451,2.2226 -7.266,3.3339 -2.8209,1.1967 -7.9499,3.3338 -11.3692,4.9579 -4.3596,1.9661 -6.4111,2.5645 -7.095,1.8806 -1.0258,-1.0258 -1.1113,-3.0773 -0.8548,-23.5076 l 0.085,-14.2755 4.787,-3.1629 c 2.7354,-1.6241 7.6079,-4.5305 10.9417,-6.2402 9.2321,-4.958 12.3095,-6.8386 12.8223,-8.2918 0.7694,-1.8806 0.086,-2.6499 -3.5902,-3.8467 -1.7097,-0.5983 -4.0177,-1.5386 -5.0435,-2.2225 -2.5644,-1.7096 -8.4627,-4.8725 -13.7626,-7.437 -2.8209,-1.3677 -4.787,-2.9064 -5.2999,-4.2741 -0.4274,-1.2822 -1.1113,-2.2225 -1.4532,-2.2225 -0.4274,0 -0.6839,-0.8548 -0.7693,-1.9661 0,-1.0258 -0.342,-7.9499 -0.6839,-15.3868 l -0.6839,-13.5917 2.0516,0.5984 c 1.0258,0.3419 3.1629,1.2822 4.5306,2.137 z"
     id="path3634" />
  <path
     style="fill:#217821;stroke:none;stroke-width:0.08548227;fill-opacity:1"
     inkscape:connector-curvature="0"
     d="m 1377.8885,1758.1969 c -1.0258,0.5984 -1.1113,1.3677 -0.2565,4.4451 1.1968,4.445 0.3419,5.6418 -2.7354,4.2741 -2.9064,-1.3677 -5.5564,0 -5.5564,2.8209 0,2.308 2.1371,3.8467 5.4709,3.8467 2.308,0 2.3935,0.3419 2.5645,5.5563 0.086,2.3081 0.3419,2.5645 3.0773,2.5645 h 2.9919 l -0.2564,-4.1031 -0.2565,-4.0177 h 4.2741 c 5.2999,0 6.9241,-0.5984 6.9241,-2.65 0,-2.2225 -2.5645,-3.3338 -7.7789,-3.3338 -4.1886,0 -4.3596,-0.085 -3.7612,-1.9661 1.9661,-6.0692 -0.5129,-10.0869 -4.7015,-7.4369 z"
     id="path3636" />
  <path
     style="fill:#217821;stroke:none;stroke-width:0.08548227;fill-opacity:1"
     inkscape:connector-curvature="0"
     d="m 1248.2215,1790.6236 c -0.8549,0.4274 -1.5387,1.6242 -1.5387,2.65 0,0.9403 -1.3677,2.9919 -3.0774,4.5305 -2.7354,2.479 -2.9064,3.0774 -2.0516,4.7016 0.7694,1.4532 1.5387,1.7951 3.4193,1.3677 3.2484,-0.5984 4.4451,1.0258 4.1032,5.6418 -0.2565,3.2483 -0.5129,3.7612 -2.8209,4.3596 -4.1032,1.2822 -5.129,1.9661 -5.3854,3.7612 -0.5129,3.1629 1.4532,3.6758 11.3691,2.9919 7.3515,-0.5129 9.4031,-0.8548 10.1724,-2.0516 1.2822,-2.0515 -0.171,-3.2483 -4.4451,-3.8467 l -3.4193,-0.4274 -0.5983,-5.2999 c -0.2565,-2.8209 -0.5129,-7.7789 -0.4274,-10.8562 0.085,-4.1887 -0.2565,-6.0693 -1.2823,-7.0951 -1.6241,-1.6241 -2.0516,-1.6241 -4.0176,-0.4274 z"
     id="path3638" />
  <g
     id="g3716"
     transform="translate(200.22208,9.8875101)">
    <path
       id="path3640"
       d="m 728.55241,1577.9902 c -2.5,1.8 -2.6,9.5 -0.2,11.2 1.2,0.9 1.6,2 1.1,3.4 -0.5,1.8 -1.4,2 -6.3,1.9 -3.1,-0.1 -6.7,0.4 -7.9,1.1 -4.7,2.5 -2,4.7 6.4,5.3 3.5,0.2 6.5,0.7 6.9,1.1 0.3,0.3 -0.1,3.3 -0.9,6.6 -2,7.9 -1.4,9.9 3.2,10.8 4.1,0.9 12.9,0.8 16.4,-0.1 3.4,-0.8 4.2,-3.5 1.8,-5.9 -1.8,-1.8 -2.4,-1.9 -7.9,-0.8 -8.4,1.6 -9.6,1 -8.9,-5.2 0.4,-2.7 0.9,-5.2 1.3,-5.6 0.3,-0.3 3.2,-0.5 6.5,-0.3 4.8,0.2 6.1,-0.1 6.6,-1.4 1.2,-3.1 -1.1,-4.9 -6.8,-5.4 -4.7,-0.4 -5.4,-0.8 -5.4,-2.7 0,-1.1 -0.3,-2.4 -0.7,-2.8 -0.4,-0.4 -0.4,-2.9 -0.1,-5.5 0.5,-4.1 0.3,-4.9 -1.4,-5.9 -1.5,-0.7 -2.5,-0.7 -3.7,0.2 z"
       inkscape:connector-curvature="0"
       style="fill:#000000;stroke:none;stroke-width:0.1" />
    <path
       id="path3642"
       d="m 670.95241,1599.3902 c -8,3 -11.3,6.7 -11.4,12.8 -0.1,3.8 0.4,4.7 3.8,7.9 2.6,2.3 5,3.6 6.7,3.6 1.5,0 3.1,0.4 3.4,1 0.8,1.3 9.1,1.3 11.6,0 5.1,-2.8 0.1,-7.1 -7.5,-6.4 -7,0.7 -11.6,-2.1 -11.6,-6.9 0,-2.9 0.6,-3.6 4.1,-5.5 2.6,-1.4 5.9,-2.2 9.2,-2.2 4.6,-0.1 8.7,-1.6 8.7,-3.3 0,-1.2 -5.9,-3.7 -8.2,-3.6 -1.3,0.1 -5.2,1.2 -8.8,2.6 z"
       inkscape:connector-curvature="0"
       style="fill:#000000;stroke:none;stroke-width:0.1" />
    <path
       id="path3644"
       d="m 688.95241,1602.3902 c 0,1.5 1.2,6.3 2.6,10.5 2,6 3,7.8 4.4,7.8 2.3,0 5,-3.6 5,-6.5 0,-2.5 3.9,-6.5 6.2,-6.5 2,0 2.8,2.1 2.8,7 0,2.2 0.8,4.7 1.8,6 1.6,2 2.1,2.1 4.1,1 2.1,-1 2.2,-1.7 1.7,-5.3 -1.1,-6.4 -5.1,-14.5 -8,-15.8 -3.3,-1.5 -7.9,0.3 -9.4,3.7 -1.6,3.4 -4,3 -5,-0.9 -0.6,-2.5 -1.4,-3.3 -3.5,-3.5 -2.4,-0.3 -2.7,0 -2.7,2.5 z"
       inkscape:connector-curvature="0"
       style="fill:#000000;stroke:none;stroke-width:0.1" />
  </g>
  <path
     style="fill:#217821;stroke:none;stroke-width:0.12970087;fill-opacity:1"
     inkscape:connector-curvature="0"
     d="m 1161.9354,1736.4361 c 6.408,-5.2805 6.6664,-6.7508 0.8863,-6.7368 -4.6065,-0.024 -5.8482,0.5322 -18.1475,8.1523 -23.6064,14.6064 -25.5372,15.9586 -26.4451,18.9119 -1.2937,3.9118 0.6766,3.2464 14.2374,-4.5864 6.0276,-3.3761 14.1136,-7.5925 18.0884,-9.1825 4.2583,-1.7711 8.9023,-4.5007 11.3805,-6.5585 z"
     id="path3650" />
  <path
     style="fill:#217821;stroke:none;stroke-width:0.1;fill-opacity:1"
     inkscape:connector-curvature="0"
     d="m 1207.2077,1728.2355 c -5.2,0.5 -16.3,0.6 -24.5,0.3 -12.4,-0.5 -15.7,-0.3 -18.8,1 -3.7,1.5 -3.8,1.7 -2.4,3.8 1.4,2.1 2,2.1 17.3,1.9 8.7,-0.1 21.6,-0.7 28.5,-1.3 6.9,-0.6 15.2,-0.8 18.5,-0.5 11.1,1.3 40.7,1.8 42.8,0.7 1.2,-0.5 3.3,-1.2 4.9,-1.5 3,-0.7 3.5,-2.7 1.2,-4.6 -1.2,-1 -2.8,-1 -8,0 -3.6,0.7 -8.4,0.9 -10.8,0.6 -2.3,-0.3 -5.5,-0.2 -7.2,0.2 -1.6,0.5 -5.2,0.5 -8,0.1 -8.4,-1.2 -23.5,-1.5 -33.5,-0.7 z"
     id="path3652" />
  <g
     id="g3737"
     transform="translate(1091.3339,-65.504754)">
    <path
       id="path3646"
       d="m 739.25241,1660.1902 c -1.3,0.9 -2.3,2.4 -2.3,3.4 0,1 -0.7,2.4 -1.5,3.1 -0.8,0.7 -1.5,1.8 -1.5,2.5 0,0.7 -1.6,2.2 -3.5,3.4 -4.2,2.4 -4.3,3.3 -0.8,5.6 2.3,1.5 3.1,1.6 6,0.5 1.9,-0.6 3.7,-1 3.9,-0.7 0.7,0.7 0.6,15.5 -0.1,16.7 -0.3,0.6 -2.3,1 -4.4,1 -4,0 -6.1,1.4 -6.1,4.1 0,2.7 1.2,3 12.8,3.4 7.8,0.2 11.4,-0.1 13.5,-1.1 4.7,-2.5 2.8,-5.1 -4.3,-5.6 l -4.5,-0.3 -0.3,-8.9 c -0.2,-5 -0.8,-9.6 -1.4,-10.3 -0.6,-0.8 -0.9,-4.6 -0.7,-9.5 0.4,-9.1 -0.4,-10.4 -4.8,-7.3 z"
       inkscape:connector-curvature="0"
       style="fill:#000000;stroke:none;stroke-width:0.1" />
    <path
       id="path3648"
       d="m 685.05241,1665.5902 c -1.8,1.2 -0.9,8.5 1.3,11 2.7,3 1.8,3.4 -5.6,2.7 -8.2,-0.7 -10.4,0.1 -9.3,3.3 0.8,2.5 2.6,3 12.5,3.5 l 7.5,0.3 0.1,4.8 c 0.1,5 1.5,6.7 4.9,6.3 2,-0.3 2.3,-2.2 1.3,-9.8 -0.3,-2.2 0.1,-2.5 3.2,-2.6 9.6,-0.4 9.2,-0.2 8.8,-3.1 -0.4,-3.3 -3.4,-4.3 -9.6,-3.1 -7.7,1.4 -11.2,-3 -6.6,-8.3 2,-2.2 1.8,-2.6 -1.6,-4.4 -3.3,-1.7 -4.9,-1.8 -6.9,-0.6 z"
       inkscape:connector-curvature="0"
       style="fill:#000000;stroke:none;stroke-width:0.1" />
    <path
       id="path3664"
       d="m 669.7397,1664.3055 c 0.6,0.2 1.8,0.2 2.5,0 0.6,-0.3 0.1,-0.5 -1.3,-0.5 -1.4,0 -1.9,0.2 -1.2,0.5 z"
       inkscape:connector-curvature="0"
       style="fill:#000000;stroke:none;stroke-width:0.1" />
  </g>
  <path
     id="path3711"
     d="m 1502.1096,1755.1746 c 8.176,-4.3704 6.7764,-4.2281 0.4554,-5.5016 -6.2657,1.4185 -10.3728,2.216 -25.5075,5.8337 -29.0442,10.7777 -31.4548,11.8322 -33.1026,14.8731 -2.2821,4.0077 0.019,3.7163 16.5799,-1.8624 7.3377,-2.3636 18.3476,-7.1997 23.0451,-8.0596 5.0476,-0.9955 15.3642,-3.5758 18.5297,-5.2832 z"
     inkscape:connector-curvature="0"
     style="fill:#217821;stroke:none;stroke-width:0.14500396;fill-opacity:1"
     sodipodi:nodetypes="ccccccc" />
  <g
     transform="translate(1001.1104,9.8875101)"
     id="g3724">
    <path
       style="fill:#000000;stroke:none;stroke-width:0.1"
       inkscape:connector-curvature="0"
       d="m 728.55241,1577.9902 c -2.5,1.8 -2.6,9.5 -0.2,11.2 1.2,0.9 1.6,2 1.1,3.4 -0.5,1.8 -1.4,2 -6.3,1.9 -3.1,-0.1 -6.7,0.4 -7.9,1.1 -4.7,2.5 -2,4.7 6.4,5.3 3.5,0.2 6.5,0.7 6.9,1.1 0.3,0.3 -0.1,3.3 -0.9,6.6 -2,7.9 -1.4,9.9 3.2,10.8 4.1,0.9 12.9,0.8 16.4,-0.1 3.4,-0.8 4.2,-3.5 1.8,-5.9 -1.8,-1.8 -2.4,-1.9 -7.9,-0.8 -8.4,1.6 -9.6,1 -8.9,-5.2 0.4,-2.7 0.9,-5.2 1.3,-5.6 0.3,-0.3 3.2,-0.5 6.5,-0.3 4.8,0.2 6.1,-0.1 6.6,-1.4 1.2,-3.1 -1.1,-4.9 -6.8,-5.4 -4.7,-0.4 -5.4,-0.8 -5.4,-2.7 0,-1.1 -0.3,-2.4 -0.7,-2.8 -0.4,-0.4 -0.4,-2.9 -0.1,-5.5 0.5,-4.1 0.3,-4.9 -1.4,-5.9 -1.5,-0.7 -2.5,-0.7 -3.7,0.2 z"
       id="path3718" />
    <path
       style="fill:#000000;stroke:none;stroke-width:0.1"
       inkscape:connector-curvature="0"
       d="m 670.95241,1599.3902 c -8,3 -11.3,6.7 -11.4,12.8 -0.1,3.8 0.4,4.7 3.8,7.9 2.6,2.3 5,3.6 6.7,3.6 1.5,0 3.1,0.4 3.4,1 0.8,1.3 9.1,1.3 11.6,0 5.1,-2.8 0.1,-7.1 -7.5,-6.4 -7,0.7 -11.6,-2.1 -11.6,-6.9 0,-2.9 0.6,-3.6 4.1,-5.5 2.6,-1.4 5.9,-2.2 9.2,-2.2 4.6,-0.1 8.7,-1.6 8.7,-3.3 0,-1.2 -5.9,-3.7 -8.2,-3.6 -1.3,0.1 -5.2,1.2 -8.8,2.6 z"
       id="path3720" />
    <path
       style="fill:#000000;stroke:none;stroke-width:0.1"
       inkscape:connector-curvature="0"
       d="m 688.95241,1602.3902 c 0,1.5 1.2,6.3 2.6,10.5 2,6 3,7.8 4.4,7.8 2.3,0 5,-3.6 5,-6.5 0,-2.5 3.9,-6.5 6.2,-6.5 2,0 2.8,2.1 2.8,7 0,2.2 0.8,4.7 1.8,6 1.6,2 2.1,2.1 4.1,1 2.1,-1 2.2,-1.7 1.7,-5.3 -1.1,-6.4 -5.1,-14.5 -8,-15.8 -3.3,-1.5 -7.9,0.3 -9.4,3.7 -1.6,3.4 -4,3 -5,-0.9 -0.6,-2.5 -1.4,-3.3 -3.5,-3.5 -2.4,-0.3 -2.7,0 -2.7,2.5 z"
       id="path3722" />
  </g>
  <g
     id="g3732"
     transform="translate(1074.0308,313.92844)">
    <path
       id="path3726"
       d="m 728.55241,1577.9902 c -2.5,1.8 -2.6,9.5 -0.2,11.2 1.2,0.9 1.6,2 1.1,3.4 -0.5,1.8 -1.4,2 -6.3,1.9 -3.1,-0.1 -6.7,0.4 -7.9,1.1 -4.7,2.5 -2,4.7 6.4,5.3 3.5,0.2 6.5,0.7 6.9,1.1 0.3,0.3 -0.1,3.3 -0.9,6.6 -2,7.9 -1.4,9.9 3.2,10.8 4.1,0.9 12.9,0.8 16.4,-0.1 3.4,-0.8 4.2,-3.5 1.8,-5.9 -1.8,-1.8 -2.4,-1.9 -7.9,-0.8 -8.4,1.6 -9.6,1 -8.9,-5.2 0.4,-2.7 0.9,-5.2 1.3,-5.6 0.3,-0.3 3.2,-0.5 6.5,-0.3 4.8,0.2 6.1,-0.1 6.6,-1.4 1.2,-3.1 -1.1,-4.9 -6.8,-5.4 -4.7,-0.4 -5.4,-0.8 -5.4,-2.7 0,-1.1 -0.3,-2.4 -0.7,-2.8 -0.4,-0.4 -0.4,-2.9 -0.1,-5.5 0.5,-4.1 0.3,-4.9 -1.4,-5.9 -1.5,-0.7 -2.5,-0.7 -3.7,0.2 z"
       inkscape:connector-curvature="0"
       style="fill:#000000;stroke:none;stroke-width:0.1" />
    <path
       id="path3728"
       d="m 670.95241,1599.3902 c -8,3 -11.3,6.7 -11.4,12.8 -0.1,3.8 0.4,4.7 3.8,7.9 2.6,2.3 5,3.6 6.7,3.6 1.5,0 3.1,0.4 3.4,1 0.8,1.3 9.1,1.3 11.6,0 5.1,-2.8 0.1,-7.1 -7.5,-6.4 -7,0.7 -11.6,-2.1 -11.6,-6.9 0,-2.9 0.6,-3.6 4.1,-5.5 2.6,-1.4 5.9,-2.2 9.2,-2.2 4.6,-0.1 8.7,-1.6 8.7,-3.3 0,-1.2 -5.9,-3.7 -8.2,-3.6 -1.3,0.1 -5.2,1.2 -8.8,2.6 z"
       inkscape:connector-curvature="0"
       style="fill:#000000;stroke:none;stroke-width:0.1" />
    <path
       id="path3730"
       d="m 688.95241,1602.3902 c 0,1.5 1.2,6.3 2.6,10.5 2,6 3,7.8 4.4,7.8 2.3,0 5,-3.6 5,-6.5 0,-2.5 3.9,-6.5 6.2,-6.5 2,0 2.8,2.1 2.8,7 0,2.2 0.8,4.7 1.8,6 1.6,2 2.1,2.1 4.1,1 2.1,-1 2.2,-1.7 1.7,-5.3 -1.1,-6.4 -5.1,-14.5 -8,-15.8 -3.3,-1.5 -7.9,0.3 -9.4,3.7 -1.6,3.4 -4,3 -5,-0.9 -0.6,-2.5 -1.4,-3.3 -3.5,-3.5 -2.4,-0.3 -2.7,0 -2.7,2.5 z"
       inkscape:connector-curvature="0"
       style="fill:#000000;stroke:none;stroke-width:0.1" />
  </g>
  <g
     transform="translate(596.95842,-119.88606)"
     id="g3745">
    <path
       style="fill:#000000;stroke:none;stroke-width:0.1"
       inkscape:connector-curvature="0"
       d="m 728.55241,1577.9902 c -2.5,1.8 -2.6,9.5 -0.2,11.2 1.2,0.9 1.6,2 1.1,3.4 -0.5,1.8 -1.4,2 -6.3,1.9 -3.1,-0.1 -6.7,0.4 -7.9,1.1 -4.7,2.5 -2,4.7 6.4,5.3 3.5,0.2 6.5,0.7 6.9,1.1 0.3,0.3 -0.1,3.3 -0.9,6.6 -2,7.9 -1.4,9.9 3.2,10.8 4.1,0.9 12.9,0.8 16.4,-0.1 3.4,-0.8 4.2,-3.5 1.8,-5.9 -1.8,-1.8 -2.4,-1.9 -7.9,-0.8 -8.4,1.6 -9.6,1 -8.9,-5.2 0.4,-2.7 0.9,-5.2 1.3,-5.6 0.3,-0.3 3.2,-0.5 6.5,-0.3 4.8,0.2 6.1,-0.1 6.6,-1.4 1.2,-3.1 -1.1,-4.9 -6.8,-5.4 -4.7,-0.4 -5.4,-0.8 -5.4,-2.7 0,-1.1 -0.3,-2.4 -0.7,-2.8 -0.4,-0.4 -0.4,-2.9 -0.1,-5.5 0.5,-4.1 0.3,-4.9 -1.4,-5.9 -1.5,-0.7 -2.5,-0.7 -3.7,0.2 z"
       id="path3739" />
    <path
       style="fill:#000000;stroke:none;stroke-width:0.1"
       inkscape:connector-curvature="0"
       d="m 670.95241,1599.3902 c -8,3 -11.3,6.7 -11.4,12.8 -0.1,3.8 0.4,4.7 3.8,7.9 2.6,2.3 5,3.6 6.7,3.6 1.5,0 3.1,0.4 3.4,1 0.8,1.3 9.1,1.3 11.6,0 5.1,-2.8 0.1,-7.1 -7.5,-6.4 -7,0.7 -11.6,-2.1 -11.6,-6.9 0,-2.9 0.6,-3.6 4.1,-5.5 2.6,-1.4 5.9,-2.2 9.2,-2.2 4.6,-0.1 8.7,-1.6 8.7,-3.3 0,-1.2 -5.9,-3.7 -8.2,-3.6 -1.3,0.1 -5.2,1.2 -8.8,2.6 z"
       id="path3741" />
    <path
       style="fill:#000000;stroke:none;stroke-width:0.1"
       inkscape:connector-curvature="0"
       d="m 688.95241,1602.3902 c 0,1.5 1.2,6.3 2.6,10.5 2,6 3,7.8 4.4,7.8 2.3,0 5,-3.6 5,-6.5 0,-2.5 3.9,-6.5 6.2,-6.5 2,0 2.8,2.1 2.8,7 0,2.2 0.8,4.7 1.8,6 1.6,2 2.1,2.1 4.1,1 2.1,-1 2.2,-1.7 1.7,-5.3 -1.1,-6.4 -5.1,-14.5 -8,-15.8 -3.3,-1.5 -7.9,0.3 -9.4,3.7 -1.6,3.4 -4,3 -5,-0.9 -0.6,-2.5 -1.4,-3.3 -3.5,-3.5 -2.4,-0.3 -2.7,0 -2.7,2.5 z"
       id="path3743" />
  </g>
</svg>
